# File generated by ImageToStl.com - Free Image and 3D model conversion tools

mtllib base_link.mtl

o obj1
v -15 10 7
v -15 10 43
v -15 0 7
v -15 -1.5E-07 43
v -15 -5 -5
v -15 -5 55
v -15 -1.5E-07 47
v -15 10 47
v -15 10 3
v -15 15 -5
v -15 15 55
v -15 0 3
v -25 15 55
v -25 15 -5
v -25 -5 55
v -25 -5 -5
v -10 -1.5E-07 47
v -10 -1.5E-07 43
v -9.39731693 0.03645548 47
v -9.39731693 0.03645548 43
v -8.80342197 0.14529076 47
v -8.80342197 0.14529076 43
v -8.22697544 0.32491866 47
v -8.22697544 0.32491866 43
v -7.67638397 0.57271975 47
v -7.67638397 0.57271975 43
v -7.15967607 0.88508058 47
v -7.15967607 0.88508058 43
v -6.68438673 1.25744617 47
v -6.68438673 1.25744617 43
v -6.25744629 1.68438661 47
v -6.25744629 1.68438661 43
v -5.88508081 2.15967607 47
v -5.88508081 2.15967607 43
v -5.57272005 2.67638397 47
v -5.57272005 2.67638397 43
v -5.32491875 3.22697544 47
v -5.32491875 3.22697544 43
v -5.14529085 3.80342174 47
v -5.14529085 3.80342174 43
v -5.03645563 4.39731646 47
v -5.03645563 4.39731646 43
v -5 5 47
v -5 5 43
v -10 10 47
v -5.03645563 5.60268354 47
v -5.14529085 6.1965785 47
v -5.32491875 6.77302456 47
v -5.57272005 7.32361603 47
v -5.88508081 7.84032393 47
v -6.25744629 8.31561375 47
v -6.68438673 8.74255371 47
v -7.15967655 9.11491966 47
v -7.67638445 9.42728043 47
v -8.22697544 9.67508125 47
v -8.80342197 9.85470867 47
v -9.39731693 9.96354485 47
v -10 10 43
v -9.39731693 9.96354485 43
v -8.80342197 9.85470867 43
v -8.22697544 9.67508125 43
v -7.67638445 9.42728043 43
v -7.15967655 9.11491966 43
v -6.68438673 8.74255371 43
v -6.25744629 8.31561375 43
v -5.88508081 7.84032393 43
v -5.57272005 7.32361603 43
v -5.32491875 6.77302456 43
v -5.14529085 6.1965785 43
v -5.03645563 5.60268354 43
v -10 10 3
v -10 10 7
v -9.39731693 9.96354485 3
v -9.39731693 9.96354485 7
v -8.80342197 9.85470963 3
v -8.80342197 9.85470963 7
v -8.22697544 9.67508125 3
v -8.22697544 9.67508125 7
v -7.67638397 9.42728043 3
v -7.67638397 9.42728043 7
v -7.15967607 9.11491966 3
v -7.15967607 9.11491966 7
v -6.68438673 8.74255371 3
v -6.68438673 8.74255371 7
v -6.25744629 8.31561375 3
v -6.25744629 8.31561375 7
v -5.88508081 7.84032393 3
v -5.88508081 7.84032393 7
v -5.57272005 7.32361603 3
v -5.57272005 7.32361603 7
v -5.32491875 6.77302456 3
v -5.32491875 6.77302456 7
v -5.14529085 6.1965785 3
v -5.14529085 6.1965785 7
v -5.03645563 5.60268354 3
v -5.03645563 5.60268354 7
v -5 5 3
v -5 5 7
v -10 0 3
v -5.03645563 4.39731646 3
v -5.14529085 3.80342174 3
v -5.32491875 3.22697568 3
v -5.57272005 2.67638421 3
v -5.88508081 2.15967631 3
v -6.25744629 1.68438673 3
v -6.68438673 1.25744629 3
v -7.15967655 0.8850807 3
v -7.67638445 0.57271987 3
v -8.22697544 0.32491878 3
v -8.80342197 0.14529091 3
v -9.39731693 0.03645563 3
v -10 0 7
v -9.39731693 0.03645563 7
v -8.80342197 0.14529091 7
v -8.22697544 0.32491878 7
v -7.67638445 0.57271987 7
v -7.15967655 0.8850807 7
v -6.68438673 1.25744629 7
v -6.25744629 1.68438673 7
v -5.88508081 2.15967631 7
v -5.57272005 2.67638421 7
v -5.32491875 3.22697568 7
v -5.14529085 3.80342174 7
v -5.03645563 4.39731646 7
vn 1 0 0
vn 0 1 0
vn 0 -0 1
vn 0 -1 0
vn -0 -0 -1
vn -1 0 0
vn 0.06038 -0.99818 0
vn 0.06038 -0.99818 0
vn 0.18026 -0.98362 0
vn 0.2975 -0.95472 0
vn 0.41041 -0.9119 0
vn 0.41041 -0.9119 -0
vn 0.51734 -0.85578 -0
vn 0.51734 -0.85578 0
vn 0.61672 -0.78718 0
vn 0.70711 -0.70711 0
vn 0.78718 -0.61672 0
vn 0.85578 -0.51734 0
vn 0.85578 -0.51734 -0
vn 0.9119 -0.41041 -0
vn 0.9119 -0.41041 0
vn 0.95472 -0.2975 0
vn 0.98362 -0.18026 0
vn 0.99818 -0.06038 0
vn 0.06038 0.99818 -0
vn 0.18026 0.98362 -0
vn 0.18026 0.98362 -0
vn 0.2975 0.95472 -0
vn 0.2975 0.95472 0
vn 0.41041 0.9119 0
vn 0.41041 0.9119 -0
vn 0.51734 0.85578 -0
vn 0.51734 0.85578 -0
vn 0.61672 0.78718 -0
vn 0.70711 0.70711 -0
vn 0.78718 0.61672 -0
vn 0.85578 0.51734 -0
vn 0.85578 0.51734 0
vn 0.9119 0.41041 0
vn 0.9119 0.41041 0
vn 0.95472 0.2975 0
vn 0.95472 0.2975 -0
vn 0.98362 0.18026 -0
vn 0.98362 0.18026 -0
vn 0.99818 0.06038 -0
vn 0.99818 0.06038 -0
vn 0 -1 0
vn 0 1 -0
vn 0.06038 0.99818 -0
vn 0.41041 0.9119 -0
vn 0.9119 0.41041 -0
vn 0.95472 0.2975 -0
vn 0.98362 0.18026 -0
vn 0.99818 0.06038 -0
vn 0.06038 -0.99818 0
vn 0.06038 -0.99818 0
vn 0.18026 -0.98362 0
vn 0.2975 -0.95472 -0
vn 0.41041 -0.9119 -0
vn 0.41041 -0.9119 -0
vn 0.51734 -0.85578 -0
vn 0.51734 -0.85578 0
vn 0.61672 -0.78718 0
vn 0.70711 -0.70711 0
vn 0.78718 -0.61672 0
vn 0.85578 -0.51734 0
vn 0.85578 -0.51734 -0
vn 0.9119 -0.41041 -0
vn 0.9119 -0.41041 -0
vn 0.95472 -0.2975 -0
vn 0.95472 -0.2975 0
vn 0.98362 -0.18026 0
vn 0.98362 -0.18026 0
vn 0.99818 -0.06038 0
vn 0.99818 -0.06038 0
usemtl mat2
f 3//1 2//1 4//1
f 3//1 4//1 5//1
f 5//1 4//1 6//1
f 6//1 4//1 7//1
f 6//1 7//1 8//1
f 9//1 10//1 1//1
f 1//1 10//1 11//1
f 1//1 11//1 2//1
f 2//1 11//1 8//1
f 8//1 11//1 6//1
f 9//1 12//1 10//1
f 10//1 12//1 5//1
f 5//1 12//1 3//1
f 11//2 10//2 13//2
f 13//2 10//2 14//2
f 6//3 11//3 15//3
f 15//3 11//3 13//3
f 5//4 6//4 16//4
f 16//4 6//4 15//4
f 10//5 5//5 14//5
f 14//5 5//5 16//5
f 16//6 15//6 14//6
f 14//6 15//6 13//6
f 17//7 18//7 19//7
f 19//8 18//8 20//8
f 19//9 20//9 21//9
f 21//9 20//9 22//9
f 21//10 22//10 23//10
f 23//10 22//10 24//10
f 23//11 24//11 25//11
f 25//12 24//12 26//12
f 25//13 26//13 27//13
f 27//14 26//14 28//14
f 27//15 28//15 29//15
f 29//15 28//15 30//15
f 29//16 30//16 31//16
f 31//16 30//16 32//16
f 31//17 32//17 33//17
f 33//17 32//17 34//17
f 33//18 34//18 35//18
f 35//19 34//19 36//19
f 35//20 36//20 37//20
f 37//21 36//21 38//21
f 37//22 38//22 39//22
f 39//22 38//22 40//22
f 39//23 40//23 41//23
f 41//23 40//23 42//23
f 41//24 42//24 43//24
f 43//24 42//24 44//24
f 17//3 19//3 7//3
f 7//3 19//3 45//3
f 7//3 45//3 8//3
f 21//3 43//3 19//3
f 19//3 43//3 46//3
f 19//3 46//3 47//3
f 21//3 23//3 43//3
f 43//3 23//3 25//3
f 43//3 25//3 27//3
f 27//3 29//3 43//3
f 43//3 29//3 41//3
f 41//3 29//3 39//3
f 39//3 29//3 37//3
f 37//3 29//3 35//3
f 35//3 29//3 33//3
f 33//3 29//3 31//3
f 47//3 48//3 19//3
f 19//3 48//3 49//3
f 19//3 49//3 50//3
f 50//3 51//3 19//3
f 19//3 51//3 52//3
f 19//3 52//3 53//3
f 53//3 54//3 19//3
f 19//3 54//3 55//3
f 19//3 55//3 56//3
f 56//3 57//3 19//3
f 19//3 57//3 45//3
f 58//25 45//25 59//25
f 59//25 45//25 57//25
f 59//26 57//26 60//26
f 60//27 57//27 56//27
f 60//28 56//28 61//28
f 61//29 56//29 55//29
f 61//30 55//30 62//30
f 62//31 55//31 54//31
f 62//32 54//32 63//32
f 63//33 54//33 53//33
f 63//34 53//34 64//34
f 64//34 53//34 52//34
f 64//35 52//35 65//35
f 65//35 52//35 51//35
f 65//36 51//36 66//36
f 66//36 51//36 50//36
f 66//37 50//37 67//37
f 67//38 50//38 49//38
f 67//39 49//39 68//39
f 68//40 49//40 48//40
f 68//41 48//41 69//41
f 69//42 48//42 47//42
f 69//43 47//43 70//43
f 70//44 47//44 46//44
f 70//45 46//45 44//45
f 44//46 46//46 43//46
f 42//5 30//5 44//5
f 44//5 30//5 28//5
f 44//5 28//5 26//5
f 42//5 40//5 30//5
f 30//5 40//5 38//5
f 30//5 38//5 36//5
f 36//5 34//5 30//5
f 30//5 34//5 32//5
f 26//5 24//5 44//5
f 44//5 24//5 22//5
f 44//5 22//5 20//5
f 18//5 4//5 20//5
f 20//5 4//5 58//5
f 20//5 58//5 59//5
f 4//5 2//5 58//5
f 59//5 60//5 20//5
f 20//5 60//5 61//5
f 20//5 61//5 62//5
f 62//5 63//5 20//5
f 20//5 63//5 64//5
f 20//5 64//5 65//5
f 65//5 66//5 20//5
f 20//5 66//5 67//5
f 20//5 67//5 68//5
f 68//5 69//5 20//5
f 20//5 69//5 70//5
f 20//5 70//5 44//5
f 17//47 7//47 18//47
f 18//47 7//47 4//47
f 58//48 2//48 45//48
f 45//48 2//48 8//48
f 71//49 72//49 73//49
f 73//49 72//49 74//49
f 73//27 74//27 75//27
f 75//27 74//27 76//27
f 75//28 76//28 77//28
f 77//28 76//28 78//28
f 77//50 78//50 79//50
f 79//50 78//50 80//50
f 79//33 80//33 81//33
f 81//33 80//33 82//33
f 81//34 82//34 83//34
f 83//34 82//34 84//34
f 83//35 84//35 85//35
f 85//35 84//35 86//35
f 85//36 86//36 87//36
f 87//36 86//36 88//36
f 87//37 88//37 89//37
f 89//37 88//37 90//37
f 89//51 90//51 91//51
f 91//51 90//51 92//51
f 91//52 92//52 93//52
f 93//52 92//52 94//52
f 93//53 94//53 95//53
f 95//53 94//53 96//53
f 95//54 96//54 97//54
f 97//54 96//54 98//54
f 71//5 73//5 9//5
f 9//5 73//5 99//5
f 9//5 99//5 12//5
f 75//5 97//5 73//5
f 73//5 97//5 100//5
f 73//5 100//5 101//5
f 75//5 77//5 97//5
f 97//5 77//5 79//5
f 97//5 79//5 81//5
f 81//5 83//5 97//5
f 97//5 83//5 95//5
f 95//5 83//5 93//5
f 93//5 83//5 91//5
f 91//5 83//5 89//5
f 89//5 83//5 87//5
f 87//5 83//5 85//5
f 101//5 102//5 73//5
f 73//5 102//5 103//5
f 73//5 103//5 104//5
f 104//5 105//5 73//5
f 73//5 105//5 106//5
f 73//5 106//5 107//5
f 107//5 108//5 73//5
f 73//5 108//5 109//5
f 73//5 109//5 110//5
f 110//5 111//5 73//5
f 73//5 111//5 99//5
f 112//55 99//55 113//55
f 113//56 99//56 111//56
f 113//57 111//57 114//57
f 114//9 111//9 110//9
f 114//10 110//10 115//10
f 115//58 110//58 109//58
f 115//59 109//59 116//59
f 116//60 109//60 108//60
f 116//61 108//61 117//61
f 117//62 108//62 107//62
f 117//63 107//63 118//63
f 118//63 107//63 106//63
f 118//64 106//64 119//64
f 119//64 106//64 105//64
f 119//65 105//65 120//65
f 120//65 105//65 104//65
f 120//66 104//66 121//66
f 121//67 104//67 103//67
f 121//68 103//68 122//68
f 122//69 103//69 102//69
f 122//70 102//70 123//70
f 123//71 102//71 101//71
f 123//72 101//72 124//72
f 124//73 101//73 100//73
f 124//74 100//74 98//74
f 98//75 100//75 97//75
f 96//3 84//3 98//3
f 98//3 84//3 82//3
f 98//3 82//3 80//3
f 96//3 94//3 84//3
f 84//3 94//3 92//3
f 84//3 92//3 90//3
f 90//3 88//3 84//3
f 84//3 88//3 86//3
f 80//3 78//3 98//3
f 98//3 78//3 76//3
f 98//3 76//3 74//3
f 72//3 1//3 74//3
f 74//3 1//3 112//3
f 74//3 112//3 113//3
f 1//3 3//3 112//3
f 113//3 114//3 74//3
f 74//3 114//3 115//3
f 74//3 115//3 116//3
f 116//3 117//3 74//3
f 74//3 117//3 118//3
f 74//3 118//3 119//3
f 119//3 120//3 74//3
f 74//3 120//3 121//3
f 74//3 121//3 122//3
f 122//3 123//3 74//3
f 74//3 123//3 124//3
f 74//3 124//3 98//3
f 71//2 9//2 72//2
f 72//2 9//2 1//2
f 112//4 3//4 99//4
f 99//4 3//4 12//4
usemtl mat1
f 1//1 2//1 3//1
# Vertices: 124, normals: 75, texture coordinates: 0, faces: 244

