# File generated by ImageToStl.com - Free Image and 3D model conversion tools

mtllib L_Middle_F_1.mtl

o obj1
v 50 3 50
v 49.4941597 3 49.97434616
v 55 3 50
v 50 3 40
v 55 3 40
v 48.99350739 3 49.89764786
v 49.4941597 3 40.02565384
v 48.99350739 3 40.10235214
v 48.50318527 3 49.77069473
v 48.50318527 3 40.22930527
v 48.02822113 3 49.5947876
v 48.02822113 3 40.4052124
v 47.57349014 3 49.37173462
v 47.57349014 3 40.62826538
v 47.1436615 3 49.10381699
v 47.1436615 3 40.89618301
v 46.74313736 3 48.79378891
v 46.74313736 3 41.20621109
v 46.3760376 3 41.55516434
v 46.3760376 3 48.44483566
v 46.0461235 3 41.93946838
v 46.0461235 3 48.06053162
v 45.75677872 3 42.35517883
v 45.75677872 3 47.64482117
v 45.5109787 3 42.79803085
v 45.5109787 3 47.20196915
v 45.31124115 3 43.26347351
v 45.31124115 3 46.73652649
v 45.15961456 3 43.74673843
v 45.15961456 3 46.25326157
v 45.05765915 3 44.2428627
v 45.05765915 3 45.7571373
v 45.00641632 3 44.74675369
v 45.00641632 3 45.25324631
v 50 7 50
v 49.4941597 7 49.97434616
v 48.99350739 7 49.89764786
v 48.50318527 7 49.77069473
v 48.02822113 7 49.5947876
v 47.57349014 7 49.37173462
v 47.1436615 7 49.10381699
v 46.74313736 7 48.79378891
v 46.3760376 7 48.44483566
v 46.0461235 7 48.06053162
v 45.75677872 7 47.64482117
v 45.5109787 7 47.20196915
v 45.31124115 7 46.73652649
v 45.15961456 7 46.25326157
v 45.05765915 7 45.7571373
v 45.00641632 7 45.25324631
v 45.00641632 7 44.74675369
v 45.05765915 7 44.2428627
v 45.15961456 7 43.74673843
v 45.31124115 7 43.26347351
v 45.5109787 7 42.79803085
v 45.75677872 7 42.35517883
v 46.0461235 7 41.93946838
v 46.3760376 7 41.55516434
v 46.74313736 7 41.20621109
v 47.1436615 7 40.89618301
v 47.57349014 7 40.62826538
v 48.02822113 7 40.4052124
v 48.50318527 7 40.22930527
v 48.99350739 7 40.10235214
v 49.4941597 7 40.02565384
v 50 7 40
v 55 7 40
v 75 7 40
v 75 3 40
v 55 10 40
v 80 10 40
v 80 7 40
v 80 3 40
v 80 -0 40
v 55 -0 40
v 80.50584412 10 49.97434616
v 81.00649261 10 49.89764786
v 80 10 50
v 81.49681854 10 49.77069473
v 81.97177887 10 49.5947876
v 82.42650604 10 49.37173462
v 82.8563385 10 49.10381699
v 83.25685883 10 48.79378891
v 83.6239624 10 48.44483566
v 83.95388031 10 48.06053162
v 84.2432251 10 47.64482117
v 84.4890213 10 47.20196915
v 84.68875885 10 46.73652649
v 55 10 50
v 84.84038544 10 46.25326157
v 84.94234467 10 45.7571373
v 84.99358368 10 45.25324631
v 84.99358368 10 44.74675369
v 84.94234467 10 44.2428627
v 84.84038544 10 43.74673843
v 84.68875885 10 43.26347351
v 84.4890213 10 42.79803085
v 84.2432251 10 42.35517883
v 83.95388031 10 41.93946838
v 83.6239624 10 41.55516434
v 83.25685883 10 41.20621109
v 82.8563385 10 40.89618301
v 82.42650604 10 40.62826538
v 81.97177887 10 40.4052124
v 81.49681854 10 40.22930527
v 81.00649261 10 40.10235214
v 80.50584412 10 40.02565384
v 80.50584412 7 40.02565384
v 81.00649261 7 40.10235214
v 81.49681854 7 40.22930527
v 81.97177887 7 40.4052124
v 82.42650604 7 40.62826538
v 82.8563385 7 40.89618301
v 83.25685883 7 41.20621109
v 83.6239624 7 41.55516434
v 83.95388031 7 41.93946838
v 84.2432251 7 42.35517883
v 84.4890213 7 42.79803085
v 84.68875885 7 43.26347351
v 84.84038544 7 43.74673843
v 84.94234467 7 44.2428627
v 84.99358368 7 44.74675369
v 84.99358368 7 45.25324631
v 84.94234467 7 45.7571373
v 84.84038544 7 46.25326157
v 84.68875885 7 46.73652649
v 84.4890213 7 47.20196915
v 84.2432251 7 47.64482117
v 83.95388031 7 48.06053162
v 83.6239624 7 48.44483566
v 83.25685883 7 48.79378891
v 82.8563385 7 49.10381699
v 82.42650604 7 49.37173462
v 81.97177887 7 49.5947876
v 81.49681854 7 49.77069473
v 81.00649261 7 49.89764786
v 80.50584412 7 49.97434616
v 80 7 50
v 80 3 50
v 80.50584412 3 49.97434616
v 75 3 50
v 81.00649261 3 49.89764786
v 80.50584412 3 40.02565384
v 81.00649261 3 40.10235214
v 81.49681854 3 49.77069473
v 81.49681854 3 40.22930527
v 81.97177887 3 49.5947876
v 81.97177887 3 40.4052124
v 82.42650604 3 49.37173462
v 82.42650604 3 40.62826538
v 82.8563385 3 49.10381699
v 82.8563385 3 40.89618301
v 83.25685883 3 48.79378891
v 83.25685883 3 41.20621109
v 83.6239624 3 41.55516434
v 83.6239624 3 48.44483566
v 83.95388031 3 41.93946838
v 83.95388031 3 48.06053162
v 84.2432251 3 42.35517883
v 84.2432251 3 47.64482117
v 84.4890213 3 42.79803085
v 84.4890213 3 47.20196915
v 84.68875885 3 43.26347351
v 84.68875885 3 46.73652649
v 84.84038544 3 43.74673843
v 84.84038544 3 46.25326157
v 84.94234467 3 44.2428627
v 84.94234467 3 45.7571373
v 84.99358368 3 44.74675369
v 84.99358368 3 45.25324631
v 80 0 50
v 80.50584412 0 49.97434616
v 81.00649261 0 49.89764786
v 81.49681854 0 49.77069473
v 81.97177887 0 49.5947876
v 82.42650604 0 49.37173462
v 82.8563385 0 49.10381699
v 83.25685883 0 48.79378891
v 83.6239624 0 48.44483566
v 83.95388031 0 48.06053162
v 84.2432251 0 47.64482117
v 84.4890213 0 47.20196915
v 84.68875885 0 46.73652649
v 84.84038544 0 46.25326157
v 84.94234467 0 45.7571373
v 84.99358368 0 45.25324631
v 84.99358368 0 44.74675369
v 84.94234467 0 44.2428627
v 84.84038544 0 43.74673843
v 84.68875885 0 43.26347351
v 84.4890213 0 42.79803085
v 84.2432251 0 42.35517883
v 83.95388031 0 41.93946838
v 83.6239624 0 41.55516434
v 83.25685883 0 41.20621109
v 82.8563385 0 40.89618301
v 82.42650604 0 40.62826538
v 81.97177887 0 40.4052124
v 81.49681854 0 40.22930527
v 81.00649261 0 40.10235214
v 80.50584412 0 40.02565384
v 55 0 50
v 75 7 50
v 55 7 50
vn 0 -1 0
vn 0 -1 0
vn 0 -1 0
vn -0 -1 0
vn -0 -1 0
vn 0 -1 0
vn -0 -1 0
vn 0 -1 0
vn -0 -1 0
vn 0 -1 0
vn -0 -1 0
vn 0 -1 0
vn -0 -1 0
vn 0 -1 0
vn -0 -1 0
vn 0 -1 0
vn 0 -1 0
vn -0 -1 0
vn 0 -1 0
vn -0 -1 0
vn 0 -1 0
vn -0 -1 0
vn 0 -1 0
vn -0 -1 0
vn 0 -1 0
vn -0 -1 0
vn 0 -1 0
vn -0 -1 0
vn 0 -1 0
vn -0 -1 0
vn -0 -1 0
vn 0 -1 0
vn -0.05065 0 0.99872
vn -0.15143 0 0.98847
vn -0.25065 0 0.96808
vn -0.34731 0 0.93775
vn -0.44039 0 0.8978
vn -0.52896 0 0.84864
vn -0.61211 0 0.79078
vn -0.68897 0 0.72479
vn -0.75876 0 0.65137
vn -0.82076 0 0.57127
vn -0.87435 0 0.4853
vn -0.87435 -0 0.4853
vn -0.91896 -0 0.39436
vn -0.91896 0 0.39436
vn -0.95414 0 0.29936
vn -0.97953 0 0.2013
vn -0.99487 0 0.10117
vn -1 0 -0
vn -0.99487 0 -0.10117
vn -0.97953 0 -0.2013
vn -0.95414 0 -0.29936
vn -0.91896 0 -0.39436
vn -0.91896 0 -0.39436
vn -0.87435 0 -0.4853
vn -0.87435 0 -0.4853
vn -0.82076 0 -0.57127
vn -0.75876 0 -0.65137
vn -0.68897 0 -0.72479
vn -0.61211 0 -0.79078
vn -0.52896 0 -0.84864
vn -0.44039 0 -0.8978
vn -0.34731 0 -0.93775
vn -0.25065 0 -0.96808
vn -0.15143 0 -0.98847
vn -0.05065 0 -0.99872
vn 0 0 -1
vn 0 1 0
vn 0 1 0
vn 0 1 0
vn 0 1 0
vn 0 1 0
vn 0 1 0
vn 0 1 0
vn 0 1 0
vn 0 1 0
vn 0 1 0
vn 0 1 0
vn 0 1 -0
vn 0 1 0
vn 0 1 0
vn 0 1 0
vn 0 1 0
vn 0 1 -0
vn 0 1 0
vn 0.05065 0 -0.99872
vn 0.15143 0 -0.98847
vn 0.25065 0 -0.96808
vn 0.34731 0 -0.93775
vn 0.44039 0 -0.8978
vn 0.52896 0 -0.84864
vn 0.61211 0 -0.79078
vn 0.68897 0 -0.72479
vn 0.75876 0 -0.65137
vn 0.82076 0 -0.57127
vn 0.87435 0 -0.4853
vn 0.87435 0 -0.4853
vn 0.91896 0 -0.39436
vn 0.91896 0 -0.39436
vn 0.95414 0 -0.29936
vn 0.97953 0 -0.2013
vn 0.99487 0 -0.10117
vn 1 0 0
vn 0.99487 -0 0.10117
vn 0.97953 -0 0.2013
vn 0.95414 -0 0.29936
vn 0.91896 -0 0.39436
vn 0.91896 -0 0.39436
vn 0.87435 -0 0.4853
vn 0.87435 -0 0.4853
vn 0.82076 -0 0.57127
vn 0.75876 -0 0.65137
vn 0.68897 -0 0.72479
vn 0.61211 -0 0.79078
vn 0.52896 -0 0.84864
vn 0.44039 -0 0.8978
vn 0.34731 -0 0.93775
vn 0.25065 -0 0.96808
vn 0.15143 -0 0.98847
vn 0.05065 -0 0.99872
vn 0 1 -0
vn 0 1 -0
vn 0 1 -0
vn -0 1 -0
vn -0 1 -0
vn 0 1 -0
vn -0 1 -0
vn 0 1 -0
vn -0 1 -0
vn 0 1 -0
vn -0 1 -0
vn 0 1 -0
vn -0 1 -0
vn 0 1 -0
vn -0 1 -0
vn 0 1 -0
vn 0 1 -0
vn -0 1 -0
vn 0 1 -0
vn -0 1 -0
vn 0 1 -0
vn -0 1 -0
vn 0 1 -0
vn -0 1 -0
vn 0 1 -0
vn -0 1 -0
vn 0 1 -0
vn -0 1 -0
vn 0 1 -0
vn -0 1 -0
vn -0 1 -0
vn 0 1 -0
vn 0.05065 0 0.99872
vn 0.15143 0 0.98847
vn 0.15143 -0 0.98847
vn 0.25065 -0 0.96808
vn 0.25065 -0 0.96808
vn 0.34731 -0 0.93775
vn 0.44039 0 0.8978
vn 0.52896 0 0.84864
vn 0.61211 0 0.79078
vn 0.87435 -0 0.4853
vn 0.99487 0 0.10117
vn 0.99487 -0 -0.10117
vn 0.87435 0 -0.4853
vn 0.61211 -0 -0.79078
vn 0.52896 -0 -0.84864
vn 0.44039 -0 -0.8978
vn 0.34731 0 -0.93775
vn 0.25065 0 -0.96808
vn 0.25065 0 -0.96808
vn 0.15143 0 -0.98847
vn 0.15143 -0 -0.98847
vn 0.05065 -0 -0.99872
vn 0 -1 -0
vn 0 -1 -0
vn 0 -1 -0
vn 0 -1 -0
vn 0 -1 -0
vn 0 -1 -0
vn 0 -1 -0
vn 0 -1 -0
vn 0 -1 -0
vn 0 -1 -0
vn 0 -1 -0
vn 0 -1 0
vn 0 -1 0
vn 0 -1 0
vn 0 -1 0
vn 0 -1 0
vn 0 -1 0
vn 0 -1 0
vn 0 -1 0
vn 0 -1 0
vn 0 -1 -0
vn 0 -1 0
vn 0 -1 0
vn 0 -1 0
vn 0 -1 0
vn 0 -1 0
vn 0 -1 0
vn 0 -1 0
vn 0 -1 0
vn 0 -1 0
vn 0 -1 0
vn 0 -1 0
vn 0 -1 -0
vn 0 -1 0
vn 0 -1 0
vn 0 -1 -0
vn -1 -0 0
vn -1 -0 0
vn 0 1 -0
vn 0 1 -0
vn 0 1 -0
vn -1 0 -0
vn -1 0 -0
vn 0 0 1
usemtl mat2
f 3//2 2//2 4//2
f 3//3 4//3 5//3
f 2//4 6//4 4//4
f 4//5 6//5 7//5
f 7//6 6//6 8//6
f 8//7 6//7 9//7
f 8//8 9//8 10//8
f 10//9 9//9 11//9
f 10//10 11//10 12//10
f 12//11 11//11 13//11
f 12//12 13//12 14//12
f 14//13 13//13 15//13
f 14//14 15//14 16//14
f 16//15 15//15 17//15
f 16//16 17//16 18//16
f 18//17 17//17 19//17
f 19//18 17//18 20//18
f 19//19 20//19 21//19
f 21//20 20//20 22//20
f 21//21 22//21 23//21
f 23//22 22//22 24//22
f 23//23 24//23 25//23
f 25//24 24//24 26//24
f 25//25 26//25 27//25
f 27//26 26//26 28//26
f 27//27 28//27 29//27
f 29//28 28//28 30//28
f 29//29 30//29 31//29
f 31//30 30//30 32//30
f 31//31 32//31 33//31
f 33//32 32//32 34//32
f 1//33 35//33 2//33
f 2//33 35//33 36//33
f 2//34 36//34 6//34
f 6//34 36//34 37//34
f 6//35 37//35 9//35
f 9//35 37//35 38//35
f 9//36 38//36 11//36
f 11//36 38//36 39//36
f 11//37 39//37 13//37
f 13//37 39//37 40//37
f 13//38 40//38 15//38
f 15//38 40//38 41//38
f 15//39 41//39 17//39
f 17//39 41//39 42//39
f 17//40 42//40 20//40
f 20//40 42//40 43//40
f 20//41 43//41 22//41
f 22//41 43//41 44//41
f 22//42 44//42 24//42
f 24//42 44//42 45//42
f 24//43 45//43 26//43
f 26//44 45//44 46//44
f 26//45 46//45 28//45
f 28//46 46//46 47//46
f 28//47 47//47 30//47
f 30//47 47//47 48//47
f 30//48 48//48 32//48
f 32//48 48//48 49//48
f 32//49 49//49 34//49
f 34//49 49//49 50//49
f 34//50 50//50 33//50
f 33//50 50//50 51//50
f 33//51 51//51 31//51
f 31//51 51//51 52//51
f 31//52 52//52 29//52
f 29//52 52//52 53//52
f 29//53 53//53 27//53
f 27//53 53//53 54//53
f 27//54 54//54 25//54
f 25//55 54//55 55//55
f 25//56 55//56 23//56
f 23//57 55//57 56//57
f 23//58 56//58 21//58
f 21//58 56//58 57//58
f 21//59 57//59 19//59
f 19//59 57//59 58//59
f 19//60 58//60 18//60
f 18//60 58//60 59//60
f 18//61 59//61 16//61
f 16//61 59//61 60//61
f 16//62 60//62 14//62
f 14//62 60//62 61//62
f 14//63 61//63 12//63
f 12//63 61//63 62//63
f 12//64 62//64 10//64
f 10//64 62//64 63//64
f 10//65 63//65 8//65
f 8//65 63//65 64//65
f 8//66 64//66 7//66
f 7//66 64//66 65//66
f 7//67 65//67 4//67
f 4//67 65//67 66//67
f 66//68 67//68 4//68
f 4//68 67//68 5//68
f 5//68 67//68 68//68
f 5//68 68//68 69//68
f 67//68 70//68 68//68
f 68//68 70//68 71//68
f 68//68 71//68 72//68
f 73//68 74//68 69//68
f 69//68 74//68 75//68
f 69//68 75//68 5//68
f 76//69 77//69 78//69
f 78//70 77//70 79//70
f 78//71 79//71 80//71
f 80//72 81//72 78//72
f 78//73 81//73 82//73
f 78//74 82//74 83//74
f 83//75 84//75 78//75
f 78//76 84//76 85//76
f 78//77 85//77 86//77
f 86//78 87//78 78//78
f 78//79 87//79 88//79
f 78//80 88//80 89//80
f 89//81 88//81 90//81
f 89//82 90//82 91//82
f 91//83 92//83 89//83
f 89//84 92//84 93//84
f 89//85 93//85 70//85
f 70//86 93//86 94//86
f 70//86 94//86 95//86
f 95//86 96//86 70//86
f 70//86 96//86 71//86
f 71//86 96//86 97//86
f 71//86 97//86 98//86
f 98//86 99//86 71//86
f 71//86 99//86 100//86
f 71//86 100//86 101//86
f 101//86 102//86 71//86
f 71//86 102//86 103//86
f 71//86 103//86 104//86
f 104//86 105//86 71//86
f 71//86 105//86 106//86
f 71//86 106//86 107//86
f 72//87 71//87 108//87
f 108//87 71//87 107//87
f 108//88 107//88 109//88
f 109//88 107//88 106//88
f 109//89 106//89 110//89
f 110//89 106//89 105//89
f 110//90 105//90 111//90
f 111//90 105//90 104//90
f 111//91 104//91 112//91
f 112//91 104//91 103//91
f 112//92 103//92 113//92
f 113//92 103//92 102//92
f 113//93 102//93 114//93
f 114//93 102//93 101//93
f 114//94 101//94 115//94
f 115//94 101//94 100//94
f 115//95 100//95 116//95
f 116//95 100//95 99//95
f 116//96 99//96 117//96
f 117//96 99//96 98//96
f 117//97 98//97 118//97
f 118//98 98//98 97//98
f 118//99 97//99 119//99
f 119//100 97//100 96//100
f 119//101 96//101 120//101
f 120//101 96//101 95//101
f 120//102 95//102 121//102
f 121//102 95//102 94//102
f 121//103 94//103 122//103
f 122//103 94//103 93//103
f 122//104 93//104 123//104
f 123//104 93//104 92//104
f 123//105 92//105 124//105
f 124//105 92//105 91//105
f 124//106 91//106 125//106
f 125//106 91//106 90//106
f 125//107 90//107 126//107
f 126//107 90//107 88//107
f 126//108 88//108 127//108
f 127//109 88//109 87//109
f 127//110 87//110 128//110
f 128//111 87//111 86//111
f 128//112 86//112 129//112
f 129//112 86//112 85//112
f 129//113 85//113 130//113
f 130//113 85//113 84//113
f 130//114 84//114 131//114
f 131//114 84//114 83//114
f 131//115 83//115 132//115
f 132//115 83//115 82//115
f 132//116 82//116 133//116
f 133//116 82//116 81//116
f 133//117 81//117 134//117
f 134//117 81//117 80//117
f 134//118 80//118 135//118
f 135//118 80//118 79//118
f 135//119 79//119 136//119
f 136//119 79//119 77//119
f 136//120 77//120 137//120
f 137//120 77//120 76//120
f 137//121 76//121 138//121
f 138//121 76//121 78//121
f 139//122 140//122 141//122
f 141//123 140//123 73//123
f 141//124 73//124 69//124
f 140//125 142//125 73//125
f 73//126 142//126 143//126
f 143//127 142//127 144//127
f 144//128 142//128 145//128
f 144//129 145//129 146//129
f 146//130 145//130 147//130
f 146//131 147//131 148//131
f 148//132 147//132 149//132
f 148//133 149//133 150//133
f 150//134 149//134 151//134
f 150//135 151//135 152//135
f 152//136 151//136 153//136
f 152//137 153//137 154//137
f 154//138 153//138 155//138
f 155//139 153//139 156//139
f 155//140 156//140 157//140
f 157//141 156//141 158//141
f 157//142 158//142 159//142
f 159//143 158//143 160//143
f 159//144 160//144 161//144
f 161//145 160//145 162//145
f 161//146 162//146 163//146
f 163//147 162//147 164//147
f 163//148 164//148 165//148
f 165//149 164//149 166//149
f 165//150 166//150 167//150
f 167//151 166//151 168//151
f 167//152 168//152 169//152
f 169//153 168//153 170//153
f 139//121 171//121 140//121
f 140//154 171//154 172//154
f 140//155 172//155 142//155
f 142//156 172//156 173//156
f 142//157 173//157 145//157
f 145//158 173//158 174//158
f 145//159 174//159 147//159
f 147//118 174//118 175//118
f 147//117 175//117 149//117
f 149//160 175//160 176//160
f 149//161 176//161 151//161
f 151//161 176//161 177//161
f 151//162 177//162 153//162
f 153//115 177//115 178//115
f 153//114 178//114 156//114
f 156//114 178//114 179//114
f 156//113 179//113 158//113
f 158//113 179//113 180//113
f 158//112 180//112 160//112
f 160//112 180//112 181//112
f 160//111 181//111 162//111
f 162//163 181//163 182//163
f 162//109 182//109 164//109
f 164//108 182//108 183//108
f 164//107 183//107 166//107
f 166//107 183//107 184//107
f 166//106 184//106 168//106
f 168//106 184//106 185//106
f 168//105 185//105 170//105
f 170//164 185//164 186//164
f 170//104 186//104 169//104
f 169//104 186//104 187//104
f 169//165 187//165 167//165
f 167//103 187//103 188//103
f 167//102 188//102 165//102
f 165//102 188//102 189//102
f 165//101 189//101 163//101
f 163//101 189//101 190//101
f 163//100 190//100 161//100
f 161//99 190//99 191//99
f 161//166 191//166 159//166
f 159//97 191//97 192//97
f 159//96 192//96 157//96
f 157//96 192//96 193//96
f 157//95 193//95 155//95
f 155//95 193//95 194//95
f 155//94 194//94 154//94
f 154//94 194//94 195//94
f 154//93 195//93 152//93
f 152//167 195//167 196//167
f 152//168 196//168 150//168
f 150//168 196//168 197//168
f 150//169 197//169 148//169
f 148//91 197//91 198//91
f 148//90 198//90 146//90
f 146//170 198//170 199//170
f 146//171 199//171 144//171
f 144//172 199//172 200//172
f 144//173 200//173 143//173
f 143//174 200//174 201//174
f 143//175 201//175 73//175
f 73//87 201//87 74//87
f 201//176 200//176 74//176
f 74//177 200//177 199//177
f 74//178 199//178 198//178
f 198//179 197//179 74//179
f 74//180 197//180 196//180
f 74//181 196//181 195//181
f 195//182 194//182 74//182
f 74//183 194//183 193//183
f 74//184 193//184 192//184
f 192//185 191//185 74//185
f 74//186 191//186 190//186
f 74//187 190//187 75//187
f 75//188 190//188 189//188
f 75//189 189//189 188//189
f 188//190 187//190 75//190
f 75//191 187//191 202//191
f 202//192 187//192 186//192
f 202//193 186//193 185//193
f 185//194 184//194 202//194
f 202//195 184//195 183//195
f 202//196 183//196 171//196
f 171//197 183//197 182//197
f 171//198 182//198 181//198
f 181//199 180//199 171//199
f 171//200 180//200 179//200
f 171//201 179//201 178//201
f 178//202 177//202 171//202
f 171//203 177//203 176//203
f 171//204 176//204 175//204
f 175//205 174//205 171//205
f 171//206 174//206 173//206
f 171//207 173//207 172//207
f 203//104 141//104 68//104
f 68//104 141//104 69//104
f 108//208 137//208 72//208
f 72//209 137//209 203//209
f 72//210 203//210 68//210
f 137//211 108//211 136//211
f 136//211 108//211 109//211
f 136//211 109//211 135//211
f 135//211 109//211 110//211
f 135//211 110//211 134//211
f 134//211 110//211 111//211
f 134//211 111//211 133//211
f 133//211 111//211 112//211
f 133//211 112//211 132//211
f 132//211 112//211 113//211
f 132//211 113//211 131//211
f 131//211 113//211 114//211
f 131//211 114//211 115//211
f 131//211 115//211 130//211
f 130//211 115//211 116//211
f 130//211 116//211 129//211
f 129//211 116//211 117//211
f 129//211 117//211 128//211
f 128//211 117//211 118//211
f 128//211 118//211 127//211
f 127//211 118//211 119//211
f 127//211 119//211 126//211
f 126//211 119//211 120//211
f 126//211 120//211 125//211
f 125//211 120//211 121//211
f 125//211 121//211 124//211
f 124//211 121//211 122//211
f 124//211 122//211 123//211
f 137//211 138//211 203//211
f 204//212 89//212 67//212
f 67//213 89//213 70//213
f 65//214 36//214 66//214
f 66//215 36//215 204//215
f 66//216 204//216 67//216
f 36//86 65//86 37//86
f 37//86 65//86 64//86
f 37//86 64//86 38//86
f 38//86 64//86 63//86
f 38//86 63//86 39//86
f 39//86 63//86 62//86
f 39//86 62//86 40//86
f 40//86 62//86 61//86
f 40//86 61//86 41//86
f 41//86 61//86 60//86
f 41//86 60//86 42//86
f 42//86 60//86 59//86
f 42//86 59//86 58//86
f 42//86 58//86 43//86
f 43//86 58//86 57//86
f 43//86 57//86 44//86
f 44//86 57//86 56//86
f 44//86 56//86 45//86
f 45//86 56//86 55//86
f 45//86 55//86 46//86
f 46//86 55//86 54//86
f 46//86 54//86 47//86
f 47//86 54//86 53//86
f 47//86 53//86 48//86
f 48//86 53//86 52//86
f 48//86 52//86 49//86
f 49//86 52//86 51//86
f 49//86 51//86 50//86
f 36//86 35//86 204//86
f 202//217 3//217 75//217
f 75//218 3//218 5//218
f 1//219 3//219 35//219
f 35//219 3//219 204//219
f 204//219 3//219 141//219
f 204//219 141//219 203//219
f 3//219 202//219 141//219
f 141//219 202//219 171//219
f 141//219 171//219 139//219
f 138//219 78//219 203//219
f 203//219 78//219 89//219
f 203//219 89//219 204//219
usemtl mat1
f 1//1 2//1 3//1
# Vertices: 204, normals: 219, texture coordinates: 0, faces: 404

