# File generated by ImageToStl.com - Free Image and 3D model conversion tools

mtllib base_link.mtl

o obj1
v -15 10 7
v -15 10 43
v -15 0 7
v -15 -1.5E-07 43
v -15 -5 -5
v -15 -5 55
v -15 -1.5E-07 47
v -15 10 47
v -15 10 3
v -15 15 -5
v -15 15 55
v -15 0 3
v -25 15 55
v -25 15 -5
v -25 -5 55
v -25 -5 -5
v -10 -1.5E-07 47
v -10 -1.5E-07 43
v -9.39731693 0.03645548 47
v -9.39731693 0.03645548 43
v -8.80342197 0.14529076 47
v -8.80342197 0.14529076 43
v -8.22697544 0.32491866 47
v -8.22697544 0.32491866 43
v -7.67638397 0.57271975 47
v -7.67638397 0.57271975 43
v -7.15967607 0.88508058 47
v -7.15967607 0.88508058 43
v -6.68438673 1.25744617 47
v -6.68438673 1.25744617 43
v -6.25744629 1.68438661 47
v -6.25744629 1.68438661 43
v -5.88508081 2.15967607 47
v -5.88508081 2.15967607 43
v -5.57272005 2.67638397 47
v -5.57272005 2.67638397 43
v -5.32491875 3.22697544 47
v -5.32491875 3.22697544 43
v -5.14529085 3.80342174 47
v -5.14529085 3.80342174 43
v -5.03645563 4.39731646 47
v -5.03645563 4.39731646 43
v -5 5 47
v -5 5 43
v -10 10 47
v -5.03645563 5.60268354 47
v -5.14529085 6.1965785 47
v -5.32491875 6.77302456 47
v -5.57272005 7.32361603 47
v -5.88508081 7.84032393 47
v -6.25744629 8.31561375 47
v -6.68438673 8.74255371 47
v -7.15967655 9.11491966 47
v -7.67638445 9.42728043 47
v -8.22697544 9.67508125 47
v -8.80342197 9.85470867 47
v -9.39731693 9.96354485 47
v -10 10 43
v -9.39731693 9.96354485 43
v -8.80342197 9.85470867 43
v -8.22697544 9.67508125 43
v -7.67638445 9.42728043 43
v -7.15967655 9.11491966 43
v -6.68438673 8.74255371 43
v -6.25744629 8.31561375 43
v -5.88508081 7.84032393 43
v -5.57272005 7.32361603 43
v -5.32491875 6.77302456 43
v -5.14529085 6.1965785 43
v -5.03645563 5.60268354 43
v -10 10 3
v -10 10 7
v -9.39731693 9.96354485 3
v -9.39731693 9.96354485 7
v -8.80342197 9.85470963 3
v -8.80342197 9.85470963 7
v -8.22697544 9.67508125 3
v -8.22697544 9.67508125 7
v -7.67638397 9.42728043 3
v -7.67638397 9.42728043 7
v -7.15967607 9.11491966 3
v -7.15967607 9.11491966 7
v -6.68438673 8.74255371 3
v -6.68438673 8.74255371 7
v -6.25744629 8.31561375 3
v -6.25744629 8.31561375 7
v -5.88508081 7.84032393 3
v -5.88508081 7.84032393 7
v -5.57272005 7.32361603 3
v -5.57272005 7.32361603 7
v -5.32491875 6.77302456 3
v -5.32491875 6.77302456 7
v -5.14529085 6.1965785 3
v -5.14529085 6.1965785 7
v -5.03645563 5.60268354 3
v -5.03645563 5.60268354 7
v -5 5 3
v -5 5 7
v -10 0 3
v -5.03645563 4.39731646 3
v -5.14529085 3.80342174 3
v -5.32491875 3.22697568 3
v -5.57272005 2.67638421 3
v -5.88508081 2.15967631 3
v -6.25744629 1.68438673 3
v -6.68438673 1.25744629 3
v -7.15967655 0.8850807 3
v -7.67638445 0.57271987 3
v -8.22697544 0.32491878 3
v -8.80342197 0.14529091 3
v -9.39731693 0.03645563 3
v -10 0 7
v -9.39731693 0.03645563 7
v -8.80342197 0.14529091 7
v -8.22697544 0.32491878 7
v -7.67638445 0.57271987 7
v -7.15967655 0.8850807 7
v -6.68438673 1.25744629 7
v -6.25744629 1.68438673 7
v -5.88508081 2.15967631 7
v -5.57272005 2.67638421 7
v -5.32491875 3.22697568 7
v -5.14529085 3.80342174 7
v -5.03645563 4.39731646 7
vn 1 0 0
vn 0 1 0
vn 0 -0 1
vn 0 -1 0
vn -0 -0 -1
vn -1 0 0
vn 0.06038 -0.99818 -0
vn 0.06038 -0.99818 0
vn 0.18026 -0.98362 0
vn 0.2975 -0.95472 0
vn 0.41041 -0.9119 0
vn 0.41041 -0.9119 0
vn 0.51734 -0.85578 0
vn 0.51734 -0.85578 0
vn 0.61672 -0.78718 0
vn 0.70711 -0.70711 0
vn 0.78718 -0.61672 0
vn 0.78718 -0.61672 0
vn 0.85578 -0.51734 0
vn 0.85578 -0.51734 0
vn 0.9119 -0.41041 0
vn 0.9119 -0.41041 0
vn 0.95472 -0.2975 0
vn 0.95472 -0.2975 0
vn 0.98362 -0.18026 0
vn 0.98362 -0.18026 0
vn 0.99818 -0.06038 0
vn 0.99818 -0.06038 0
vn 0.06038 0.99818 -0
vn 0.06038 0.99818 -0
vn 0.18026 0.98362 -0
vn 0.2975 0.95472 -0
vn 0.2975 0.95472 -0
vn 0.41041 0.9119 -0
vn 0.41041 0.9119 -0
vn 0.51734 0.85578 -0
vn 0.51734 0.85578 -0
vn 0.61672 0.78718 -0
vn 0.61672 0.78718 -0
vn 0.70711 0.70711 -0
vn 0.70711 0.70711 -0
vn 0.78718 0.61672 -0
vn 0.85578 0.51734 -0
vn 0.85578 0.51734 -0
vn 0.9119 0.41041 -0
vn 0.9119 0.41041 -0
vn 0.95472 0.2975 -0
vn 0.95472 0.2975 -0
vn 0.98362 0.18026 -0
vn 0.99818 0.06038 -0
vn 0.99818 0.06038 -0
vn -0 -1 -0
vn 0.06038 0.99818 -0
vn 0.18026 0.98362 -0
vn 0.2975 0.95472 -0
vn 0.41041 0.9119 -0
vn 0.9119 0.41041 -0
vn 0.95472 0.2975 -0
vn 0.98362 0.18026 -0
vn 0.99818 0.06038 -0
vn 0.06038 -0.99818 0
vn 0.06038 -0.99818 0
vn 0.18026 -0.98362 0
vn 0.18026 -0.98362 0
vn 0.2975 -0.95472 0
vn 0.2975 -0.95472 -0
vn 0.41041 -0.9119 -0
vn 0.41041 -0.9119 -0
vn 0.51734 -0.85578 -0
vn 0.51734 -0.85578 0
vn 0.61672 -0.78718 0
vn 0.70711 -0.70711 0
vn 0.78718 -0.61672 0
vn 0.85578 -0.51734 0
vn 0.85578 -0.51734 -0
vn 0.9119 -0.41041 -0
vn 0.9119 -0.41041 -0
vn 0.95472 -0.2975 -0
vn 0.95472 -0.2975 0
vn 0.98362 -0.18026 0
vn 0.98362 -0.18026 0
vn 0.99818 -0.06038 0
vn 0.99818 -0.06038 0
usemtl mat2
f 3//1 2//1 4//1
f 3//1 4//1 5//1
f 5//1 4//1 6//1
f 6//1 4//1 7//1
f 6//1 7//1 8//1
f 9//1 10//1 1//1
f 1//1 10//1 11//1
f 1//1 11//1 2//1
f 2//1 11//1 8//1
f 8//1 11//1 6//1
f 9//1 12//1 10//1
f 10//1 12//1 5//1
f 5//1 12//1 3//1
f 11//2 10//2 13//2
f 13//2 10//2 14//2
f 6//3 11//3 15//3
f 15//3 11//3 13//3
f 5//4 6//4 16//4
f 16//4 6//4 15//4
f 10//5 5//5 14//5
f 14//5 5//5 16//5
f 16//6 15//6 14//6
f 14//6 15//6 13//6
f 17//7 18//7 19//7
f 19//8 18//8 20//8
f 19//9 20//9 21//9
f 21//9 20//9 22//9
f 21//10 22//10 23//10
f 23//10 22//10 24//10
f 23//11 24//11 25//11
f 25//12 24//12 26//12
f 25//13 26//13 27//13
f 27//14 26//14 28//14
f 27//15 28//15 29//15
f 29//15 28//15 30//15
f 29//16 30//16 31//16
f 31//16 30//16 32//16
f 31//17 32//17 33//17
f 33//18 32//18 34//18
f 33//19 34//19 35//19
f 35//20 34//20 36//20
f 35//21 36//21 37//21
f 37//22 36//22 38//22
f 37//23 38//23 39//23
f 39//24 38//24 40//24
f 39//25 40//25 41//25
f 41//26 40//26 42//26
f 41//27 42//27 43//27
f 43//28 42//28 44//28
f 17//3 19//3 7//3
f 7//3 19//3 45//3
f 7//3 45//3 8//3
f 21//3 43//3 19//3
f 19//3 43//3 46//3
f 19//3 46//3 47//3
f 21//3 23//3 43//3
f 43//3 23//3 25//3
f 43//3 25//3 27//3
f 27//3 29//3 43//3
f 43//3 29//3 41//3
f 41//3 29//3 39//3
f 39//3 29//3 37//3
f 37//3 29//3 35//3
f 35//3 29//3 33//3
f 33//3 29//3 31//3
f 47//3 48//3 19//3
f 19//3 48//3 49//3
f 19//3 49//3 50//3
f 50//3 51//3 19//3
f 19//3 51//3 52//3
f 19//3 52//3 53//3
f 53//3 54//3 19//3
f 19//3 54//3 55//3
f 19//3 55//3 56//3
f 56//3 57//3 19//3
f 19//3 57//3 45//3
f 58//29 45//29 59//29
f 59//30 45//30 57//30
f 59//31 57//31 60//31
f 60//31 57//31 56//31
f 60//32 56//32 61//32
f 61//33 56//33 55//33
f 61//34 55//34 62//34
f 62//35 55//35 54//35
f 62//36 54//36 63//36
f 63//37 54//37 53//37
f 63//38 53//38 64//38
f 64//39 53//39 52//39
f 64//40 52//40 65//40
f 65//41 52//41 51//41
f 65//42 51//42 66//42
f 66//42 51//42 50//42
f 66//43 50//43 67//43
f 67//44 50//44 49//44
f 67//45 49//45 68//45
f 68//46 49//46 48//46
f 68//47 48//47 69//47
f 69//48 48//48 47//48
f 69//49 47//49 70//49
f 70//49 47//49 46//49
f 70//50 46//50 44//50
f 44//51 46//51 43//51
f 42//5 30//5 44//5
f 44//5 30//5 28//5
f 44//5 28//5 26//5
f 42//5 40//5 30//5
f 30//5 40//5 38//5
f 30//5 38//5 36//5
f 36//5 34//5 30//5
f 30//5 34//5 32//5
f 26//5 24//5 44//5
f 44//5 24//5 22//5
f 44//5 22//5 20//5
f 18//5 4//5 20//5
f 20//5 4//5 58//5
f 20//5 58//5 59//5
f 4//5 2//5 58//5
f 59//5 60//5 20//5
f 20//5 60//5 61//5
f 20//5 61//5 62//5
f 62//5 63//5 20//5
f 20//5 63//5 64//5
f 20//5 64//5 65//5
f 65//5 66//5 20//5
f 20//5 66//5 67//5
f 20//5 67//5 68//5
f 68//5 69//5 20//5
f 20//5 69//5 70//5
f 20//5 70//5 44//5
f 17//52 7//52 18//52
f 18//52 7//52 4//52
f 58//2 2//2 45//2
f 45//2 2//2 8//2
f 71//53 72//53 73//53
f 73//53 72//53 74//53
f 73//54 74//54 75//54
f 75//54 74//54 76//54
f 75//55 76//55 77//55
f 77//55 76//55 78//55
f 77//56 78//56 79//56
f 79//56 78//56 80//56
f 79//37 80//37 81//37
f 81//37 80//37 82//37
f 81//38 82//38 83//38
f 83//38 82//38 84//38
f 83//41 84//41 85//41
f 85//41 84//41 86//41
f 85//42 86//42 87//42
f 87//42 86//42 88//42
f 87//43 88//43 89//43
f 89//43 88//43 90//43
f 89//57 90//57 91//57
f 91//57 90//57 92//57
f 91//58 92//58 93//58
f 93//58 92//58 94//58
f 93//59 94//59 95//59
f 95//59 94//59 96//59
f 95//60 96//60 97//60
f 97//60 96//60 98//60
f 71//5 73//5 9//5
f 9//5 73//5 99//5
f 9//5 99//5 12//5
f 75//5 97//5 73//5
f 73//5 97//5 100//5
f 73//5 100//5 101//5
f 75//5 77//5 97//5
f 97//5 77//5 79//5
f 97//5 79//5 81//5
f 81//5 83//5 97//5
f 97//5 83//5 95//5
f 95//5 83//5 93//5
f 93//5 83//5 91//5
f 91//5 83//5 89//5
f 89//5 83//5 87//5
f 87//5 83//5 85//5
f 101//5 102//5 73//5
f 73//5 102//5 103//5
f 73//5 103//5 104//5
f 104//5 105//5 73//5
f 73//5 105//5 106//5
f 73//5 106//5 107//5
f 107//5 108//5 73//5
f 73//5 108//5 109//5
f 73//5 109//5 110//5
f 110//5 111//5 73//5
f 73//5 111//5 99//5
f 112//61 99//61 113//61
f 113//62 99//62 111//62
f 113//63 111//63 114//63
f 114//64 111//64 110//64
f 114//65 110//65 115//65
f 115//66 110//66 109//66
f 115//67 109//67 116//67
f 116//68 109//68 108//68
f 116//69 108//69 117//69
f 117//70 108//70 107//70
f 117//71 107//71 118//71
f 118//71 107//71 106//71
f 118//72 106//72 119//72
f 119//72 106//72 105//72
f 119//73 105//73 120//73
f 120//73 105//73 104//73
f 120//74 104//74 121//74
f 121//75 104//75 103//75
f 121//76 103//76 122//76
f 122//77 103//77 102//77
f 122//78 102//78 123//78
f 123//79 102//79 101//79
f 123//80 101//80 124//80
f 124//81 101//81 100//81
f 124//82 100//82 98//82
f 98//83 100//83 97//83
f 96//3 84//3 98//3
f 98//3 84//3 82//3
f 98//3 82//3 80//3
f 96//3 94//3 84//3
f 84//3 94//3 92//3
f 84//3 92//3 90//3
f 90//3 88//3 84//3
f 84//3 88//3 86//3
f 80//3 78//3 98//3
f 98//3 78//3 76//3
f 98//3 76//3 74//3
f 72//3 1//3 74//3
f 74//3 1//3 112//3
f 74//3 112//3 113//3
f 1//3 3//3 112//3
f 113//3 114//3 74//3
f 74//3 114//3 115//3
f 74//3 115//3 116//3
f 116//3 117//3 74//3
f 74//3 117//3 118//3
f 74//3 118//3 119//3
f 119//3 120//3 74//3
f 74//3 120//3 121//3
f 74//3 121//3 122//3
f 122//3 123//3 74//3
f 74//3 123//3 124//3
f 74//3 124//3 98//3
f 71//2 9//2 72//2
f 72//2 9//2 1//2
f 112//4 3//4 99//4
f 99//4 3//4 12//4
usemtl mat1
f 1//1 2//1 3//1
# Vertices: 124, normals: 83, texture coordinates: 0, faces: 244

