# File generated by ImageToStl.com - Free Image and 3D model conversion tools

mtllib L_Base_1.mtl

o obj1
v -5 3 50
v 7E-08 3 50
v -5 3 47
v 0.39229554 3 49.98458862
v 0.78217238 3 49.93844223
v 1.16722691 3 49.86185074
v 1.54508507 3 49.75528336
v 1.91341722 3 49.61939621
v 2.26995254 3 49.45503235
v 2.6124928 3 49.26320267
v 2.93892622 3 49.04508591
v 3.2472403 3 48.80202866
v 3.53553391 3 48.53553391
v 3.80202985 3 48.24724197
v 4.04508495 3 47.9389267
v 4.26320076 3 47.61249161
v 4.45503283 3 47.26995087
v 4.61939764 3 46.91341782
v 4.75528288 3 46.54508591
v 4.86184978 3 46.1672287
v 4.93844175 3 45.78217316
v 4.98458672 3 45.39229584
v 5 3 45
v 4.98458672 3 44.60770416
v 4.93844175 3 44.21782684
v 4.86184978 3 43.83277512
v 4.75528288 3 43.45491409
v 4.61939764 3 43.08658218
v 4.45503283 3 42.73004913
v 4.26320076 3 42.38750839
v 4.04508495 3 42.0610733
v 3.80202985 3 41.75276184
v 3.53553391 3 41.46446609
v 3.2472403 3 41.19797134
v 2.93892622 3 40.95491409
v 2.6124928 3 40.73680115
v 2.26995254 3 40.54496765
v 1.91341722 3 40.38060379
v 1.54508507 3 40.24471664
v 1.16722691 3 40.13814926
v 0.78217238 3 40.06155777
v 0.39229554 3 40.01541519
v 7E-08 3 40
v -5 3 43
v -5 3 40
v 7E-08 -1.5E-07 50
v 0.39229554 -1.5E-07 49.98458862
v 0.78217238 -1.5E-07 49.93844223
v 1.16722691 -1.5E-07 49.86185074
v 1.54508507 -1.5E-07 49.75528336
v 1.91341722 -1.5E-07 49.61939621
v 2.26995254 -1.5E-07 49.45503235
v 2.6124928 -1.5E-07 49.26320267
v 2.93892622 -1.5E-07 49.04508591
v 3.2472403 -1.5E-07 48.80202866
v 3.53553391 -1.5E-07 48.53553391
v 3.80202985 -1.5E-07 48.24724197
v 4.04508495 -1.5E-07 47.9389267
v 4.26320076 -1.5E-07 47.61249161
v 4.45503283 -1.5E-07 47.26995087
v 4.61939764 -1.5E-07 46.91341782
v 4.75528288 -1.5E-07 46.54508591
v 4.86184978 -1.5E-07 46.1672287
v 4.93844175 -1.5E-07 45.78217316
v 4.98458672 -1.5E-07 45.39229584
v 5 -1.5E-07 45
v 4.98458672 -1.5E-07 44.60770416
v 4.93844175 -1.5E-07 44.21782684
v 4.86184978 -1.5E-07 43.83277512
v 4.75528288 -1.5E-07 43.45491409
v 4.61939764 -1.5E-07 43.08658218
v 4.45503283 -1.5E-07 42.73004913
v 4.26320076 -1.5E-07 42.38750839
v 4.04508495 -1.5E-07 42.0610733
v 3.80202985 -1.5E-07 41.75276184
v 3.53553391 -1.5E-07 41.46446609
v 3.2472403 -1.5E-07 41.19797134
v 2.93892622 -1.5E-07 40.95491409
v 2.6124928 -1.5E-07 40.73680115
v 2.26995254 -1.5E-07 40.54496765
v 1.91341722 -1.5E-07 40.38060379
v 1.54508507 -1.5E-07 40.24471664
v 1.16722691 -1.5E-07 40.13814926
v 0.78217238 -1.5E-07 40.06155777
v 0.39229554 -1.5E-07 40.01541519
v 7E-08 -1.5E-07 40
v -15 -1.5E-07 40
v -15 10 40
v -5 7 40
v 7E-08 10 40
v 7E-08 7 40
v 0.39229554 10 49.98458862
v 0.78217238 10 49.93844223
v 7E-08 10 50
v 1.16722691 10 49.86185074
v 1.54508507 10 49.75528336
v 1.91341722 10 49.61939621
v 2.26995254 10 49.45503235
v 2.6124928 10 49.26320267
v 2.93892622 10 49.04508591
v -5 10 47
v -15 10 50
v -15 10 47
v 3.2472403 10 48.80202866
v 3.53553391 10 48.53553391
v 3.80202985 10 48.24724197
v 4.04508495 10 47.9389267
v 4.26320076 10 47.61249161
v 4.45503283 10 47.26995087
v 4.61939764 10 46.91341782
v 4.75528288 10 46.54508591
v 4.86184978 10 46.1672287
v 4.93844175 10 45.78217316
v 4.98458672 10 45.39229584
v 5 10 45
v -5 10 43
v 4.98458672 10 44.60770416
v 4.93844175 10 44.21782684
v 4.86184978 10 43.83277512
v 4.75528288 10 43.45491409
v 4.61939764 10 43.08658218
v 4.45503283 10 42.73004913
v 4.26320076 10 42.38750839
v 4.04508495 10 42.0610733
v 3.80202985 10 41.75276184
v 3.53553391 10 41.46446609
v 3.2472403 10 41.19797134
v 2.93892622 10 40.95491409
v 2.6124928 10 40.73680115
v 2.26995254 10 40.54496765
v 1.91341722 10 40.38060379
v 1.54508507 10 40.24471664
v 1.16722691 10 40.13814926
v 0.78217238 10 40.06155777
v 0.39229554 10 40.01541519
v -15 10 43
v 0.39229554 7 40.01541519
v 0.78217238 7 40.06155777
v 1.16722691 7 40.13814926
v 1.54508507 7 40.24471664
v 1.91341722 7 40.38060379
v 2.26995254 7 40.54496765
v 2.6124928 7 40.73680115
v 2.93892622 7 40.95491409
v 3.2472403 7 41.19797134
v 3.53553391 7 41.46446609
v 3.80202985 7 41.75276184
v 4.04508495 7 42.0610733
v 4.26320076 7 42.38750839
v 4.45503283 7 42.73004913
v 4.61939764 7 43.08658218
v 4.75528288 7 43.45491409
v 4.86184978 7 43.83277512
v 4.93844175 7 44.21782684
v 4.98458672 7 44.60770416
v 5 7 45
v 4.98458672 7 45.39229584
v 4.93844175 7 45.78217316
v 4.86184978 7 46.1672287
v 4.75528288 7 46.54508591
v 4.61939764 7 46.91341782
v 4.45503283 7 47.26995087
v 4.26320076 7 47.61249161
v 4.04508495 7 47.9389267
v 3.80202985 7 48.24724197
v 3.53553391 7 48.53553391
v 3.2472403 7 48.80202866
v 2.93892622 7 49.04508591
v 2.6124928 7 49.26320267
v 2.26995254 7 49.45503235
v 1.91341722 7 49.61939621
v 1.54508507 7 49.75528336
v 1.16722691 7 49.86185074
v 0.78217238 7 49.93844223
v 0.39229554 7 49.98458862
v 7E-08 7 50
v -5 7 47
v -5 7 43
v -5 7 50
v -15 -1.5E-07 43
v -5 -1.5E-07 43
v -5 -1.5E-07 47
v -15 -1.5E-07 47
v -15 -1.5E-07 50
vn -0 1 0
vn 0 1 -0
vn 0 1 0
vn 0 1 0
vn 0 1 0
vn 0 1 0
vn 0 1 0
vn 0 1 0
vn 0 1 0
vn 0 1 0
vn 0 1 0
vn 0 1 0
vn 0 1 0
vn 0 1 0
vn 0 1 0
vn 0 1 0
vn 0 1 0
vn 0 1 0
vn -0 1 -0
vn 0 1 0
vn 0 1 -0
vn -0 1 -0
vn 0 1 -0
vn 0 1 -0
vn 0 1 -0
vn 0 1 -0
vn 0 1 -0
vn 0 1 -0
vn 0 1 -0
vn 0 1 -0
vn 0 1 -0
vn 0 1 -0
vn 0 1 -0
vn 0 1 -0
vn 0 1 -0
vn 0 1 -0
vn 0 1 -0
vn 0 1 -0
vn -0 1 -0
vn 0 1 0
vn -0 1 -0
vn 0.03926 0 0.99923
vn 0.11754 0 0.99307
vn 0.19509 0 0.98079
vn 0.27144 0 0.96246
vn 0.34612 0 0.93819
vn 0.41866 0 0.90814
vn 0.48862 0 0.8725
vn 0.55557 0 0.83147
vn 0.61909 0 0.78532
vn 0.6788 0 0.73432
vn 0.73432 0 0.6788
vn 0.78532 0 0.61909
vn 0.83147 0 0.55557
vn 0.8725 0 0.48862
vn 0.90814 0 0.41866
vn 0.93819 0 0.34612
vn 0.96246 0 0.27144
vn 0.98079 0 0.19509
vn 0.99307 0 0.11754
vn 0.99923 0 0.03926
vn 0.99923 0 -0.03926
vn 0.99307 0 -0.11754
vn 0.98079 0 -0.19509
vn 0.96246 0 -0.27144
vn 0.93819 0 -0.34612
vn 0.90814 0 -0.41866
vn 0.8725 0 -0.48862
vn 0.83147 0 -0.55557
vn 0.78532 0 -0.61909
vn 0.73432 0 -0.6788
vn 0.6788 0 -0.73432
vn 0.61909 0 -0.78532
vn 0.55557 0 -0.83147
vn 0.48862 0 -0.8725
vn 0.41866 0 -0.90814
vn 0.34612 0 -0.93819
vn 0.27144 0 -0.96246
vn 0.19509 0 -0.98079
vn 0.11754 0 -0.99307
vn 0.03926 0 -0.99923
vn -0 -0 -1
vn -0 1 -0
vn 0 1 -0
vn -0 1 0
vn -0 1 0
vn -0 1 0
vn -0 1 0
vn -0 1 0
vn -0 1 0
vn -0 1 0
vn 0.03926 -0 -0.99923
vn 0.11754 -0 -0.99307
vn 0.11754 -0 -0.99307
vn 0.19509 -0 -0.98079
vn 0.27144 -0 -0.96246
vn 0.34612 -0 -0.93819
vn 0.41866 -0 -0.90814
vn 0.48862 -0 -0.8725
vn 0.55557 -0 -0.83147
vn 0.73432 -0 -0.6788
vn 0.78532 -0 -0.61909
vn 0.90814 -0 -0.41866
vn 0.93819 -0 -0.34612
vn 0.93819 0 0.34612
vn 0.90814 0 0.41866
vn 0.78532 0 0.61909
vn 0.73432 0 0.6788
vn 0.55557 0 0.83147
vn 0.48862 0 0.8725
vn 0.41866 0 0.90814
vn 0.34612 0 0.93819
vn 0.27144 0 0.96246
vn 0.19509 0 0.98079
vn 0.11754 0 0.99307
vn 0.11754 0 0.99307
vn 0.03926 0 0.99923
vn 0 -1 0
vn 0 -1 0
vn 0 -1 0
vn 0 0 1
vn -1 -0 -0
vn -1 -0 -0
vn 0 -1 -0
vn 0 -1 -0
vn 0 -1 -0
vn 0 -1 -0
vn 0 -1 -0
vn 0 -1 -0
vn 0 -1 -0
vn 0 -1 0
vn 0 -1 0
vn -0 -1 0
vn -0 -1 0
vn -0 -1 0
vn -0 -1 0
vn -0 -1 0
vn -0 -1 0
vn -0 -1 0
vn -0 -1 0
vn -0 -1 0
vn -0 -1 0
vn -0 -1 0
vn -0 -1 0
vn -0 -1 -0
vn 0 -1 0
vn 0 -1 0
vn 0 -1 0
vn 0 -1 0
vn 0 -1 0
vn 0 -1 0
vn 0 -1 0
vn 0 -1 0
vn 0 -1 0
vn 0 -1 0
vn 0 -1 0
vn 0 -1 0
vn 0 -1 -0
vn 0 -1 0
vn 0 -1 0
vn 0 -1 0
vn 0 -1 0
vn 0 -1 0
vn 0 -1 0
vn 0 -1 0
vn 1 -0 0
vn 1 0 0
vn 1 0 -0
usemtl mat2
f 3//1 2//1 4//1
f 3//2 4//2 5//2
f 5//3 6//3 3//3
f 3//4 6//4 7//4
f 3//5 7//5 8//5
f 8//6 9//6 3//6
f 3//7 9//7 10//7
f 3//8 10//8 11//8
f 11//9 12//9 3//9
f 3//10 12//10 13//10
f 3//11 13//11 14//11
f 14//12 15//12 3//12
f 3//13 15//13 16//13
f 3//14 16//14 17//14
f 17//15 18//15 3//15
f 3//16 18//16 19//16
f 3//17 19//17 20//17
f 20//18 21//18 3//18
f 3//19 21//19 22//19
f 3//20 22//20 23//20
f 23//21 24//21 3//21
f 3//22 24//22 25//22
f 3//23 25//23 26//23
f 26//24 27//24 3//24
f 3//25 27//25 28//25
f 3//26 28//26 29//26
f 29//27 30//27 3//27
f 3//28 30//28 31//28
f 3//29 31//29 32//29
f 32//30 33//30 3//30
f 3//31 33//31 34//31
f 3//32 34//32 35//32
f 35//33 36//33 3//33
f 3//34 36//34 37//34
f 3//35 37//35 38//35
f 38//36 39//36 3//36
f 3//37 39//37 40//37
f 3//38 40//38 41//38
f 41//39 42//39 3//39
f 3//40 42//40 43//40
f 3//41 43//41 44//41
f 44//1 43//1 45//1
f 2//42 46//42 4//42
f 4//42 46//42 47//42
f 4//43 47//43 5//43
f 5//43 47//43 48//43
f 5//44 48//44 6//44
f 6//44 48//44 49//44
f 6//45 49//45 7//45
f 7//45 49//45 50//45
f 7//46 50//46 8//46
f 8//46 50//46 51//46
f 8//47 51//47 9//47
f 9//47 51//47 52//47
f 9//48 52//48 10//48
f 10//48 52//48 53//48
f 10//49 53//49 11//49
f 11//49 53//49 54//49
f 11//50 54//50 12//50
f 12//50 54//50 55//50
f 12//51 55//51 13//51
f 13//51 55//51 56//51
f 13//52 56//52 14//52
f 14//52 56//52 57//52
f 14//53 57//53 15//53
f 15//53 57//53 58//53
f 15//54 58//54 16//54
f 16//54 58//54 59//54
f 16//55 59//55 17//55
f 17//55 59//55 60//55
f 17//56 60//56 18//56
f 18//56 60//56 61//56
f 18//57 61//57 19//57
f 19//57 61//57 62//57
f 19//58 62//58 20//58
f 20//58 62//58 63//58
f 20//59 63//59 21//59
f 21//59 63//59 64//59
f 21//60 64//60 22//60
f 22//60 64//60 65//60
f 22//61 65//61 23//61
f 23//61 65//61 66//61
f 23//62 66//62 24//62
f 24//62 66//62 67//62
f 24//63 67//63 25//63
f 25//63 67//63 68//63
f 25//64 68//64 26//64
f 26//64 68//64 69//64
f 26//65 69//65 27//65
f 27//65 69//65 70//65
f 27//66 70//66 28//66
f 28//66 70//66 71//66
f 28//67 71//67 29//67
f 29//67 71//67 72//67
f 29//68 72//68 30//68
f 30//68 72//68 73//68
f 30//69 73//69 31//69
f 31//69 73//69 74//69
f 31//70 74//70 32//70
f 32//70 74//70 75//70
f 32//71 75//71 33//71
f 33//71 75//71 76//71
f 33//72 76//72 34//72
f 34//72 76//72 77//72
f 34//73 77//73 35//73
f 35//73 77//73 78//73
f 35//74 78//74 36//74
f 36//74 78//74 79//74
f 36//75 79//75 37//75
f 37//75 79//75 80//75
f 37//76 80//76 38//76
f 38//76 80//76 81//76
f 38//77 81//77 39//77
f 39//77 81//77 82//77
f 39//78 82//78 40//78
f 40//78 82//78 83//78
f 40//79 83//79 41//79
f 41//79 83//79 84//79
f 41//80 84//80 42//80
f 42//80 84//80 85//80
f 42//81 85//81 43//81
f 43//81 85//81 86//81
f 43//82 86//82 45//82
f 45//82 86//82 87//82
f 45//82 87//82 88//82
f 45//82 88//82 89//82
f 89//82 88//82 90//82
f 89//82 90//82 91//82
f 92//1 93//1 94//1
f 94//1 93//1 95//1
f 94//1 95//1 96//1
f 96//1 97//1 94//1
f 94//1 97//1 98//1
f 94//1 98//1 99//1
f 99//1 100//1 94//1
f 94//1 100//1 101//1
f 94//1 101//1 102//1
f 102//1 101//1 103//1
f 100//1 104//1 101//1
f 101//1 104//1 105//1
f 101//1 105//1 106//1
f 106//1 107//1 101//1
f 101//1 107//1 108//1
f 101//1 108//1 109//1
f 109//1 110//1 101//1
f 101//1 110//1 111//1
f 101//1 111//1 112//1
f 112//1 113//1 101//1
f 101//1 113//1 114//1
f 101//1 114//1 115//1
f 101//1 115//1 116//1
f 116//1 115//1 117//1
f 116//1 117//1 118//1
f 118//1 119//1 116//1
f 116//1 119//1 120//1
f 116//1 120//1 121//1
f 121//1 122//1 116//1
f 116//1 122//1 123//1
f 116//1 123//1 124//1
f 124//1 125//1 116//1
f 116//1 125//1 126//1
f 116//1 126//1 127//1
f 127//1 128//1 116//1
f 116//83 128//83 90//83
f 116//84 90//84 88//84
f 128//85 129//85 90//85
f 90//86 129//86 130//86
f 90//87 130//87 131//87
f 131//88 132//88 90//88
f 90//89 132//89 133//89
f 90//90 133//90 134//90
f 134//91 135//91 90//91
f 88//84 136//84 116//84
f 91//81 90//81 137//81
f 137//92 90//92 135//92
f 137//93 135//93 138//93
f 138//94 135//94 134//94
f 138//95 134//95 139//95
f 139//79 134//79 133//79
f 139//78 133//78 140//78
f 140//96 133//96 132//96
f 140//97 132//97 141//97
f 141//77 132//77 131//77
f 141//76 131//76 142//76
f 142//98 131//98 130//98
f 142//99 130//99 143//99
f 143//99 130//99 129//99
f 143//100 129//100 144//100
f 144//74 129//74 128//74
f 144//73 128//73 145//73
f 145//73 128//73 127//73
f 145//72 127//72 146//72
f 146//72 127//72 126//72
f 146//71 126//71 147//71
f 147//101 126//101 125//101
f 147//102 125//102 148//102
f 148//70 125//70 124//70
f 148//69 124//69 149//69
f 149//69 124//69 123//69
f 149//68 123//68 150//68
f 150//68 123//68 122//68
f 150//67 122//67 151//67
f 151//103 122//103 121//103
f 151//104 121//104 152//104
f 152//66 121//66 120//66
f 152//65 120//65 153//65
f 153//65 120//65 119//65
f 153//64 119//64 154//64
f 154//64 119//64 118//64
f 154//63 118//63 155//63
f 155//63 118//63 117//63
f 155//62 117//62 156//62
f 156//62 117//62 115//62
f 156//61 115//61 157//61
f 157//61 115//61 114//61
f 157//60 114//60 158//60
f 158//60 114//60 113//60
f 158//59 113//59 159//59
f 159//59 113//59 112//59
f 159//58 112//58 160//58
f 160//58 112//58 111//58
f 160//57 111//57 161//57
f 161//105 111//105 110//105
f 161//106 110//106 162//106
f 162//56 110//56 109//56
f 162//55 109//55 163//55
f 163//55 109//55 108//55
f 163//54 108//54 164//54
f 164//54 108//54 107//54
f 164//53 107//53 165//53
f 165//107 107//107 106//107
f 165//108 106//108 166//108
f 166//52 106//52 105//52
f 166//51 105//51 167//51
f 167//51 105//51 104//51
f 167//50 104//50 168//50
f 168//50 104//50 100//50
f 168//49 100//49 169//49
f 169//109 100//109 99//109
f 169//110 99//110 170//110
f 170//110 99//110 98//110
f 170//111 98//111 171//111
f 171//47 98//47 97//47
f 171//46 97//46 172//46
f 172//112 97//112 96//112
f 172//113 96//113 173//113
f 173//45 96//45 95//45
f 173//44 95//44 174//44
f 174//114 95//114 93//114
f 174//115 93//115 175//115
f 175//116 93//116 92//116
f 175//117 92//117 176//117
f 176//42 92//42 94//42
f 137//118 177//118 91//118
f 91//119 177//119 178//119
f 91//120 178//120 89//120
f 137//120 138//120 177//120
f 177//120 138//120 139//120
f 177//120 139//120 140//120
f 140//120 141//120 177//120
f 177//120 141//120 142//120
f 177//120 142//120 143//120
f 143//120 144//120 177//120
f 177//120 144//120 145//120
f 177//120 145//120 146//120
f 146//120 147//120 177//120
f 177//120 147//120 148//120
f 177//120 148//120 149//120
f 149//120 150//120 177//120
f 177//120 150//120 151//120
f 177//120 151//120 152//120
f 152//120 153//120 177//120
f 177//120 153//120 154//120
f 177//120 154//120 155//120
f 155//120 156//120 177//120
f 177//120 156//120 157//120
f 177//120 157//120 158//120
f 158//120 159//120 177//120
f 177//120 159//120 160//120
f 177//120 160//120 161//120
f 161//120 162//120 177//120
f 177//120 162//120 163//120
f 177//120 163//120 164//120
f 164//120 165//120 177//120
f 177//120 165//120 166//120
f 177//120 166//120 167//120
f 167//120 168//120 177//120
f 177//120 168//120 169//120
f 177//120 169//120 170//120
f 170//120 171//120 177//120
f 177//120 171//120 172//120
f 177//120 172//120 173//120
f 173//120 174//120 177//120
f 177//120 174//120 175//120
f 177//120 175//120 176//120
f 176//120 179//120 177//120
f 116//121 136//121 178//121
f 178//121 136//121 44//121
f 44//121 136//121 180//121
f 44//121 180//121 181//121
f 101//122 116//122 177//122
f 177//123 116//123 178//123
f 181//122 182//122 44//122
f 44//122 182//122 3//122
f 101//82 177//82 103//82
f 103//82 177//82 183//82
f 183//82 177//82 3//82
f 183//82 3//82 182//82
f 103//122 183//122 102//122
f 102//122 183//122 184//122
f 85//124 84//124 86//124
f 86//125 84//125 83//125
f 86//126 83//126 82//126
f 82//127 81//127 86//127
f 86//128 81//128 80//128
f 86//129 80//129 79//129
f 79//130 78//130 86//130
f 86//131 78//131 181//131
f 86//132 181//132 87//132
f 87//132 181//132 180//132
f 78//133 77//133 181//133
f 181//134 77//134 76//134
f 181//135 76//135 75//135
f 75//136 74//136 181//136
f 181//137 74//137 73//137
f 181//138 73//138 72//138
f 72//139 71//139 181//139
f 181//140 71//140 70//140
f 181//141 70//141 69//141
f 69//142 68//142 181//142
f 181//143 68//143 67//143
f 181//144 67//144 66//144
f 181//145 66//145 182//145
f 182//146 66//146 65//146
f 182//147 65//147 64//147
f 64//148 63//148 182//148
f 182//149 63//149 62//149
f 182//150 62//150 61//150
f 61//151 60//151 182//151
f 182//152 60//152 59//152
f 182//153 59//153 58//153
f 58//154 57//154 182//154
f 182//155 57//155 56//155
f 182//156 56//156 55//156
f 55//157 54//157 182//157
f 182//158 54//158 46//158
f 182//120 46//120 184//120
f 54//159 53//159 46//159
f 46//160 53//160 52//160
f 46//161 52//161 51//161
f 51//162 50//162 46//162
f 46//163 50//163 49//163
f 46//164 49//164 48//164
f 48//165 47//165 46//165
f 184//120 183//120 182//120
f 178//166 44//166 89//166
f 89//167 44//167 45//167
f 3//168 177//168 1//168
f 1//168 177//168 179//168
f 180//122 136//122 87//122
f 87//122 136//122 88//122
f 2//121 1//121 46//121
f 46//121 1//121 184//121
f 184//121 1//121 102//121
f 102//121 1//121 179//121
f 102//121 179//121 94//121
f 94//121 179//121 176//121
usemtl mat1
f 1//1 2//1 3//1
# Vertices: 184, normals: 168, texture coordinates: 0, faces: 368

