# File generated by ImageToStl.com - Free Image and 3D model conversion tools

mtllib L_Distal_F_1.mtl

o obj1
v 85 3 45
v 85 5 40
v 85 7 45
v 85 5.41105223 40.01692581
v 85 5.81932211 40.06758499
v 85 3 40.41742325
v 85 3.38350558 40.26851654
v 85 3.77795506 40.15163803
v 85 4.18067789 40.06758499
v 85 4.5889473 40.01692581
v 85 6.22204447 40.15163803
v 85 6.61649418 40.26851654
v 85 7 40.41742325
v 78 7 40.41742325
v 78.23826599 6.76173258 40.32065201
v 78.48119354 6.51880455 40.23625946
v 78.72814178 6.27185869 40.16446686
v 78.97845459 6.02154827 40.10546875
v 79.2314682 5.76853514 40.05941772
v 79.48651123 5.51348925 40.02643585
v 79.74291992 5.25708485 40.00661469
v 80 5 40
v 79.74291992 4.74291515 40.00661469
v 79.48651123 4.48651075 40.02643585
v 79.2314682 4.23146486 40.05941772
v 78.97845459 3.97845173 40.10546875
v 78.72814178 3.72814107 40.16446686
v 78.48119354 3.48119521 40.23625946
v 78.23826599 3.23826718 40.32065201
v 78 3 40.41742325
v 77.61679077 7 40.60451508
v 77.61679077 3 40.60451508
v 77.2509079 7 40.82357788
v 77.2509079 3 40.82357788
v 76.9050293 7 41.07302094
v 76.9050293 3 41.07302094
v 76.58166504 7 41.35103226
v 76.58166504 3 41.35103226
v 76.28316498 7 41.65558624
v 76.28316498 3 41.65558624
v 76.01169586 7 41.98446655
v 76.01169586 3 41.98446655
v 75.76924896 7 42.33528137
v 75.76924896 3 42.33528137
v 75.55757141 7 42.70548248
v 75.55757141 3 42.70548248
v 75.37821198 7 43.09237289
v 75.37821198 3 43.09237289
v 75.23246765 7 43.49314117
v 75.23246765 3 43.49314117
v 75.12140656 7 43.90487289
v 75.12140656 3 43.90487289
v 75.04582977 7 44.32456589
v 75.04582977 3 44.32456589
v 75.00629425 7 44.74917603
v 75.00629425 3 44.74917603
v 75.00308228 7 45.17560577
v 75.00308228 3 45.17560577
v 75.03622437 7 45.60076141
v 75.03622437 3 45.60076141
v 75.10546875 7 46.02154922
v 75.10546875 3 46.02154922
v 75.21031952 7 46.43490219
v 75.21031952 3 46.43490219
v 75.3500061 7 46.83781815
v 75.3500061 3 46.83781815
v 75.52352905 7 47.2273674
v 75.52352905 3 47.2273674
v 75.72960663 7 47.60071182
v 75.72960663 3 47.60071182
v 75.96674347 7 47.95513916
v 75.96674347 3 47.95513916
v 76.23323059 7 48.28807068
v 76.23323059 3 48.28807068
v 76.52710724 7 48.59708405
v 76.52710724 3 48.59708405
v 76.84625244 7 48.8799324
v 76.84625244 3 48.8799324
v 77.18833923 7 49.13455582
v 77.18833923 3 49.13455582
v 77.5508728 7 49.35910416
v 77.5508728 3 49.35910416
v 77.93122864 7 49.55194092
v 77.93122864 3 49.55194092
v 78.32662964 7 49.71166992
v 78.32662964 3 49.71166992
v 78.73420715 7 49.83712387
v 78.73420715 3 49.83712387
v 79.15098572 7 49.92739105
v 79.15098572 3 49.92739105
v 79.57394409 7 49.98181534
v 79.57394409 3 49.98181534
v 80 7 50
v 80 3 50
v 85 3 50
v 85 7 50
v 85 10 50
v 85 10 45
v 85 0 45
v 85 0 50
v 95 0 45
v 95 0 50
v 99.01998901 2.02683401 50
v 99.25764465 2.37846351 50
v 95.42402649 0.01801256 50
v 95.84500122 0.07192045 50
v 96.2598877 0.16133526 50
v 96.66569519 0.28561276 50
v 97.05950928 0.44385755 50
v 97.43847656 0.63492942 50
v 97.79987335 0.85745174 50
v 98.14109802 1.1098212 50
v 98.45969391 1.39021957 50
v 98.75336456 1.69662642 50
v 99.46463013 2.74898124 50
v 99.63944244 3.13571763 50
v 99.78083038 3.53588605 50
v 99.88777924 3.94660354 50
v 99.95950317 4.36491108 50
v 99.99549103 4.78779411 50
v 99.99549103 5.21220589 50
v 99.95950317 5.63508892 50
v 99.88777924 6.05339622 50
v 99.78083038 6.46411371 50
v 99.63944244 6.86428261 50
v 99.46463013 7.25101852 50
v 99.25764465 7.62153625 50
v 99.01998901 7.97316599 50
v 95 10 50
v 98.75336456 8.30337334 50
v 98.45969391 8.60978031 50
v 98.14109802 8.89017868 50
v 97.79987335 9.14254856 50
v 97.43847656 9.36507034 50
v 97.05950928 9.55614281 50
v 96.66569519 9.71438694 50
v 96.2598877 9.83866501 50
v 95.84500122 9.92807961 50
v 95.42402649 9.981987 50
v 95.42402649 0.01801256 45
v 95.84500122 0.07192045 45
v 96.2598877 0.16133526 45
v 96.66569519 0.28561276 45
v 97.05950928 0.44385755 45
v 97.43847656 0.63492942 45
v 97.79987335 0.85745174 45
v 98.14109802 1.1098212 45
v 98.45969391 1.39021957 45
v 98.75336456 1.69662642 45
v 99.01998901 2.02683401 45
v 99.25764465 2.37846351 45
v 99.46463013 2.74898124 45
v 99.63944244 3.13571763 45
v 99.78083038 3.53588605 45
v 99.88777924 3.94660354 45
v 99.95950317 4.36491108 45
v 99.99549103 4.78779411 45
v 99.99549103 5.21220589 45
v 99.95950317 5.63508892 45
v 99.88777924 6.05339622 45
v 99.78083038 6.46411371 45
v 99.63944244 6.86428261 45
v 99.46463013 7.25101852 45
v 99.25764465 7.62153625 45
v 99.01998901 7.97316599 45
v 98.75336456 8.30337334 45
v 98.45969391 8.60978031 45
v 98.14109802 8.89017868 45
v 97.79987335 9.14254856 45
v 97.43847656 9.36507034 45
v 97.05950928 9.55614281 45
v 96.66569519 9.71438694 45
v 96.2598877 9.83866501 45
v 95.84500122 9.92807961 45
v 95.42402649 9.981987 45
v 95 10 45
vn 1 0 -0
vn 1 0 -0
vn 1 0 -0
vn 1 0 -0
vn 1 -0 -0
vn 1 -0 -0
vn 1 -0 -0
vn 1 -0 -0
vn 1 0 -0
vn 1 0 -0
vn 1 -0 0
vn 0 0.3763 -0.9265
vn 0.00059 0.36196 -0.9322
vn -0.00024 0.32795 -0.9447
vn 0.00049 0.28409 -0.9588
vn 0.00026 0.27939 -0.96018
vn -0.00017 0.22926 -0.97337
vn 0.0007 0.20431 -0.97891
vn -0.00018 0.17889 -0.98387
vn 0.00027 0.12851 -0.99171
vn 0.00058 0.12314 -0.99239
vn -0.00029 0.07679 -0.99705
vn 0.00075 0.04114 -0.99915
vn 0 0.02572 -0.99967
vn -0 -0.02572 -0.99967
vn 0.00075 -0.04114 -0.99915
vn -0.00029 -0.07679 -0.99705
vn 0.00058 -0.12314 -0.99239
vn 0.00027 -0.12851 -0.99171
vn -0.00018 -0.17889 -0.98387
vn 0.0007 -0.20431 -0.97891
vn -0.00017 -0.22926 -0.97337
vn 0.00026 -0.27939 -0.96018
vn 0.00049 -0.28409 -0.9588
vn -0.00024 -0.32795 -0.9447
vn 0.00059 -0.36196 -0.9322
vn 0 -0.3763 -0.9265
vn -0.3763 0 -0.9265
vn -0.3763 -0 -0.9265
vn -0.43872 0 -0.89862
vn -0.43872 -0 -0.89862
vn -0.5137 0 -0.85797
vn -0.5137 -0 -0.85797
vn -0.58494 0 -0.81108
vn -0.58494 -0 -0.81108
vn -0.65192 0 -0.75828
vn -0.65192 -0 -0.75828
vn -0.71417 0 -0.69998
vn -0.71417 -0 -0.69998
vn -0.77122 0 -0.63657
vn -0.77122 -0 -0.63657
vn -0.82265 0 -0.56854
vn -0.82265 -0 -0.56854
vn -0.86811 0 -0.49637
vn -0.86811 -0 -0.49637
vn -0.90725 0 -0.4206
vn -0.90725 -0 -0.4206
vn -0.93979 0 -0.34176
vn -0.93979 -0 -0.34176
vn -0.96549 0 -0.26044
vn -0.96549 -0 -0.26044
vn -0.98417 0 -0.17722
vn -0.98417 -0 -0.17722
vn -0.99569 0 -0.09271
vn -0.99569 -0 -0.09271
vn -0.99997 0 -0.00753
vn -0.99997 -0 -0.00753
vn -0.99698 0 0.07771
vn -0.99698 -0 0.07771
vn -0.98673 0 0.16238
vn -0.98673 -0 0.16238
vn -0.9693 0 0.24587
vn -0.9693 -0 0.24587
vn -0.94483 0 0.32757
vn -0.94483 -0 0.32757
vn -0.91348 0 0.40689
vn -0.91348 -0 0.40689
vn -0.87548 0 0.48325
vn -0.87548 -0 0.48325
vn -0.83112 0 0.55609
vn -0.83112 -0 0.55609
vn -0.78071 0 0.62489
vn -0.78071 -0 0.62489
vn -0.72463 0 0.68914
vn -0.72463 -0 0.68914
vn -0.66327 0 0.74838
vn -0.66327 -0 0.74838
vn -0.59708 0 0.80218
vn -0.59708 -0 0.80218
vn -0.52656 0 0.85014
vn -0.52656 -0 0.85014
vn -0.4522 0 0.89192
vn -0.4522 -0 0.89192
vn -0.37456 0 0.9272
vn -0.37456 -0 0.9272
vn -0.29418 0 0.95575
vn -0.29418 -0 0.95575
vn -0.21167 0 0.97734
vn -0.21167 -0 0.97734
vn -0.12762 0 0.99182
vn -0.12762 -0 0.99182
vn -0.04264 0 0.99909
vn -0.04264 0 0.99909
vn -0.32816 -0 -0.94462
vn -0.32816 0 -0.94462
vn -0.27916 -0 -0.96025
vn -0.27916 0 -0.96025
vn -0.22942 -0 -0.97333
vn -0.22942 0 -0.97333
vn -0.17907 -0 -0.98384
vn -0.17907 0 -0.98384
vn -0.12824 -0 -0.99174
vn -0.12824 0 -0.99174
vn -0.07708 -0 -0.99702
vn -0.07708 0 -0.99702
vn -0.02572 -0 -0.99967
vn 0 -1 0
vn 0 -1 -0
vn 0 -1 0
vn 0 -1 0
vn 0 -1 0
vn 0 -1 0
vn 0 -1 0
vn 0 -1 0
vn 0 -1 0
vn 0 -1 0
vn 0 -1 0
vn 0 -1 0
vn 0 -1 0
vn -0 -1 0
vn 0 -1 0
vn -0 -1 0
vn -0 -1 0
vn -0 -1 0
vn -0 -1 0
vn -0 -1 0
vn -0 -1 0
vn -0 -1 0
vn -0 -1 0
vn -0 -1 0
vn -0 -1 0
vn -0 -1 0
vn -0 -1 0
vn -0 -1 0
vn -0 -1 0
vn -0 -1 0
vn 0 -1 0
vn -0 -1 0
vn 0 -1 0
vn 0 1 -0
vn 0 1 -0
vn 0 1 0
vn -1 -0 -0
vn -1 0 -0
vn -1 0 0
vn 0 0 1
vn 0.04244 -0.9991 0
vn 0.04244 -0.9991 -0
vn 0.12702 -0.9919 -0
vn 0.12702 -0.9919 -0
vn 0.21068 -0.97756 -0
vn 0.21068 -0.97756 -0
vn 0.29282 -0.95617 -0
vn 0.37286 -0.92789 -0
vn 0.4502 -0.89293 -0
vn 0.4502 -0.89293 -0
vn 0.52431 -0.85153 -0
vn 0.52431 -0.85153 -0
vn 0.59463 -0.804 -0
vn 0.59463 -0.804 -0
vn 0.66067 -0.75067 -0
vn 0.66067 -0.75067 -0
vn 0.72196 -0.69194 -0
vn 0.72196 -0.69194 -0
vn 0.77804 -0.62822 -0
vn 0.77804 -0.62822 -0
vn 0.82851 -0.55997 -0
vn 0.82851 -0.55997 -0
vn 0.87301 -0.48769 -0
vn 0.87301 -0.48769 -0
vn 0.91123 -0.4119 -0
vn 0.91123 -0.4119 -0
vn 0.94288 -0.33314 -0
vn 0.94288 -0.33314 -0
vn 0.96773 -0.25198 -0
vn 0.96773 -0.25198 0
vn 0.98562 -0.169 0
vn 0.98562 -0.169 0
vn 0.9964 -0.08481 0
vn 0.9964 -0.08481 -0
vn 1 0 -0
vn 0.9964 0.08481 -0
vn 0.9964 0.08481 0
vn 0.98562 0.169 0
vn 0.98562 0.169 -0
vn 0.96773 0.25198 -0
vn 0.96773 0.25198 -0
vn 0.94288 0.33314 -0
vn 0.91123 0.4119 -0
vn 0.91123 0.4119 -0
vn 0.87301 0.48769 -0
vn 0.87301 0.48769 -0
vn 0.82851 0.55997 -0
vn 0.82851 0.55997 -0
vn 0.77804 0.62822 -0
vn 0.77804 0.62822 -0
vn 0.72196 0.69194 -0
vn 0.72196 0.69194 -0
vn 0.66067 0.75067 -0
vn 0.66067 0.75067 0
vn 0.59463 0.804 0
vn 0.59463 0.804 -0
vn 0.52431 0.85153 -0
vn 0.52431 0.85153 -0
vn 0.4502 0.89293 -0
vn 0.4502 0.89293 -0
vn 0.37286 0.92789 -0
vn 0.29282 0.95617 -0
vn 0.29282 0.95617 -0
vn 0.21068 0.97756 -0
vn 0.21068 0.97756 -0
vn 0.12702 0.9919 -0
vn 0.12702 0.9919 -0
vn 0.04244 0.9991 -0
vn 0.04244 0.9991 0
vn 0 0 -1
usemtl mat2
f 3//2 2//2 4//2
f 3//3 4//3 5//3
f 6//4 7//4 1//4
f 1//5 7//5 8//5
f 1//6 8//6 9//6
f 9//7 10//7 1//7
f 1//8 10//8 2//8
f 5//9 11//9 3//9
f 3//10 11//10 12//10
f 3//11 12//11 13//11
f 14//12 13//12 15//12
f 15//13 13//13 12//13
f 15//14 12//14 16//14
f 16//15 12//15 11//15
f 16//16 11//16 17//16
f 17//17 11//17 18//17
f 18//18 11//18 5//18
f 18//19 5//19 19//19
f 19//20 5//20 20//20
f 20//21 5//21 4//21
f 20//22 4//22 21//22
f 21//23 4//23 2//23
f 21//24 2//24 22//24
f 22//25 2//25 23//25
f 23//26 2//26 10//26
f 23//27 10//27 24//27
f 24//28 10//28 9//28
f 24//29 9//29 25//29
f 25//30 9//30 26//30
f 26//31 9//31 8//31
f 26//32 8//32 27//32
f 27//33 8//33 28//33
f 28//34 8//34 7//34
f 28//35 7//35 29//35
f 29//36 7//36 6//36
f 29//37 6//37 30//37
f 15//38 29//38 14//38
f 14//39 29//39 30//39
f 14//40 30//40 31//40
f 31//41 30//41 32//41
f 31//42 32//42 33//42
f 33//43 32//43 34//43
f 33//44 34//44 35//44
f 35//45 34//45 36//45
f 35//46 36//46 37//46
f 37//47 36//47 38//47
f 37//48 38//48 39//48
f 39//49 38//49 40//49
f 39//50 40//50 41//50
f 41//51 40//51 42//51
f 41//52 42//52 43//52
f 43//53 42//53 44//53
f 43//54 44//54 45//54
f 45//55 44//55 46//55
f 45//56 46//56 47//56
f 47//57 46//57 48//57
f 47//58 48//58 49//58
f 49//59 48//59 50//59
f 49//60 50//60 51//60
f 51//61 50//61 52//61
f 51//62 52//62 53//62
f 53//63 52//63 54//63
f 53//64 54//64 55//64
f 55//65 54//65 56//65
f 55//66 56//66 57//66
f 57//67 56//67 58//67
f 57//68 58//68 59//68
f 59//69 58//69 60//69
f 59//70 60//70 61//70
f 61//71 60//71 62//71
f 61//72 62//72 63//72
f 63//73 62//73 64//73
f 63//74 64//74 65//74
f 65//75 64//75 66//75
f 65//76 66//76 67//76
f 67//77 66//77 68//77
f 67//78 68//78 69//78
f 69//79 68//79 70//79
f 69//80 70//80 71//80
f 71//81 70//81 72//81
f 71//82 72//82 73//82
f 73//83 72//83 74//83
f 73//84 74//84 75//84
f 75//85 74//85 76//85
f 75//86 76//86 77//86
f 77//87 76//87 78//87
f 77//88 78//88 79//88
f 79//89 78//89 80//89
f 79//90 80//90 81//90
f 81//91 80//91 82//91
f 81//92 82//92 83//92
f 83//93 82//93 84//93
f 83//94 84//94 85//94
f 85//95 84//95 86//95
f 85//96 86//96 87//96
f 87//97 86//97 88//97
f 87//98 88//98 89//98
f 89//99 88//99 90//99
f 89//100 90//100 91//100
f 91//101 90//101 92//101
f 91//102 92//102 93//102
f 93//103 92//103 94//103
f 29//104 15//104 28//104
f 28//105 15//105 16//105
f 28//106 16//106 27//106
f 27//107 16//107 17//107
f 27//108 17//108 26//108
f 26//109 17//109 18//109
f 26//110 18//110 25//110
f 25//111 18//111 19//111
f 25//112 19//112 24//112
f 24//113 19//113 20//113
f 24//114 20//114 23//114
f 23//115 20//115 21//115
f 23//116 21//116 22//116
f 6//117 1//117 30//117
f 30//118 1//118 32//118
f 32//119 1//119 34//119
f 34//120 1//120 36//120
f 36//121 1//121 38//121
f 38//122 1//122 40//122
f 40//123 1//123 42//123
f 42//124 1//124 44//124
f 44//125 1//125 46//125
f 46//126 1//126 48//126
f 48//127 1//127 50//127
f 50//128 1//128 52//128
f 52//129 1//129 54//129
f 54//130 1//130 56//130
f 56//117 1//117 58//117
f 58//131 1//131 60//131
f 60//132 1//132 62//132
f 62//133 1//133 64//133
f 64//134 1//134 66//134
f 66//135 1//135 68//135
f 68//136 1//136 70//136
f 70//137 1//137 72//137
f 72//138 1//138 74//138
f 74//139 1//139 76//139
f 76//140 1//140 78//140
f 78//141 1//141 80//141
f 80//142 1//142 82//142
f 82//143 1//143 84//143
f 84//144 1//144 86//144
f 86//145 1//145 88//145
f 88//146 1//146 90//146
f 90//147 1//147 92//147
f 92//148 1//148 94//148
f 94//149 1//149 95//149
f 13//150 14//150 3//150
f 3//151 14//151 31//151
f 3//152 31//152 33//152
f 33//152 35//152 3//152
f 3//152 35//152 37//152
f 3//152 37//152 39//152
f 39//152 41//152 3//152
f 3//152 41//152 43//152
f 3//152 43//152 45//152
f 45//152 47//152 3//152
f 3//152 47//152 49//152
f 3//152 49//152 51//152
f 51//152 53//152 3//152
f 3//152 53//152 55//152
f 3//152 55//152 57//152
f 57//152 59//152 3//152
f 3//152 59//152 61//152
f 3//152 61//152 63//152
f 63//152 65//152 3//152
f 3//152 65//152 67//152
f 3//152 67//152 69//152
f 69//152 71//152 3//152
f 3//152 71//152 73//152
f 3//152 73//152 75//152
f 75//152 77//152 3//152
f 3//152 77//152 79//152
f 3//152 79//152 81//152
f 81//152 83//152 3//152
f 3//152 83//152 85//152
f 3//152 85//152 87//152
f 87//152 89//152 3//152
f 3//152 89//152 91//152
f 3//152 91//152 93//152
f 93//152 96//152 3//152
f 96//153 97//153 3//153
f 3//153 97//153 98//153
f 1//154 99//154 95//154
f 95//155 99//155 100//155
f 99//117 101//117 100//117
f 100//117 101//117 102//117
f 100//156 102//156 95//156
f 95//156 102//156 103//156
f 95//156 103//156 104//156
f 105//156 106//156 102//156
f 102//156 106//156 107//156
f 102//156 107//156 108//156
f 108//156 109//156 102//156
f 102//156 109//156 110//156
f 102//156 110//156 111//156
f 111//156 112//156 102//156
f 102//156 112//156 113//156
f 102//156 113//156 114//156
f 114//156 103//156 102//156
f 104//156 115//156 95//156
f 95//156 115//156 116//156
f 95//156 116//156 117//156
f 117//156 118//156 95//156
f 95//156 118//156 119//156
f 95//156 119//156 120//156
f 95//156 120//156 96//156
f 96//156 120//156 121//156
f 96//156 121//156 122//156
f 122//156 123//156 96//156
f 96//156 123//156 124//156
f 96//156 124//156 125//156
f 125//156 126//156 96//156
f 96//156 126//156 127//156
f 96//156 127//156 128//156
f 96//156 128//156 129//156
f 129//156 128//156 130//156
f 129//156 130//156 131//156
f 131//156 132//156 129//156
f 129//156 132//156 133//156
f 129//156 133//156 134//156
f 134//156 135//156 129//156
f 129//156 135//156 136//156
f 129//156 136//156 137//156
f 137//156 138//156 129//156
f 129//156 138//156 139//156
f 129//156 97//156 96//156
f 96//156 93//156 95//156
f 95//156 93//156 94//156
f 102//157 101//157 105//157
f 105//158 101//158 140//158
f 105//159 140//159 106//159
f 106//160 140//160 141//160
f 106//161 141//161 107//161
f 107//162 141//162 142//162
f 107//163 142//163 108//163
f 108//163 142//163 143//163
f 108//164 143//164 109//164
f 109//164 143//164 144//164
f 109//165 144//165 110//165
f 110//166 144//166 145//166
f 110//167 145//167 111//167
f 111//168 145//168 146//168
f 111//169 146//169 112//169
f 112//170 146//170 147//170
f 112//171 147//171 113//171
f 113//172 147//172 148//172
f 113//173 148//173 114//173
f 114//174 148//174 149//174
f 114//175 149//175 103//175
f 103//176 149//176 150//176
f 103//177 150//177 104//177
f 104//178 150//178 151//178
f 104//179 151//179 115//179
f 115//180 151//180 152//180
f 115//181 152//181 116//181
f 116//182 152//182 153//182
f 116//183 153//183 117//183
f 117//184 153//184 154//184
f 117//185 154//185 118//185
f 118//186 154//186 155//186
f 118//187 155//187 119//187
f 119//188 155//188 156//188
f 119//189 156//189 120//189
f 120//190 156//190 157//190
f 120//191 157//191 121//191
f 121//191 157//191 158//191
f 121//192 158//192 122//192
f 122//193 158//193 159//193
f 122//194 159//194 123//194
f 123//195 159//195 160//195
f 123//196 160//196 124//196
f 124//197 160//197 161//197
f 124//198 161//198 125//198
f 125//198 161//198 162//198
f 125//199 162//199 126//199
f 126//200 162//200 163//200
f 126//201 163//201 127//201
f 127//202 163//202 164//202
f 127//203 164//203 128//203
f 128//204 164//204 165//204
f 128//205 165//205 130//205
f 130//206 165//206 166//206
f 130//207 166//207 131//207
f 131//208 166//208 167//208
f 131//209 167//209 132//209
f 132//210 167//210 168//210
f 132//211 168//211 133//211
f 133//212 168//212 169//212
f 133//213 169//213 134//213
f 134//214 169//214 170//214
f 134//215 170//215 135//215
f 135//216 170//216 171//216
f 135//217 171//217 136//217
f 136//217 171//217 172//217
f 136//218 172//218 137//218
f 137//219 172//219 173//219
f 137//220 173//220 138//220
f 138//221 173//221 174//221
f 138//222 174//222 139//222
f 139//223 174//223 175//223
f 139//224 175//224 129//224
f 129//225 175//225 176//225
f 176//152 98//152 129//152
f 129//152 98//152 97//152
f 99//226 1//226 101//226
f 101//226 1//226 156//226
f 101//226 156//226 155//226
f 156//226 1//226 157//226
f 157//226 1//226 3//226
f 157//226 3//226 158//226
f 158//226 3//226 159//226
f 159//226 3//226 176//226
f 159//226 176//226 160//226
f 160//226 176//226 161//226
f 161//226 176//226 162//226
f 162//226 176//226 163//226
f 163//226 176//226 164//226
f 164//226 176//226 165//226
f 165//226 176//226 166//226
f 166//226 176//226 167//226
f 167//226 176//226 168//226
f 168//226 176//226 169//226
f 169//226 176//226 170//226
f 170//226 176//226 171//226
f 171//226 176//226 172//226
f 172//226 176//226 173//226
f 173//226 176//226 174//226
f 174//226 176//226 175//226
f 3//226 98//226 176//226
f 155//226 154//226 101//226
f 101//226 154//226 153//226
f 101//226 153//226 152//226
f 152//226 151//226 101//226
f 101//226 151//226 150//226
f 101//226 150//226 149//226
f 149//226 148//226 101//226
f 101//226 148//226 147//226
f 101//226 147//226 146//226
f 146//226 145//226 101//226
f 101//226 145//226 144//226
f 101//226 144//226 143//226
f 143//226 142//226 101//226
f 101//226 142//226 141//226
f 101//226 141//226 140//226
usemtl mat1
f 1//1 2//1 3//1
# Vertices: 176, normals: 226, texture coordinates: 0, faces: 348

