# File generated by ImageToStl.com - Free Image and 3D model conversion tools

mtllib L_Middle_F_1.mtl

o obj1
v 50 3 50
v 49.4941597 3 49.97434616
v 55 3 50
v 50 3 40
v 55 3 40
v 48.99350739 3 49.89765167
v 49.4941597 3 40.02565384
v 48.99350739 3 40.10235214
v 48.50318527 3 49.77069473
v 48.50318527 3 40.22930527
v 48.02822113 3 49.5947876
v 48.02822113 3 40.4052124
v 47.57349014 3 49.37173462
v 47.57349014 3 40.62826538
v 47.1436615 3 49.10381699
v 47.1436615 3 40.89618301
v 46.74313736 3 48.79379272
v 46.74313736 3 41.20621109
v 46.3760376 3 41.55516434
v 46.3760376 3 48.44483566
v 46.0461235 3 41.9394722
v 46.0461235 3 48.06053162
v 45.75677872 3 42.35517883
v 45.75677872 3 47.64482117
v 45.5109787 3 42.79803085
v 45.5109787 3 47.20196915
v 45.31124115 3 43.26347351
v 45.31124115 3 46.73652649
v 45.15961456 3 43.74673843
v 45.15961456 3 46.25326157
v 45.05765915 3 44.2428627
v 45.05765915 3 45.7571373
v 45.00641632 3 44.74675369
v 45.00641632 3 45.25324631
v 50 7 50
v 49.4941597 7 49.97434616
v 48.99350739 7 49.89765167
v 48.50318527 7 49.77069473
v 48.02822113 7 49.5947876
v 47.57349014 7 49.37173462
v 47.1436615 7 49.10381699
v 46.74313736 7 48.79379272
v 46.3760376 7 48.44483566
v 46.0461235 7 48.06053162
v 45.75677872 7 47.64482117
v 45.5109787 7 47.20196915
v 45.31124115 7 46.73652649
v 45.15961456 7 46.25326157
v 45.05765915 7 45.7571373
v 45.00641632 7 45.25324631
v 45.00641632 7 44.74675369
v 45.05765915 7 44.2428627
v 45.15961456 7 43.74673843
v 45.31124115 7 43.26347351
v 45.5109787 7 42.79803085
v 45.75677872 7 42.35517883
v 46.0461235 7 41.9394722
v 46.3760376 7 41.55516434
v 46.74313736 7 41.20621109
v 47.1436615 7 40.89618301
v 47.57349014 7 40.62826538
v 48.02822113 7 40.4052124
v 48.50318527 7 40.22930527
v 48.99350739 7 40.10235214
v 49.4941597 7 40.02565384
v 50 7 40
v 55 7 40
v 75 7 40
v 75 3 40
v 55 10 40
v 80 10 40
v 80 7 40
v 80 3 40
v 80 0 40
v 55 0 40
v 80.50584412 10 49.97434616
v 81.00649261 10 49.89765167
v 80 10 50
v 81.49681854 10 49.77069473
v 81.97177887 10 49.5947876
v 82.42650604 10 49.37173462
v 82.8563385 10 49.10381699
v 83.25685883 10 48.79379272
v 83.6239624 10 48.44483566
v 83.95388031 10 48.06053162
v 84.2432251 10 47.64482117
v 84.4890213 10 47.20196915
v 84.68875885 10 46.73652649
v 55 10 50
v 84.84038544 10 46.25326157
v 84.94234467 10 45.7571373
v 84.99358368 10 45.25324631
v 84.99358368 10 44.74675369
v 84.94234467 10 44.2428627
v 84.84038544 10 43.74673843
v 84.68875885 10 43.26347351
v 84.4890213 10 42.79803085
v 84.2432251 10 42.35517883
v 83.95388031 10 41.9394722
v 83.6239624 10 41.55516434
v 83.25685883 10 41.20621109
v 82.8563385 10 40.89618301
v 82.42650604 10 40.62826538
v 81.97177887 10 40.4052124
v 81.49681854 10 40.22930527
v 81.00649261 10 40.10235214
v 80.50584412 10 40.02565384
v 80.50584412 7 40.02565384
v 81.00649261 7 40.10235214
v 81.49681854 7 40.22930527
v 81.97177887 7 40.4052124
v 82.42650604 7 40.62826538
v 82.8563385 7 40.89618301
v 83.25685883 7 41.20621109
v 83.6239624 7 41.55516434
v 83.95388031 7 41.9394722
v 84.2432251 7 42.35517883
v 84.4890213 7 42.79803085
v 84.68875885 7 43.26347351
v 84.84038544 7 43.74673843
v 84.94234467 7 44.2428627
v 84.99358368 7 44.74675369
v 84.99358368 7 45.25324631
v 84.94234467 7 45.7571373
v 84.84038544 7 46.25326157
v 84.68875885 7 46.73652649
v 84.4890213 7 47.20196915
v 84.2432251 7 47.64482117
v 83.95388031 7 48.06053162
v 83.6239624 7 48.44483566
v 83.25685883 7 48.79379272
v 82.8563385 7 49.10381699
v 82.42650604 7 49.37173462
v 81.97177887 7 49.5947876
v 81.49681854 7 49.77069473
v 81.00649261 7 49.89765167
v 80.50584412 7 49.97434616
v 80 7 50
v 80 3 50
v 80.50584412 3 49.97434616
v 75 3 50
v 81.00649261 3 49.89765167
v 80.50584412 3 40.02565384
v 81.00649261 3 40.10235214
v 81.49681854 3 49.77069473
v 81.49681854 3 40.22930527
v 81.97177887 3 49.5947876
v 81.97177887 3 40.4052124
v 82.42650604 3 49.37173462
v 82.42650604 3 40.62826538
v 82.8563385 3 49.10381699
v 82.8563385 3 40.89618301
v 83.25685883 3 48.79379272
v 83.25685883 3 41.20621109
v 83.6239624 3 41.55516434
v 83.6239624 3 48.44483566
v 83.95388031 3 41.9394722
v 83.95388031 3 48.06053162
v 84.2432251 3 42.35517883
v 84.2432251 3 47.64482117
v 84.4890213 3 42.79803085
v 84.4890213 3 47.20196915
v 84.68875885 3 43.26347351
v 84.68875885 3 46.73652649
v 84.84038544 3 43.74673843
v 84.84038544 3 46.25326157
v 84.94234467 3 44.2428627
v 84.94234467 3 45.7571373
v 84.99358368 3 44.74675369
v 84.99358368 3 45.25324631
v 80 0 50
v 80.50584412 0 49.97434616
v 81.00649261 0 49.89765167
v 81.49681854 0 49.77069473
v 81.97177887 0 49.5947876
v 82.42650604 0 49.37173462
v 82.8563385 0 49.10381699
v 83.25685883 0 48.79379272
v 83.6239624 0 48.44483566
v 83.95388031 0 48.06053162
v 84.2432251 0 47.64482117
v 84.4890213 0 47.20196915
v 84.68875885 0 46.73652649
v 84.84038544 0 46.25326157
v 84.94234467 0 45.7571373
v 84.99358368 0 45.25324631
v 84.99358368 0 44.74675369
v 84.94234467 0 44.2428627
v 84.84038544 0 43.74673843
v 84.68875885 0 43.26347351
v 84.4890213 0 42.79803085
v 84.2432251 0 42.35517883
v 83.95388031 0 41.9394722
v 83.6239624 0 41.55516434
v 83.25685883 0 41.20621109
v 82.8563385 0 40.89618301
v 82.42650604 0 40.62826538
v 81.97177887 0 40.4052124
v 81.49681854 0 40.22930527
v 81.00649261 0 40.10235214
v 80.50584412 0 40.02565384
v 55 0 50
v 75 7 50
v 55 7 50
vn 0 -1 0
vn 0 -1 0
vn 0 -1 0
vn -0 -1 0
vn 0 -1 0
vn 0 -1 0
vn -0 -1 0
vn 0 -1 0
vn -0 -1 0
vn 0 -1 0
vn -0 -1 0
vn 0 -1 0
vn -0 -1 0
vn 0 -1 0
vn -0 -1 0
vn 0 -1 0
vn 0 -1 0
vn -0 -1 0
vn 0 -1 0
vn -0 -1 0
vn 0 -1 0
vn -0 -1 0
vn 0 -1 0
vn -0 -1 0
vn 0 -1 0
vn -0 -1 0
vn 0 -1 0
vn -0 -1 0
vn 0 -1 0
vn -0 -1 0
vn -0 -1 0
vn 0 -1 0
vn -0.05065 0 0.99872
vn -0.15143 0 0.98847
vn -0.25065 0 0.96808
vn -0.34731 0 0.93775
vn -0.44039 0 0.8978
vn -0.52896 0 0.84864
vn -0.61211 0 0.79078
vn -0.68897 0 0.72479
vn -0.75876 0 0.65137
vn -0.82076 0 0.57127
vn -0.87435 0 0.4853
vn -0.87435 0 0.4853
vn -0.91896 -0 0.39436
vn -0.91896 0 0.39436
vn -0.95414 0 0.29936
vn -0.97953 0 0.2013
vn -0.99487 0 0.10117
vn -1 0 -0
vn -0.99487 0 -0.10117
vn -0.97953 0 -0.2013
vn -0.95414 0 -0.29936
vn -0.91896 0 -0.39436
vn -0.91896 0 -0.39436
vn -0.87435 0 -0.4853
vn -0.87435 0 -0.4853
vn -0.82076 0 -0.57127
vn -0.75876 0 -0.65137
vn -0.68897 0 -0.72479
vn -0.61211 0 -0.79078
vn -0.52896 0 -0.84864
vn -0.44039 0 -0.8978
vn -0.34731 0 -0.93775
vn -0.25065 0 -0.96808
vn -0.15143 0 -0.98847
vn -0.05065 0 -0.99872
vn 0 0 -1
vn 0 1 0
vn -0 1 -0
vn -0 1 0
vn -0 1 0
vn -0 1 0
vn 0 1 -0
vn -0 1 0
vn -0 1 0
vn -0 1 0
vn -0 1 0
vn -0 1 0
vn -0 1 0
vn -0 1 0
vn -0 1 0
vn -0 1 0
vn -0 1 0
vn -0 1 0
vn 0.05065 0 -0.99872
vn 0.15143 0 -0.98847
vn 0.25065 0 -0.96808
vn 0.34731 0 -0.93775
vn 0.44039 0 -0.8978
vn 0.52896 0 -0.84864
vn 0.61211 0 -0.79078
vn 0.68897 0 -0.72479
vn 0.75876 0 -0.65137
vn 0.82076 0 -0.57127
vn 0.87435 0 -0.4853
vn 0.87435 0 -0.4853
vn 0.91896 0 -0.39436
vn 0.91896 0 -0.39436
vn 0.95414 0 -0.29936
vn 0.97953 0 -0.2013
vn 0.99487 0 -0.10117
vn 1 0 0
vn 0.99487 -0 0.10117
vn 0.97953 -0 0.2013
vn 0.95414 -0 0.29936
vn 0.91896 -0 0.39436
vn 0.91896 -0 0.39436
vn 0.87435 -0 0.4853
vn 0.87435 -0 0.4853
vn 0.82076 -0 0.57127
vn 0.75876 -0 0.65137
vn 0.68897 -0 0.72479
vn 0.61211 -0 0.79078
vn 0.52896 -0 0.84864
vn 0.44039 -0 0.8978
vn 0.34731 -0 0.93775
vn 0.25065 -0 0.96808
vn 0.15143 -0 0.98847
vn 0.05065 -0 0.99872
vn 0 1 -0
vn 0 1 -0
vn 0 1 -0
vn -0 1 -0
vn 0 1 -0
vn 0 1 -0
vn -0 1 -0
vn 0 1 -0
vn -0 1 -0
vn 0 1 -0
vn -0 1 -0
vn 0 1 -0
vn -0 1 -0
vn 0 1 -0
vn -0 1 -0
vn 0 1 -0
vn 0 1 -0
vn -0 1 -0
vn 0 1 -0
vn -0 1 -0
vn 0 1 -0
vn -0 1 -0
vn 0 1 -0
vn -0 1 -0
vn 0 1 -0
vn -0 1 -0
vn 0 1 -0
vn -0 1 -0
vn 0 1 -0
vn -0 1 -0
vn -0 1 -0
vn 0 1 -0
vn 0.05065 0 0.99872
vn 0.15143 0 0.98847
vn 0.15143 -0 0.98847
vn 0.25065 -0 0.96808
vn 0.25065 -0 0.96808
vn 0.34731 -0 0.93775
vn 0.44039 0 0.8978
vn 0.52896 0 0.84864
vn 0.61211 0 0.79078
vn 0.87435 -0 0.4853
vn 0.99487 0 0.10117
vn 0.99487 -0 -0.10117
vn 0.87435 0 -0.4853
vn 0.61211 -0 -0.79078
vn 0.52896 -0 -0.84864
vn 0.44039 -0 -0.8978
vn 0.34731 0 -0.93775
vn 0.25065 0 -0.96808
vn 0.25065 0 -0.96808
vn 0.15143 0 -0.98847
vn 0.15143 -0 -0.98847
vn 0.05065 -0 -0.99872
vn 0 -1 -0
vn 0 -1 -0
vn 0 -1 -0
vn 0 -1 -0
vn 0 -1 -0
vn 0 -1 -0
vn 0 -1 -0
vn 0 -1 -0
vn 0 -1 -0
vn 0 -1 -0
vn 0 -1 -0
vn 0 -1 0
vn 0 -1 0
vn 0 -1 0
vn 0 -1 0
vn 0 -1 0
vn 0 -1 0
vn 0 -1 0
vn 0 -1 0
vn 0 -1 0
vn 0 -1 -0
vn 0 -1 0
vn 0 -1 0
vn 0 -1 0
vn 0 -1 0
vn 0 -1 0
vn 0 -1 0
vn 0 -1 0
vn 0 -1 0
vn 0 -1 0
vn 0 -1 0
vn 0 -1 0
vn 0 -1 -0
vn 0 -1 0
vn 0 -1 0
vn 0 -1 -0
vn -1 -0 0
vn -1 -0 0
vn 0 1 -0
vn 0 1 -0
vn 0 1 -0
vn -1 0 -0
vn -1 0 -0
vn 0 0 1
usemtl mat2
f 3//2 2//2 4//2
f 3//3 4//3 5//3
f 2//4 6//4 4//4
f 4//5 6//5 7//5
f 7//6 6//6 8//6
f 8//7 6//7 9//7
f 8//8 9//8 10//8
f 10//9 9//9 11//9
f 10//10 11//10 12//10
f 12//11 11//11 13//11
f 12//12 13//12 14//12
f 14//13 13//13 15//13
f 14//14 15//14 16//14
f 16//15 15//15 17//15
f 16//16 17//16 18//16
f 18//17 17//17 19//17
f 19//18 17//18 20//18
f 19//19 20//19 21//19
f 21//20 20//20 22//20
f 21//21 22//21 23//21
f 23//22 22//22 24//22
f 23//23 24//23 25//23
f 25//24 24//24 26//24
f 25//25 26//25 27//25
f 27//26 26//26 28//26
f 27//27 28//27 29//27
f 29//28 28//28 30//28
f 29//29 30//29 31//29
f 31//30 30//30 32//30
f 31//31 32//31 33//31
f 33//32 32//32 34//32
f 1//33 35//33 2//33
f 2//33 35//33 36//33
f 2//34 36//34 6//34
f 6//34 36//34 37//34
f 6//35 37//35 9//35
f 9//35 37//35 38//35
f 9//36 38//36 11//36
f 11//36 38//36 39//36
f 11//37 39//37 13//37
f 13//37 39//37 40//37
f 13//38 40//38 15//38
f 15//38 40//38 41//38
f 15//39 41//39 17//39
f 17//39 41//39 42//39
f 17//40 42//40 20//40
f 20//40 42//40 43//40
f 20//41 43//41 22//41
f 22//41 43//41 44//41
f 22//42 44//42 24//42
f 24//42 44//42 45//42
f 24//43 45//43 26//43
f 26//44 45//44 46//44
f 26//45 46//45 28//45
f 28//46 46//46 47//46
f 28//47 47//47 30//47
f 30//47 47//47 48//47
f 30//48 48//48 32//48
f 32//48 48//48 49//48
f 32//49 49//49 34//49
f 34//49 49//49 50//49
f 34//50 50//50 33//50
f 33//50 50//50 51//50
f 33//51 51//51 31//51
f 31//51 51//51 52//51
f 31//52 52//52 29//52
f 29//52 52//52 53//52
f 29//53 53//53 27//53
f 27//53 53//53 54//53
f 27//54 54//54 25//54
f 25//55 54//55 55//55
f 25//56 55//56 23//56
f 23//57 55//57 56//57
f 23//58 56//58 21//58
f 21//58 56//58 57//58
f 21//59 57//59 19//59
f 19//59 57//59 58//59
f 19//60 58//60 18//60
f 18//60 58//60 59//60
f 18//61 59//61 16//61
f 16//61 59//61 60//61
f 16//62 60//62 14//62
f 14//62 60//62 61//62
f 14//63 61//63 12//63
f 12//63 61//63 62//63
f 12//64 62//64 10//64
f 10//64 62//64 63//64
f 10//65 63//65 8//65
f 8//65 63//65 64//65
f 8//66 64//66 7//66
f 7//66 64//66 65//66
f 7//67 65//67 4//67
f 4//67 65//67 66//67
f 66//68 67//68 4//68
f 4//68 67//68 5//68
f 5//68 67//68 68//68
f 5//68 68//68 69//68
f 67//68 70//68 68//68
f 68//68 70//68 71//68
f 68//68 71//68 72//68
f 73//68 74//68 69//68
f 69//68 74//68 75//68
f 69//68 75//68 5//68
f 76//69 77//69 78//69
f 78//69 77//69 79//69
f 78//69 79//69 80//69
f 80//69 81//69 78//69
f 78//69 81//69 82//69
f 78//69 82//69 83//69
f 83//69 84//69 78//69
f 78//69 84//69 85//69
f 78//69 85//69 86//69
f 86//69 87//69 78//69
f 78//69 87//69 88//69
f 78//69 88//69 89//69
f 89//69 88//69 90//69
f 89//69 90//69 91//69
f 91//69 92//69 89//69
f 89//69 92//69 93//69
f 89//70 93//70 70//70
f 70//71 93//71 94//71
f 70//72 94//72 95//72
f 95//73 96//73 70//73
f 70//74 96//74 71//74
f 71//75 96//75 97//75
f 71//76 97//76 98//76
f 98//77 99//77 71//77
f 71//78 99//78 100//78
f 71//79 100//79 101//79
f 101//80 102//80 71//80
f 71//81 102//81 103//81
f 71//82 103//82 104//82
f 104//83 105//83 71//83
f 71//84 105//84 106//84
f 71//85 106//85 107//85
f 72//86 71//86 108//86
f 108//86 71//86 107//86
f 108//87 107//87 109//87
f 109//87 107//87 106//87
f 109//88 106//88 110//88
f 110//88 106//88 105//88
f 110//89 105//89 111//89
f 111//89 105//89 104//89
f 111//90 104//90 112//90
f 112//90 104//90 103//90
f 112//91 103//91 113//91
f 113//91 103//91 102//91
f 113//92 102//92 114//92
f 114//92 102//92 101//92
f 114//93 101//93 115//93
f 115//93 101//93 100//93
f 115//94 100//94 116//94
f 116//94 100//94 99//94
f 116//95 99//95 117//95
f 117//95 99//95 98//95
f 117//96 98//96 118//96
f 118//97 98//97 97//97
f 118//98 97//98 119//98
f 119//99 97//99 96//99
f 119//100 96//100 120//100
f 120//100 96//100 95//100
f 120//101 95//101 121//101
f 121//101 95//101 94//101
f 121//102 94//102 122//102
f 122//102 94//102 93//102
f 122//103 93//103 123//103
f 123//103 93//103 92//103
f 123//104 92//104 124//104
f 124//104 92//104 91//104
f 124//105 91//105 125//105
f 125//105 91//105 90//105
f 125//106 90//106 126//106
f 126//106 90//106 88//106
f 126//107 88//107 127//107
f 127//108 88//108 87//108
f 127//109 87//109 128//109
f 128//110 87//110 86//110
f 128//111 86//111 129//111
f 129//111 86//111 85//111
f 129//112 85//112 130//112
f 130//112 85//112 84//112
f 130//113 84//113 131//113
f 131//113 84//113 83//113
f 131//114 83//114 132//114
f 132//114 83//114 82//114
f 132//115 82//115 133//115
f 133//115 82//115 81//115
f 133//116 81//116 134//116
f 134//116 81//116 80//116
f 134//117 80//117 135//117
f 135//117 80//117 79//117
f 135//118 79//118 136//118
f 136//118 79//118 77//118
f 136//119 77//119 137//119
f 137//119 77//119 76//119
f 137//120 76//120 138//120
f 138//120 76//120 78//120
f 139//121 140//121 141//121
f 141//122 140//122 73//122
f 141//123 73//123 69//123
f 140//124 142//124 73//124
f 73//125 142//125 143//125
f 143//126 142//126 144//126
f 144//127 142//127 145//127
f 144//128 145//128 146//128
f 146//129 145//129 147//129
f 146//130 147//130 148//130
f 148//131 147//131 149//131
f 148//132 149//132 150//132
f 150//133 149//133 151//133
f 150//134 151//134 152//134
f 152//135 151//135 153//135
f 152//136 153//136 154//136
f 154//137 153//137 155//137
f 155//138 153//138 156//138
f 155//139 156//139 157//139
f 157//140 156//140 158//140
f 157//141 158//141 159//141
f 159//142 158//142 160//142
f 159//143 160//143 161//143
f 161//144 160//144 162//144
f 161//145 162//145 163//145
f 163//146 162//146 164//146
f 163//147 164//147 165//147
f 165//148 164//148 166//148
f 165//149 166//149 167//149
f 167//150 166//150 168//150
f 167//151 168//151 169//151
f 169//152 168//152 170//152
f 139//120 171//120 140//120
f 140//153 171//153 172//153
f 140//154 172//154 142//154
f 142//155 172//155 173//155
f 142//156 173//156 145//156
f 145//157 173//157 174//157
f 145//158 174//158 147//158
f 147//117 174//117 175//117
f 147//116 175//116 149//116
f 149//159 175//159 176//159
f 149//160 176//160 151//160
f 151//160 176//160 177//160
f 151//161 177//161 153//161
f 153//114 177//114 178//114
f 153//113 178//113 156//113
f 156//113 178//113 179//113
f 156//112 179//112 158//112
f 158//112 179//112 180//112
f 158//111 180//111 160//111
f 160//111 180//111 181//111
f 160//110 181//110 162//110
f 162//162 181//162 182//162
f 162//108 182//108 164//108
f 164//107 182//107 183//107
f 164//106 183//106 166//106
f 166//106 183//106 184//106
f 166//105 184//105 168//105
f 168//105 184//105 185//105
f 168//104 185//104 170//104
f 170//163 185//163 186//163
f 170//103 186//103 169//103
f 169//103 186//103 187//103
f 169//164 187//164 167//164
f 167//102 187//102 188//102
f 167//101 188//101 165//101
f 165//101 188//101 189//101
f 165//100 189//100 163//100
f 163//100 189//100 190//100
f 163//99 190//99 161//99
f 161//98 190//98 191//98
f 161//165 191//165 159//165
f 159//96 191//96 192//96
f 159//95 192//95 157//95
f 157//95 192//95 193//95
f 157//94 193//94 155//94
f 155//94 193//94 194//94
f 155//93 194//93 154//93
f 154//93 194//93 195//93
f 154//92 195//92 152//92
f 152//166 195//166 196//166
f 152//167 196//167 150//167
f 150//167 196//167 197//167
f 150//168 197//168 148//168
f 148//90 197//90 198//90
f 148//89 198//89 146//89
f 146//169 198//169 199//169
f 146//170 199//170 144//170
f 144//171 199//171 200//171
f 144//172 200//172 143//172
f 143//173 200//173 201//173
f 143//174 201//174 73//174
f 73//86 201//86 74//86
f 201//175 200//175 74//175
f 74//176 200//176 199//176
f 74//177 199//177 198//177
f 198//178 197//178 74//178
f 74//179 197//179 196//179
f 74//180 196//180 195//180
f 195//181 194//181 74//181
f 74//182 194//182 193//182
f 74//183 193//183 192//183
f 192//184 191//184 74//184
f 74//185 191//185 190//185
f 74//186 190//186 75//186
f 75//187 190//187 189//187
f 75//188 189//188 188//188
f 188//189 187//189 75//189
f 75//190 187//190 202//190
f 202//191 187//191 186//191
f 202//192 186//192 185//192
f 185//193 184//193 202//193
f 202//194 184//194 183//194
f 202//195 183//195 171//195
f 171//196 183//196 182//196
f 171//197 182//197 181//197
f 181//198 180//198 171//198
f 171//199 180//199 179//199
f 171//200 179//200 178//200
f 178//201 177//201 171//201
f 171//202 177//202 176//202
f 171//203 176//203 175//203
f 175//204 174//204 171//204
f 171//205 174//205 173//205
f 171//206 173//206 172//206
f 203//103 141//103 68//103
f 68//103 141//103 69//103
f 108//207 137//207 72//207
f 72//208 137//208 203//208
f 72//209 203//209 68//209
f 137//210 108//210 136//210
f 136//210 108//210 109//210
f 136//210 109//210 135//210
f 135//210 109//210 110//210
f 135//210 110//210 134//210
f 134//210 110//210 111//210
f 134//210 111//210 133//210
f 133//210 111//210 112//210
f 133//210 112//210 132//210
f 132//210 112//210 113//210
f 132//210 113//210 131//210
f 131//210 113//210 114//210
f 131//210 114//210 115//210
f 131//210 115//210 130//210
f 130//210 115//210 116//210
f 130//210 116//210 129//210
f 129//210 116//210 117//210
f 129//210 117//210 128//210
f 128//210 117//210 118//210
f 128//210 118//210 127//210
f 127//210 118//210 119//210
f 127//210 119//210 126//210
f 126//210 119//210 120//210
f 126//210 120//210 125//210
f 125//210 120//210 121//210
f 125//210 121//210 124//210
f 124//210 121//210 122//210
f 124//210 122//210 123//210
f 137//210 138//210 203//210
f 204//211 89//211 67//211
f 67//212 89//212 70//212
f 65//213 36//213 66//213
f 66//214 36//214 204//214
f 66//215 204//215 67//215
f 36//69 65//69 37//69
f 37//69 65//69 64//69
f 37//69 64//69 38//69
f 38//69 64//69 63//69
f 38//69 63//69 39//69
f 39//69 63//69 62//69
f 39//69 62//69 40//69
f 40//69 62//69 61//69
f 40//69 61//69 41//69
f 41//69 61//69 60//69
f 41//69 60//69 42//69
f 42//69 60//69 59//69
f 42//69 59//69 58//69
f 42//69 58//69 43//69
f 43//69 58//69 57//69
f 43//69 57//69 44//69
f 44//69 57//69 56//69
f 44//69 56//69 45//69
f 45//69 56//69 55//69
f 45//69 55//69 46//69
f 46//69 55//69 54//69
f 46//69 54//69 47//69
f 47//69 54//69 53//69
f 47//69 53//69 48//69
f 48//69 53//69 52//69
f 48//69 52//69 49//69
f 49//69 52//69 51//69
f 49//69 51//69 50//69
f 36//69 35//69 204//69
f 202//216 3//216 75//216
f 75//217 3//217 5//217
f 1//218 3//218 35//218
f 35//218 3//218 204//218
f 204//218 3//218 141//218
f 204//218 141//218 203//218
f 3//218 202//218 141//218
f 141//218 202//218 171//218
f 141//218 171//218 139//218
f 138//218 78//218 203//218
f 203//218 78//218 89//218
f 203//218 89//218 204//218
usemtl mat1
f 1//1 2//1 3//1
# Vertices: 204, normals: 218, texture coordinates: 0, faces: 404

