# File generated by ImageToStl.com - Free Image and 3D model conversion tools

mtllib L_Proximal_F_1.mtl

o obj1
v 50.60268402 10 49.96354294
v 51.19657898 10 49.85470963
v 50 10 50
v 51.77302551 10 49.67508316
v 52.32361603 10 49.42728043
v 52.8403244 10 49.11491776
v 53.31561279 10 48.74255371
v 53.74255371 10 48.31561279
v 54.11491776 10 47.8403244
v 5 10 50
v 54.42728043 10 47.32361603
v 54.67507935 10 46.77302551
v 54.85470963 10 46.19657898
v 54.96354294 10 45.60268402
v 55 10 45
v 5 10 40
v 54.96354294 10 44.39731598
v 54.85470963 10 43.80342102
v 54.67507935 10 43.22697449
v 54.42728043 10 42.67638397
v 54.11491776 10 42.1596756
v 50 10 40
v 53.74255371 10 41.68438721
v 53.31561279 10 41.25744629
v 52.8403244 10 40.88508224
v 52.32361603 10 40.57271957
v 51.77302551 10 40.32492065
v 51.19657898 10 40.14529037
v 50.60268402 10 40.03645706
v 50 7 40
v 50.60268402 7 40.03645706
v 51.19657898 7 40.14529037
v 51.77302551 7 40.32492065
v 52.32361603 7 40.57271957
v 52.8403244 7 40.88508224
v 53.31561279 7 41.25744629
v 53.74255371 7 41.68438721
v 54.11491776 7 42.1596756
v 54.42728043 7 42.67638397
v 54.67507935 7 43.22697449
v 54.85470963 7 43.80342102
v 54.96354294 7 44.39731598
v 55 7 45
v 54.96354294 7 45.60268402
v 54.85470963 7 46.19657898
v 54.67507935 7 46.77302551
v 54.42728043 7 47.32361603
v 54.11491776 7 47.8403244
v 53.74255371 7 48.31561279
v 53.31561279 7 48.74255371
v 52.8403244 7 49.11491776
v 52.32361603 7 49.42728043
v 51.77302551 7 49.67508316
v 51.19657898 7 49.85470963
v 50.60268402 7 49.96354294
v 50 7 50
v 45 7 40
v 5 7 40
v 5 3 40
v -7E-08 3 40
v 45 3 40
v 5 -1.5E-07 40
v 50 0 40
v 50 3 40
v -7E-08 7 40
v 45 3 50
v 50 3 50
v 50.60268402 3 49.96354294
v 50.60268402 3 40.03645706
v 51.19657898 3 49.85470963
v 51.19657898 3 40.14529037
v 51.77302551 3 49.67508316
v 51.77302551 3 40.32492065
v 52.32361603 3 49.42728043
v 52.32361603 3 40.57271957
v 52.8403244 3 49.11491776
v 52.8403244 3 40.88508224
v 53.31561279 3 48.74255371
v 53.31561279 3 41.25744629
v 53.74255371 3 41.68438721
v 53.74255371 3 48.31561279
v 54.11491776 3 42.1596756
v 54.11491776 3 47.8403244
v 54.42728043 3 42.67638397
v 54.42728043 3 47.32361603
v 54.67507935 3 43.22697449
v 54.67507935 3 46.77302551
v 54.85470963 3 43.80342102
v 54.85470963 3 46.19657898
v 54.96354294 3 44.39731598
v 54.96354294 3 45.60268402
v 55 3 45
v 50 0 50
v 50.60268402 0 49.96354294
v 51.19657898 0 49.85470963
v 51.77302551 0 49.67508316
v 52.32361603 0 49.42728043
v 52.8403244 0 49.11491776
v 53.31561279 0 48.74255371
v 53.74255371 0 48.31561279
v 54.11491776 0 47.8403244
v 54.42728043 0 47.32361603
v 54.67507935 0 46.77302551
v 54.85470963 0 46.19657898
v 54.96354294 0 45.60268402
v 55 0 45
v 54.96354294 0 44.39731598
v 54.85470963 0 43.80342102
v 54.67507935 0 43.22697449
v 54.42728043 0 42.67638397
v 54.11491776 0 42.1596756
v 53.74255371 0 41.68438721
v 53.31561279 0 41.25744629
v 52.8403244 0 40.88508224
v 52.32361603 0 40.57271957
v 51.77302551 0 40.32492065
v 51.19657898 0 40.14529037
v 50.60268402 0 40.03645706
v 5 3 50
v -7E-08 3 50
v -0.60268348 3 49.96354294
v -1.19657838 3 49.85470963
v -1.77302456 3 49.67508316
v -2.32361603 3 49.42728043
v -2.84032393 3 49.11491776
v -3.31561327 3 48.74255371
v -0.60268348 3 40.03645706
v -1.19657838 3 40.14529037
v -1.77302456 3 40.32492065
v -2.32361603 3 40.57271957
v -2.84032393 3 40.88508224
v -3.31561327 3 41.25744629
v -3.74255371 3 41.68438721
v -4.11491919 3 42.1596756
v -4.42728043 3 42.67638397
v -4.67508125 3 43.22697449
v -4.85470915 3 43.80342102
v -4.96354437 3 44.39731598
v -5 3 45
v -4.96354437 3 45.60268402
v -4.85470915 3 46.19657898
v -4.67508125 3 46.77302551
v -4.42728043 3 47.32361603
v -4.11491919 3 47.8403244
v -3.74255371 3 48.31561279
v -7E-08 7 50
v -0.60268348 7 49.96354294
v -1.19657838 7 49.85470963
v -1.77302456 7 49.67508316
v -2.32361603 7 49.42728043
v -2.84032393 7 49.11491776
v -3.31561327 7 48.74255371
v -3.74255371 7 48.31561279
v -4.11491919 7 47.8403244
v -4.42728043 7 47.32361603
v -4.67508125 7 46.77302551
v -4.85470915 7 46.19657898
v -4.96354437 7 45.60268402
v -5 7 45
v -4.96354437 7 44.39731598
v -4.85470915 7 43.80342102
v -4.67508125 7 43.22697449
v -4.42728043 7 42.67638397
v -4.11491919 7 42.1596756
v -3.74255371 7 41.68438721
v -3.31561327 7 41.25744629
v -2.84032393 7 40.88508224
v -2.32361603 7 40.57271957
v -1.77302456 7 40.32492065
v -1.19657838 7 40.14529037
v -0.60268348 7 40.03645706
v 5 7 50
v 5 -1.5E-07 50
v 45 7 50
vn 0 1 0
vn -0 1 -0
vn -0 1 0
vn -0 1 0
vn -0 1 0
vn -0 1 0
vn -0 1 0
vn 0 1 -0
vn -0 1 0
vn -0 1 0
vn -0 1 0
vn -0 1 0
vn -0 1 0
vn -0 1 0
vn -0 1 0
vn 0.06038 0 -0.99818
vn 0.18026 0 -0.98362
vn 0.18026 0 -0.98362
vn 0.2975 0 -0.95472
vn 0.2975 0 -0.95472
vn 0.41041 0 -0.9119
vn 0.51734 0 -0.85578
vn 0.61672 0 -0.78718
vn 0.70711 0 -0.70711
vn 0.78718 0 -0.61672
vn 0.85578 0 -0.51734
vn 0.9119 0 -0.41041
vn 0.95472 0 -0.2975
vn 0.98362 0 -0.18026
vn 0.99818 0 -0.06038
vn 0.99818 -0 0.06038
vn 0.98362 -0 0.18026
vn 0.95472 -0 0.2975
vn 0.9119 -0 0.41041
vn 0.85578 -0 0.51734
vn 0.78718 -0 0.61672
vn 0.70711 -0 0.70711
vn 0.61672 -0 0.78718
vn 0.51734 -0 0.85578
vn 0.41041 -0 0.9119
vn 0.2975 -0 0.95472
vn 0.2975 -0 0.95472
vn 0.18026 -0 0.98362
vn 0.18026 -0 0.98362
vn 0.06038 -0 0.99818
vn 0 0 -1
vn 0 1 -0
vn 0 1 -0
vn 0 1 -0
vn -0 1 -0
vn 0 1 -0
vn -0 1 -0
vn 0 1 -0
vn -0 1 -0
vn 0 1 -0
vn -0 1 -0
vn 0 1 -0
vn -0 1 -0
vn 0 1 -0
vn 0 1 -0
vn -0 1 -0
vn 0 1 -0
vn -0 1 -0
vn 0 1 -0
vn -0 1 -0
vn 0 1 -0
vn -0 1 -0
vn 0 1 -0
vn -0 1 -0
vn 0 1 -0
vn -0 1 -0
vn 0 1 -0
vn 0.2975 -0 0.95472
vn 0.2975 0 -0.95472
vn 0 -1 0
vn 0 -1 0
vn -0 -1 0
vn -0 -1 0
vn -0 -1 0
vn -0 -1 0
vn -0 -1 0
vn 0 -1 0
vn 0 -1 0
vn 0 -1 0
vn 0 -1 0
vn 0 -1 0
vn 0 -1 0
vn 0 -1 0
vn 0 -1 0
vn 0 -1 0
vn 0 -1 0
vn 0 -1 0
vn 0 -1 0
vn -0 -1 0
vn -0 -1 0
vn 0 -1 0
vn -0.06038 0 0.99818
vn -0.06038 0 0.99818
vn -0.18026 0 0.98362
vn -0.18026 0 0.98362
vn -0.2975 0 0.95472
vn -0.2975 0 0.95472
vn -0.41041 0 0.9119
vn -0.41041 0 0.9119
vn -0.51734 0 0.85578
vn -0.61672 0 0.78718
vn -0.61672 0 0.78718
vn -0.70711 0 0.70711
vn -0.70711 0 0.70711
vn -0.78718 0 0.61672
vn -0.78718 0 0.61672
vn -0.85578 0 0.51734
vn -0.9119 0 0.41041
vn -0.95472 0 0.2975
vn -0.95472 -0 0.2975
vn -0.98362 -0 0.18026
vn -0.98362 0 0.18026
vn -0.99818 0 0.06038
vn -0.99818 0 0.06038
vn -0.99818 0 -0.06038
vn -0.99818 -0 -0.06038
vn -0.98362 -0 -0.18026
vn -0.98362 0 -0.18026
vn -0.95472 0 -0.2975
vn -0.95472 0 -0.2975
vn -0.9119 0 -0.41041
vn -0.85578 0 -0.51734
vn -0.78718 0 -0.61672
vn -0.78718 -0 -0.61672
vn -0.70711 -0 -0.70711
vn -0.70711 -0 -0.70711
vn -0.61672 -0 -0.78718
vn -0.61672 0 -0.78718
vn -0.51734 0 -0.85578
vn -0.41041 0 -0.9119
vn -0.41041 -0 -0.9119
vn -0.2975 -0 -0.95472
vn -0.2975 -0 -0.95472
vn -0.18026 -0 -0.98362
vn -0.18026 -0 -0.98362
vn -0.06038 -0 -0.99818
vn -0.06038 0 -0.99818
vn 0 1 0
vn 0 1 -0
vn 0 1 -0
vn 0 1 -0
vn 0 1 -0
vn 0 1 -0
vn 0 1 -0
vn 0 1 -0
vn -1 0 -0
vn 0 -1 -0
vn 0 -1 -0
vn 0 -1 -0
vn 0 -1 -0
vn 0 -1 -0
vn 0 -1 -0
vn 0 -1 -0
vn 0 -1 -0
vn 0 -1 -0
vn 0 -1 -0
vn 0 -1 -0
vn 0 -1 -0
vn 0 -1 -0
vn 0 -1 0
vn 0 -1 0
vn 0 -1 0
vn 0 -1 0
vn 0 -1 0
vn 0 -1 0
vn 0 -1 0
vn 0 -1 0
vn 0 -1 0
vn 0 -1 0
vn 0 -1 0
vn 0 -1 0
vn 0 -1 0
vn 0 -1 0
vn 1 0 0
vn 0 -1 0
vn 0 -1 0
vn 0 -1 0
vn 0 -0 1
usemtl mat2
f 3//1 2//1 4//1
f 3//1 4//1 5//1
f 5//1 6//1 3//1
f 3//1 6//1 7//1
f 3//1 7//1 8//1
f 8//1 9//1 3//1
f 3//1 9//1 10//1
f 10//1 9//1 11//1
f 10//1 11//1 12//1
f 12//1 13//1 10//1
f 10//1 13//1 14//1
f 10//1 14//1 15//1
f 10//2 15//2 16//2
f 16//3 15//3 17//3
f 16//4 17//4 18//4
f 18//5 19//5 16//5
f 16//6 19//6 20//6
f 16//7 20//7 21//7
f 16//8 21//8 22//8
f 22//9 21//9 23//9
f 22//10 23//10 24//10
f 24//11 25//11 22//11
f 22//12 25//12 26//12
f 22//13 26//13 27//13
f 27//14 28//14 22//14
f 22//15 28//15 29//15
f 30//16 22//16 31//16
f 31//16 22//16 29//16
f 31//17 29//17 32//17
f 32//18 29//18 28//18
f 32//19 28//19 33//19
f 33//20 28//20 27//20
f 33//21 27//21 34//21
f 34//21 27//21 26//21
f 34//22 26//22 35//22
f 35//22 26//22 25//22
f 35//23 25//23 36//23
f 36//23 25//23 24//23
f 36//24 24//24 37//24
f 37//24 24//24 23//24
f 37//25 23//25 38//25
f 38//25 23//25 21//25
f 38//26 21//26 39//26
f 39//26 21//26 20//26
f 39//27 20//27 40//27
f 40//27 20//27 19//27
f 40//28 19//28 41//28
f 41//28 19//28 18//28
f 41//29 18//29 42//29
f 42//29 18//29 17//29
f 42//30 17//30 43//30
f 43//30 17//30 15//30
f 43//31 15//31 44//31
f 44//31 15//31 14//31
f 44//32 14//32 45//32
f 45//32 14//32 13//32
f 45//33 13//33 46//33
f 46//33 13//33 12//33
f 46//34 12//34 47//34
f 47//34 12//34 11//34
f 47//35 11//35 48//35
f 48//35 11//35 9//35
f 48//36 9//36 49//36
f 49//36 9//36 8//36
f 49//37 8//37 50//37
f 50//37 8//37 7//37
f 50//38 7//38 51//38
f 51//38 7//38 6//38
f 51//39 6//39 52//39
f 52//39 6//39 5//39
f 52//40 5//40 53//40
f 53//40 5//40 4//40
f 53//41 4//41 54//41
f 54//42 4//42 2//42
f 54//43 2//43 55//43
f 55//44 2//44 1//44
f 55//45 1//45 56//45
f 56//45 1//45 3//45
f 30//46 57//46 22//46
f 22//46 57//46 16//46
f 16//46 57//46 58//46
f 58//46 57//46 59//46
f 58//46 59//46 60//46
f 57//46 61//46 59//46
f 59//46 61//46 62//46
f 62//46 61//46 63//46
f 63//46 61//46 64//46
f 60//46 65//46 58//46
f 66//47 67//47 64//47
f 64//48 67//48 68//48
f 64//49 68//49 69//49
f 69//50 68//50 70//50
f 69//51 70//51 71//51
f 71//52 70//52 72//52
f 71//53 72//53 73//53
f 73//54 72//54 74//54
f 73//55 74//55 75//55
f 75//56 74//56 76//56
f 75//57 76//57 77//57
f 77//58 76//58 78//58
f 77//59 78//59 79//59
f 79//60 78//60 80//60
f 80//61 78//61 81//61
f 80//62 81//62 82//62
f 82//63 81//63 83//63
f 82//64 83//64 84//64
f 84//65 83//65 85//65
f 84//66 85//66 86//66
f 86//67 85//67 87//67
f 86//68 87//68 88//68
f 88//69 87//69 89//69
f 88//70 89//70 90//70
f 90//71 89//71 91//71
f 90//72 91//72 92//72
f 64//47 61//47 66//47
f 67//45 93//45 68//45
f 68//45 93//45 94//45
f 68//44 94//44 70//44
f 70//43 94//43 95//43
f 70//73 95//73 72//73
f 72//41 95//41 96//41
f 72//40 96//40 74//40
f 74//40 96//40 97//40
f 74//39 97//39 76//39
f 76//39 97//39 98//39
f 76//38 98//38 78//38
f 78//38 98//38 99//38
f 78//37 99//37 81//37
f 81//37 99//37 100//37
f 81//36 100//36 83//36
f 83//36 100//36 101//36
f 83//35 101//35 85//35
f 85//35 101//35 102//35
f 85//34 102//34 87//34
f 87//34 102//34 103//34
f 87//33 103//33 89//33
f 89//33 103//33 104//33
f 89//32 104//32 91//32
f 91//32 104//32 105//32
f 91//31 105//31 92//31
f 92//31 105//31 106//31
f 92//30 106//30 90//30
f 90//30 106//30 107//30
f 90//29 107//29 88//29
f 88//29 107//29 108//29
f 88//28 108//28 86//28
f 86//28 108//28 109//28
f 86//27 109//27 84//27
f 84//27 109//27 110//27
f 84//26 110//26 82//26
f 82//26 110//26 111//26
f 82//25 111//25 80//25
f 80//25 111//25 112//25
f 80//24 112//24 79//24
f 79//24 112//24 113//24
f 79//23 113//23 77//23
f 77//23 113//23 114//23
f 77//22 114//22 75//22
f 75//22 114//22 115//22
f 75//21 115//21 73//21
f 73//21 115//21 116//21
f 73//20 116//20 71//20
f 71//74 116//74 117//74
f 71//18 117//18 69//18
f 69//17 117//17 118//17
f 69//16 118//16 64//16
f 64//16 118//16 63//16
f 119//75 120//75 60//75
f 60//76 120//76 121//76
f 60//77 121//77 122//77
f 122//78 123//78 60//78
f 60//79 123//79 124//79
f 60//80 124//80 125//80
f 125//81 126//81 60//81
f 60//82 126//82 127//82
f 127//83 126//83 128//83
f 128//84 126//84 129//84
f 129//85 126//85 130//85
f 130//86 126//86 131//86
f 131//87 126//87 132//87
f 132//88 126//88 133//88
f 133//89 126//89 134//89
f 134//90 126//90 135//90
f 135//91 126//91 136//91
f 136//92 126//92 137//92
f 137//93 126//93 138//93
f 138//94 126//94 139//94
f 139//95 126//95 140//95
f 140//96 126//96 141//96
f 141//96 126//96 142//96
f 142//96 126//96 143//96
f 143//96 126//96 144//96
f 144//96 126//96 145//96
f 60//75 59//75 119//75
f 120//97 146//97 121//97
f 121//98 146//98 147//98
f 121//99 147//99 122//99
f 122//100 147//100 148//100
f 122//101 148//101 123//101
f 123//102 148//102 149//102
f 123//103 149//103 124//103
f 124//104 149//104 150//104
f 124//105 150//105 125//105
f 125//105 150//105 151//105
f 125//106 151//106 126//106
f 126//107 151//107 152//107
f 126//108 152//108 145//108
f 145//109 152//109 153//109
f 145//110 153//110 144//110
f 144//111 153//111 154//111
f 144//112 154//112 143//112
f 143//112 154//112 155//112
f 143//113 155//113 142//113
f 142//113 155//113 156//113
f 142//114 156//114 141//114
f 141//115 156//115 157//115
f 141//116 157//116 140//116
f 140//117 157//117 158//117
f 140//118 158//118 139//118
f 139//119 158//119 159//119
f 139//120 159//120 138//120
f 138//121 159//121 160//121
f 138//122 160//122 137//122
f 137//123 160//123 161//123
f 137//124 161//124 136//124
f 136//125 161//125 162//125
f 136//126 162//126 135//126
f 135//126 162//126 163//126
f 135//127 163//127 134//127
f 134//127 163//127 164//127
f 134//128 164//128 133//128
f 133//129 164//129 165//129
f 133//130 165//130 132//130
f 132//131 165//131 166//131
f 132//132 166//132 131//132
f 131//133 166//133 167//133
f 131//134 167//134 130//134
f 130//134 167//134 168//134
f 130//135 168//135 129//135
f 129//136 168//136 169//136
f 129//137 169//137 128//137
f 128//138 169//138 170//138
f 128//139 170//139 127//139
f 127//140 170//140 171//140
f 127//141 171//141 60//141
f 60//142 171//142 65//142
f 171//143 152//143 65//143
f 65//144 152//144 151//144
f 65//145 151//145 150//145
f 171//1 170//1 152//1
f 152//1 170//1 169//1
f 152//1 169//1 168//1
f 168//1 167//1 152//1
f 152//1 167//1 166//1
f 152//1 166//1 165//1
f 165//1 164//1 152//1
f 152//1 164//1 163//1
f 152//1 163//1 162//1
f 162//1 161//1 152//1
f 152//1 161//1 160//1
f 152//1 160//1 159//1
f 159//1 158//1 152//1
f 152//1 158//1 157//1
f 152//1 157//1 156//1
f 156//1 155//1 152//1
f 152//1 155//1 154//1
f 152//1 154//1 153//1
f 150//146 149//146 65//146
f 65//147 149//147 148//147
f 65//148 148//148 147//148
f 147//149 146//149 65//149
f 65//150 146//150 172//150
f 65//150 172//150 58//150
f 173//151 119//151 62//151
f 62//151 119//151 59//151
f 118//152 117//152 63//152
f 63//153 117//153 116//153
f 63//154 116//154 115//154
f 115//155 114//155 63//155
f 63//156 114//156 113//156
f 63//157 113//157 112//157
f 112//158 111//158 63//158
f 63//159 111//159 62//159
f 62//160 111//160 110//160
f 62//161 110//161 109//161
f 109//162 108//162 62//162
f 62//163 108//163 107//163
f 62//164 107//164 106//164
f 62//165 106//165 173//165
f 173//166 106//166 105//166
f 173//167 105//167 104//167
f 104//168 103//168 173//168
f 173//169 103//169 102//169
f 173//170 102//170 101//170
f 173//171 101//171 93//171
f 93//172 101//172 100//172
f 93//173 100//173 99//173
f 99//174 98//174 93//174
f 93//175 98//175 97//175
f 93//176 97//176 96//176
f 96//177 95//177 93//177
f 93//178 95//178 94//178
f 174//179 66//179 57//179
f 57//179 66//179 61//179
f 31//180 55//180 30//180
f 30//181 55//181 56//181
f 30//182 56//182 174//182
f 55//96 31//96 54//96
f 54//96 31//96 32//96
f 54//96 32//96 53//96
f 53//96 32//96 33//96
f 53//96 33//96 52//96
f 52//96 33//96 34//96
f 52//96 34//96 51//96
f 51//96 34//96 35//96
f 51//96 35//96 50//96
f 50//96 35//96 36//96
f 50//96 36//96 37//96
f 50//96 37//96 49//96
f 49//96 37//96 38//96
f 49//96 38//96 48//96
f 48//96 38//96 39//96
f 48//96 39//96 47//96
f 47//96 39//96 40//96
f 47//96 40//96 46//96
f 46//96 40//96 41//96
f 46//96 41//96 45//96
f 45//96 41//96 42//96
f 45//96 42//96 44//96
f 44//96 42//96 43//96
f 174//182 57//182 30//182
f 172//151 10//151 58//151
f 58//151 10//151 16//151
f 56//183 3//183 174//183
f 174//183 3//183 10//183
f 174//183 10//183 172//183
f 146//183 119//183 172//183
f 172//183 119//183 66//183
f 172//183 66//183 174//183
f 146//183 120//183 119//183
f 119//183 173//183 66//183
f 66//183 173//183 93//183
f 66//183 93//183 67//183
usemtl mat1
f 1//1 2//1 3//1
# Vertices: 174, normals: 183, texture coordinates: 0, faces: 344

