# File generated by ImageToStl.com - Free Image and 3D model conversion tools

mtllib R_Distal_F_1.mtl

o obj1
v 85.36244202 7 5.2087121
v 85.36244202 5 10.20871258
v 85.36244202 3 5.2087121
v 85.36244202 4.58894777 10.19178677
v 85.36244202 4.18067789 10.14112663
v 85.36244202 7 9.79128742
v 85.36244202 6.61649418 9.94019699
v 85.36244202 6.22204494 10.05707359
v 85.36244202 5.81932211 10.14112663
v 85.36244202 5.4110527 10.19178677
v 85.36244202 3.77795529 10.05707359
v 85.36244202 3.38350582 9.94019699
v 85.36244202 3 9.79128742
v 78.36244202 3 9.79128742
v 78.60070801 3.23826742 9.88806057
v 78.84363556 3.48119545 9.97245407
v 79.0905838 3.72814131 10.04424477
v 79.34089661 3.97845173 10.10324383
v 79.59390259 4.23146486 10.14929485
v 79.84895325 4.48651075 10.18227482
v 80.10535431 4.74291515 10.20209885
v 80.36244202 5 10.20871258
v 80.10535431 5.25708485 10.20209885
v 79.84895325 5.51348925 10.18227482
v 79.59390259 5.76853514 10.14929485
v 79.34089661 6.02154827 10.10324383
v 79.0905838 6.27185869 10.04424477
v 78.84363556 6.51880455 9.97245312
v 78.60070801 6.76173258 9.88806057
v 78.36244202 7 9.79128742
v 77.97922516 3 9.6041975
v 77.97922516 7 9.6041975
v 77.61334991 3 9.38513374
v 77.61334991 7 9.38513374
v 77.26747131 3 9.13568974
v 77.26747131 7 9.13568974
v 76.94410706 3 8.85768032
v 76.94410706 7 8.85768032
v 76.64559937 3 8.55312729
v 76.64559937 7 8.55312729
v 76.37413788 3 8.22424603
v 76.37413788 7 8.22424603
v 76.13168335 3 7.8734293
v 76.13168335 7 7.8734293
v 75.92001343 3 7.50322914
v 75.92001343 7 7.50322914
v 75.74064636 3 7.11633778
v 75.74064636 7 7.11633778
v 75.59490967 3 6.71556997
v 75.59490967 7 6.71556997
v 75.48384857 3 6.30384111
v 75.48384857 7 6.30384111
v 75.40827179 3 5.88414621
v 75.40827179 7 5.88414621
v 75.36873627 3 5.45953798
v 75.36873627 7 5.45953751
v 75.36552429 3 5.0331049
v 75.36552429 7 5.0331049
v 75.39866638 3 4.60794926
v 75.39866638 7 4.60794926
v 75.46791077 3 4.18716383
v 75.46791077 7 4.18716383
v 75.57276154 3 3.77380943
v 75.57276154 7 3.77380943
v 75.71244812 3 3.37089276
v 75.71244812 7 3.37089276
v 75.88596344 3 2.98134494
v 75.88596344 7 2.9813447
v 76.09204102 3 2.60799932
v 76.09204102 7 2.60799909
v 76.32918549 3 2.25357175
v 76.32918549 7 2.25357175
v 76.59566498 3 1.92064059
v 76.59566498 7 1.92064047
v 76.88954926 3 1.61162746
v 76.88954926 7 1.61162746
v 77.20869446 3 1.32878041
v 77.20869446 7 1.32878041
v 77.55078125 3 1.07415676
v 77.55078125 7 1.07415676
v 77.91331482 3 0.84960878
v 77.91331482 7 0.84960878
v 78.29367065 3 0.65676981
v 78.29367065 7 0.65676981
v 78.68907166 3 0.49704269
v 78.68907166 7 0.49704269
v 79.09664154 3 0.37158921
v 79.09664154 7 0.37158921
v 79.51342773 3 0.28132203
v 79.51342773 7 0.28132203
v 79.93638611 3 0.2268977
v 79.93638611 7 0.2268977
v 80.36244202 3 0.20871218
v 80.36244202 7 0.20871218
v 85.36244202 7 0.20871218
v 85.36244202 3 0.20871218
v 85.36244202 0 0.20871218
v 85.36244202 0 5.2087121
v 85.36244202 10 5.2087121
v 85.36244202 10 0.20871218
v 95.36244202 10 5.2087121
v 95.36244202 10 0.20871218
v 99.3824234 7.97316599 0.20871218
v 99.62008667 7.62153625 0.20871218
v 95.78646851 9.981987 0.20871218
v 96.20744324 9.92807961 0.20871218
v 96.62232971 9.83866501 0.20871218
v 97.02813721 9.71438694 0.20871218
v 97.42194366 9.55614281 0.20871218
v 97.80091858 9.36507034 0.20871218
v 98.16231537 9.14254856 0.20871218
v 98.50354004 8.89017868 0.20871218
v 98.82213593 8.60978031 0.20871218
v 99.11579895 8.30337334 0.20871218
v 99.82707214 7.25101852 0.20871218
v 100.00188446 6.86428261 0.20871218
v 100.1432724 6.46411371 0.20871218
v 100.25021362 6.05339622 0.20871218
v 100.32194519 5.63508892 0.20871218
v 100.35793304 5.21220589 0.20871218
v 100.35793304 4.78779411 0.20871218
v 100.32194519 4.36491108 0.20871218
v 100.25021362 3.94660354 0.20871218
v 100.1432724 3.53588605 0.20871218
v 100.00188446 3.13571763 0.20871218
v 99.82707214 2.74898124 0.20871218
v 99.62008667 2.37846351 0.20871218
v 99.3824234 2.02683401 0.20871218
v 95.36244202 0 0.20871218
v 99.11579895 1.69662642 0.20871218
v 98.82213593 1.39021957 0.20871218
v 98.50354004 1.1098212 0.20871218
v 98.16231537 0.85745174 0.20871218
v 97.80091858 0.63492942 0.20871218
v 97.42194366 0.44385755 0.20871218
v 97.02813721 0.28561276 0.20871218
v 96.62232971 0.16133526 0.20871218
v 96.20744324 0.07192045 0.20871218
v 95.78646851 0.01801256 0.20871218
v 95.78646851 9.981987 5.2087121
v 96.20744324 9.92807961 5.2087121
v 96.62232971 9.83866501 5.2087121
v 97.02813721 9.71438694 5.2087121
v 97.42194366 9.55614281 5.2087121
v 97.80091858 9.36507034 5.2087121
v 98.16231537 9.14254856 5.2087121
v 98.50354004 8.89017868 5.2087121
v 98.82213593 8.60978031 5.2087121
v 99.11579895 8.30337334 5.2087121
v 99.3824234 7.97316599 5.2087121
v 99.62008667 7.62153625 5.2087121
v 99.82707214 7.25101852 5.2087121
v 100.00188446 6.86428261 5.2087121
v 100.1432724 6.46411371 5.2087121
v 100.25021362 6.05339622 5.2087121
v 100.32194519 5.63508892 5.2087121
v 100.35793304 5.21220589 5.2087121
v 100.35793304 4.78779411 5.2087121
v 100.32194519 4.36491108 5.2087121
v 100.25021362 3.94660354 5.2087121
v 100.1432724 3.53588605 5.2087121
v 100.00188446 3.13571763 5.2087121
v 99.82707214 2.74898124 5.2087121
v 99.62008667 2.37846351 5.2087121
v 99.3824234 2.02683401 5.2087121
v 99.11579895 1.69662642 5.2087121
v 98.82213593 1.39021957 5.2087121
v 98.50354004 1.1098212 5.2087121
v 98.16231537 0.85745174 5.2087121
v 97.80091858 0.63492942 5.2087121
v 97.42194366 0.44385755 5.2087121
v 97.02813721 0.28561276 5.2087121
v 96.62232971 0.16133526 5.2087121
v 96.20744324 0.07192045 5.2087121
v 95.78646851 0.01801256 5.2087121
v 95.36244202 0 5.2087121
vn 1 0 0
vn 1 -0 0
vn 1 -0 0
vn 1 -0 0
vn 1 0 0
vn 1 0 0
vn 1 0 0
vn 1 0 0
vn 1 -0 0
vn 1 -0 0
vn 1 0 -0
vn -0 -0.3763 0.9265
vn 0.00059 -0.36196 0.9322
vn -0.00024 -0.32795 0.9447
vn 0.00049 -0.28409 0.9588
vn 0.00026 -0.27939 0.96018
vn -0.00017 -0.22926 0.97337
vn 0.0007 -0.20431 0.97891
vn -0.00018 -0.17889 0.98387
vn 0.00027 -0.12851 0.99171
vn 0.00058 -0.12314 0.99239
vn -0.00029 -0.07679 0.99705
vn 0.00075 -0.04114 0.99915
vn 0 -0.02572 0.99967
vn -0 0.02572 0.99967
vn 0.00075 0.04114 0.99915
vn -0.00029 0.07679 0.99705
vn 0.00058 0.12314 0.99239
vn 0.00027 0.12851 0.99171
vn -0.00018 0.17889 0.98387
vn 0.0007 0.20431 0.97891
vn -0.00017 0.22926 0.97337
vn 0.00026 0.27939 0.96018
vn 0.00049 0.28409 0.9588
vn -0.00024 0.32795 0.9447
vn 0.00059 0.36196 0.9322
vn 0 0.3763 0.9265
vn -0.3763 -0 0.9265
vn -0.3763 0 0.9265
vn -0.43872 -0 0.89862
vn -0.43872 0 0.89862
vn -0.5137 -0 0.85797
vn -0.5137 0 0.85797
vn -0.58494 -0 0.81108
vn -0.58494 0 0.81108
vn -0.65192 -0 0.75828
vn -0.65192 0 0.75828
vn -0.71417 -0 0.69998
vn -0.71417 0 0.69998
vn -0.77122 -0 0.63657
vn -0.77122 0 0.63657
vn -0.82265 -0 0.56854
vn -0.82265 0 0.56854
vn -0.86811 -0 0.49637
vn -0.86811 0 0.49637
vn -0.90725 -0 0.4206
vn -0.90725 0 0.4206
vn -0.93979 -0 0.34176
vn -0.93979 0 0.34176
vn -0.96549 -0 0.26044
vn -0.96549 0 0.26044
vn -0.98417 -0 0.17722
vn -0.98417 0 0.17722
vn -0.99569 -0 0.09271
vn -0.99569 0 0.09271
vn -0.99997 -0 0.00753
vn -0.99997 0 0.00753
vn -0.99698 -0 -0.07771
vn -0.99698 0 -0.07771
vn -0.98673 -0 -0.16238
vn -0.98673 0 -0.16238
vn -0.9693 -0 -0.24587
vn -0.9693 0 -0.24587
vn -0.94483 -0 -0.32757
vn -0.94483 0 -0.32757
vn -0.91348 -0 -0.40689
vn -0.91348 0 -0.40689
vn -0.87548 -0 -0.48325
vn -0.87548 0 -0.48325
vn -0.83112 -0 -0.55609
vn -0.83112 0 -0.55609
vn -0.78071 -0 -0.62489
vn -0.78071 0 -0.62489
vn -0.72463 -0 -0.68914
vn -0.72463 0 -0.68914
vn -0.66327 -0 -0.74838
vn -0.66327 0 -0.74838
vn -0.59708 -0 -0.80218
vn -0.59708 0 -0.80218
vn -0.52656 -0 -0.85014
vn -0.52656 0 -0.85014
vn -0.4522 -0 -0.89192
vn -0.4522 0 -0.89192
vn -0.37456 -0 -0.9272
vn -0.37456 0 -0.9272
vn -0.29418 -0 -0.95575
vn -0.29418 0 -0.95575
vn -0.21167 -0 -0.97734
vn -0.21167 0 -0.97734
vn -0.12762 -0 -0.99182
vn -0.12762 0 -0.99182
vn -0.04264 -0 -0.99909
vn -0.04264 0 -0.99909
vn -0.32816 0 0.94462
vn -0.32816 -0 0.94462
vn -0.27916 0 0.96025
vn -0.27916 -0 0.96025
vn -0.22942 0 0.97333
vn -0.22942 -0 0.97333
vn -0.17907 0 0.98384
vn -0.17907 -0 0.98384
vn -0.12824 0 0.99174
vn -0.12824 -0 0.99174
vn -0.07708 0 0.99702
vn -0.07708 -0 0.99702
vn -0.02572 0 0.99967
vn 0 1 0
vn 0 -1 -0
vn -1 0 0
vn -1 -0 -0
vn 0 0 -1
vn 0.04244 0.9991 -0
vn 0.04244 0.9991 0
vn 0.12702 0.9919 0
vn 0.12702 0.9919 0
vn 0.21068 0.97756 0
vn 0.21068 0.97756 0
vn 0.29282 0.95617 0
vn 0.29282 0.95617 0
vn 0.37286 0.92789 0
vn 0.37286 0.92789 0
vn 0.4502 0.89293 0
vn 0.4502 0.89293 0
vn 0.52431 0.85153 0
vn 0.59463 0.804 0
vn 0.66067 0.75067 0
vn 0.66067 0.75067 0
vn 0.72196 0.69194 0
vn 0.72196 0.69194 0
vn 0.77804 0.62822 0
vn 0.82851 0.55997 0
vn 0.82851 0.55997 0
vn 0.87301 0.48769 0
vn 0.87301 0.48769 0
vn 0.91123 0.4119 0
vn 0.91123 0.4119 0
vn 0.94288 0.33314 0
vn 0.94288 0.33314 0
vn 0.96773 0.25198 0
vn 0.96773 0.25198 -0
vn 0.98562 0.169 -0
vn 0.98562 0.169 -0
vn 0.9964 0.08481 -0
vn 0.9964 0.08481 0
vn 1 0 0
vn 0.9964 -0.08481 0
vn 0.9964 -0.08481 -0
vn 0.98562 -0.169 -0
vn 0.98562 -0.169 0
vn 0.96773 -0.25198 0
vn 0.96773 -0.25198 0
vn 0.94288 -0.33314 0
vn 0.91123 -0.4119 0
vn 0.91123 -0.4119 0
vn 0.87301 -0.48769 0
vn 0.82851 -0.55997 0
vn 0.82851 -0.55997 0
vn 0.77804 -0.62822 0
vn 0.77804 -0.62822 0
vn 0.72196 -0.69194 0
vn 0.72196 -0.69194 0
vn 0.66067 -0.75067 0
vn 0.66067 -0.75067 -0
vn 0.59463 -0.804 -0
vn 0.59463 -0.804 0
vn 0.52431 -0.85153 0
vn 0.4502 -0.89293 0
vn 0.4502 -0.89293 0
vn 0.37286 -0.92789 0
vn 0.37286 -0.92789 0
vn 0.29282 -0.95617 0
vn 0.29282 -0.95617 0
vn 0.21068 -0.97756 0
vn 0.21068 -0.97756 0
vn 0.12702 -0.9919 0
vn 0.12702 -0.9919 0
vn 0.04244 -0.9991 0
vn 0.04244 -0.9991 0
vn -0 0 1
usemtl mat2
f 3//2 2//2 4//2
f 3//3 4//3 5//3
f 6//4 7//4 1//4
f 1//5 7//5 8//5
f 1//6 8//6 9//6
f 9//7 10//7 1//7
f 1//8 10//8 2//8
f 5//9 11//9 3//9
f 3//10 11//10 12//10
f 3//11 12//11 13//11
f 14//12 13//12 15//12
f 15//13 13//13 12//13
f 15//14 12//14 16//14
f 16//15 12//15 11//15
f 16//16 11//16 17//16
f 17//17 11//17 18//17
f 18//18 11//18 5//18
f 18//19 5//19 19//19
f 19//20 5//20 20//20
f 20//21 5//21 4//21
f 20//22 4//22 21//22
f 21//23 4//23 2//23
f 21//24 2//24 22//24
f 22//25 2//25 23//25
f 23//26 2//26 10//26
f 23//27 10//27 24//27
f 24//28 10//28 9//28
f 24//29 9//29 25//29
f 25//30 9//30 26//30
f 26//31 9//31 8//31
f 26//32 8//32 27//32
f 27//33 8//33 28//33
f 28//34 8//34 7//34
f 28//35 7//35 29//35
f 29//36 7//36 6//36
f 29//37 6//37 30//37
f 15//38 29//38 14//38
f 14//39 29//39 30//39
f 14//40 30//40 31//40
f 31//41 30//41 32//41
f 31//42 32//42 33//42
f 33//43 32//43 34//43
f 33//44 34//44 35//44
f 35//45 34//45 36//45
f 35//46 36//46 37//46
f 37//47 36//47 38//47
f 37//48 38//48 39//48
f 39//49 38//49 40//49
f 39//50 40//50 41//50
f 41//51 40//51 42//51
f 41//52 42//52 43//52
f 43//53 42//53 44//53
f 43//54 44//54 45//54
f 45//55 44//55 46//55
f 45//56 46//56 47//56
f 47//57 46//57 48//57
f 47//58 48//58 49//58
f 49//59 48//59 50//59
f 49//60 50//60 51//60
f 51//61 50//61 52//61
f 51//62 52//62 53//62
f 53//63 52//63 54//63
f 53//64 54//64 55//64
f 55//65 54//65 56//65
f 55//66 56//66 57//66
f 57//67 56//67 58//67
f 57//68 58//68 59//68
f 59//69 58//69 60//69
f 59//70 60//70 61//70
f 61//71 60//71 62//71
f 61//72 62//72 63//72
f 63//73 62//73 64//73
f 63//74 64//74 65//74
f 65//75 64//75 66//75
f 65//76 66//76 67//76
f 67//77 66//77 68//77
f 67//78 68//78 69//78
f 69//79 68//79 70//79
f 69//80 70//80 71//80
f 71//81 70//81 72//81
f 71//82 72//82 73//82
f 73//83 72//83 74//83
f 73//84 74//84 75//84
f 75//85 74//85 76//85
f 75//86 76//86 77//86
f 77//87 76//87 78//87
f 77//88 78//88 79//88
f 79//89 78//89 80//89
f 79//90 80//90 81//90
f 81//91 80//91 82//91
f 81//92 82//92 83//92
f 83//93 82//93 84//93
f 83//94 84//94 85//94
f 85//95 84//95 86//95
f 85//96 86//96 87//96
f 87//97 86//97 88//97
f 87//98 88//98 89//98
f 89//99 88//99 90//99
f 89//100 90//100 91//100
f 91//101 90//101 92//101
f 91//102 92//102 93//102
f 93//103 92//103 94//103
f 29//104 15//104 28//104
f 28//105 15//105 16//105
f 28//106 16//106 27//106
f 27//107 16//107 17//107
f 27//108 17//108 26//108
f 26//109 17//109 18//109
f 26//110 18//110 25//110
f 25//111 18//111 19//111
f 25//112 19//112 24//112
f 24//113 19//113 20//113
f 24//114 20//114 23//114
f 23//115 20//115 21//115
f 23//116 21//116 22//116
f 6//117 1//117 30//117
f 30//117 1//117 32//117
f 32//117 1//117 34//117
f 34//117 1//117 36//117
f 36//117 1//117 38//117
f 38//117 1//117 40//117
f 40//117 1//117 42//117
f 42//117 1//117 44//117
f 44//117 1//117 46//117
f 46//117 1//117 48//117
f 48//117 1//117 50//117
f 50//117 1//117 52//117
f 52//117 1//117 54//117
f 54//117 1//117 56//117
f 56//117 1//117 58//117
f 58//117 1//117 60//117
f 60//117 1//117 62//117
f 62//117 1//117 64//117
f 64//117 1//117 66//117
f 66//117 1//117 68//117
f 68//117 1//117 70//117
f 70//117 1//117 72//117
f 72//117 1//117 74//117
f 74//117 1//117 76//117
f 76//117 1//117 78//117
f 78//117 1//117 80//117
f 80//117 1//117 82//117
f 82//117 1//117 84//117
f 84//117 1//117 86//117
f 86//117 1//117 88//117
f 88//117 1//117 90//117
f 90//117 1//117 92//117
f 92//117 1//117 94//117
f 94//117 1//117 95//117
f 13//118 14//118 3//118
f 3//118 14//118 31//118
f 3//118 31//118 33//118
f 33//118 35//118 3//118
f 3//118 35//118 37//118
f 3//118 37//118 39//118
f 39//118 41//118 3//118
f 3//118 41//118 43//118
f 3//118 43//118 45//118
f 45//118 47//118 3//118
f 3//118 47//118 49//118
f 3//118 49//118 51//118
f 51//118 53//118 3//118
f 3//118 53//118 55//118
f 3//118 55//118 57//118
f 57//118 59//118 3//118
f 3//118 59//118 61//118
f 3//118 61//118 63//118
f 63//118 65//118 3//118
f 3//118 65//118 67//118
f 3//118 67//118 69//118
f 69//118 71//118 3//118
f 3//118 71//118 73//118
f 3//118 73//118 75//118
f 75//118 77//118 3//118
f 3//118 77//118 79//118
f 3//118 79//118 81//118
f 81//118 83//118 3//118
f 3//118 83//118 85//118
f 3//118 85//118 87//118
f 87//118 89//118 3//118
f 3//118 89//118 91//118
f 3//118 91//118 93//118
f 93//118 96//118 3//118
f 96//119 97//119 3//119
f 3//119 97//119 98//119
f 1//120 99//120 95//120
f 95//120 99//120 100//120
f 99//117 101//117 100//117
f 100//117 101//117 102//117
f 100//121 102//121 95//121
f 95//121 102//121 103//121
f 95//121 103//121 104//121
f 105//121 106//121 102//121
f 102//121 106//121 107//121
f 102//121 107//121 108//121
f 108//121 109//121 102//121
f 102//121 109//121 110//121
f 102//121 110//121 111//121
f 111//121 112//121 102//121
f 102//121 112//121 113//121
f 102//121 113//121 114//121
f 114//121 103//121 102//121
f 104//121 115//121 95//121
f 95//121 115//121 116//121
f 95//121 116//121 117//121
f 117//121 118//121 95//121
f 95//121 118//121 119//121
f 95//121 119//121 120//121
f 95//121 120//121 96//121
f 96//121 120//121 121//121
f 96//121 121//121 122//121
f 122//121 123//121 96//121
f 96//121 123//121 124//121
f 96//121 124//121 125//121
f 125//121 126//121 96//121
f 96//121 126//121 127//121
f 96//121 127//121 128//121
f 96//121 128//121 129//121
f 129//121 128//121 130//121
f 129//121 130//121 131//121
f 131//121 132//121 129//121
f 129//121 132//121 133//121
f 129//121 133//121 134//121
f 134//121 135//121 129//121
f 129//121 135//121 136//121
f 129//121 136//121 137//121
f 137//121 138//121 129//121
f 129//121 138//121 139//121
f 129//121 97//121 96//121
f 96//121 93//121 95//121
f 95//121 93//121 94//121
f 102//122 101//122 105//122
f 105//123 101//123 140//123
f 105//124 140//124 106//124
f 106//125 140//125 141//125
f 106//126 141//126 107//126
f 107//127 141//127 142//127
f 107//128 142//128 108//128
f 108//129 142//129 143//129
f 108//130 143//130 109//130
f 109//131 143//131 144//131
f 109//132 144//132 110//132
f 110//133 144//133 145//133
f 110//134 145//134 111//134
f 111//134 145//134 146//134
f 111//135 146//135 112//135
f 112//135 146//135 147//135
f 112//136 147//136 113//136
f 113//137 147//137 148//137
f 113//138 148//138 114//138
f 114//139 148//139 149//139
f 114//140 149//140 103//140
f 103//140 149//140 150//140
f 103//141 150//141 104//141
f 104//142 150//142 151//142
f 104//143 151//143 115//143
f 115//144 151//144 152//144
f 115//145 152//145 116//145
f 116//146 152//146 153//146
f 116//147 153//147 117//147
f 117//148 153//148 154//148
f 117//149 154//149 118//149
f 118//150 154//150 155//150
f 118//151 155//151 119//151
f 119//152 155//152 156//152
f 119//153 156//153 120//153
f 120//154 156//154 157//154
f 120//155 157//155 121//155
f 121//155 157//155 158//155
f 121//156 158//156 122//156
f 122//157 158//157 159//157
f 122//158 159//158 123//158
f 123//159 159//159 160//159
f 123//160 160//160 124//160
f 124//161 160//161 161//161
f 124//162 161//162 125//162
f 125//162 161//162 162//162
f 125//163 162//163 126//163
f 126//164 162//164 163//164
f 126//165 163//165 127//165
f 127//165 163//165 164//165
f 127//166 164//166 128//166
f 128//167 164//167 165//167
f 128//168 165//168 130//168
f 130//169 165//169 166//169
f 130//170 166//170 131//170
f 131//171 166//171 167//171
f 131//172 167//172 132//172
f 132//173 167//173 168//173
f 132//174 168//174 133//174
f 133//175 168//175 169//175
f 133//176 169//176 134//176
f 134//176 169//176 170//176
f 134//177 170//177 135//177
f 135//178 170//178 171//178
f 135//179 171//179 136//179
f 136//180 171//180 172//180
f 136//181 172//181 137//181
f 137//182 172//182 173//182
f 137//183 173//183 138//183
f 138//184 173//184 174//184
f 138//185 174//185 139//185
f 139//186 174//186 175//186
f 139//187 175//187 129//187
f 129//188 175//188 176//188
f 176//118 98//118 129//118
f 129//118 98//118 97//118
f 99//189 1//189 101//189
f 101//189 1//189 156//189
f 101//189 156//189 155//189
f 156//189 1//189 157//189
f 157//189 1//189 3//189
f 157//189 3//189 158//189
f 158//189 3//189 159//189
f 159//189 3//189 176//189
f 159//189 176//189 160//189
f 160//189 176//189 161//189
f 161//189 176//189 162//189
f 162//189 176//189 163//189
f 163//189 176//189 164//189
f 164//189 176//189 165//189
f 165//189 176//189 166//189
f 166//189 176//189 167//189
f 167//189 176//189 168//189
f 168//189 176//189 169//189
f 169//189 176//189 170//189
f 170//189 176//189 171//189
f 171//189 176//189 172//189
f 172//189 176//189 173//189
f 173//189 176//189 174//189
f 174//189 176//189 175//189
f 3//189 98//189 176//189
f 155//189 154//189 101//189
f 101//189 154//189 153//189
f 101//189 153//189 152//189
f 152//189 151//189 101//189
f 101//189 151//189 150//189
f 101//189 150//189 149//189
f 149//189 148//189 101//189
f 101//189 148//189 147//189
f 101//189 147//189 146//189
f 146//189 145//189 101//189
f 101//189 145//189 144//189
f 101//189 144//189 143//189
f 143//189 142//189 101//189
f 101//189 142//189 141//189
f 101//189 141//189 140//189
usemtl mat1
f 1//1 2//1 3//1
# Vertices: 176, normals: 189, texture coordinates: 0, faces: 348

