# File generated by ImageToStl.com - Free Image and 3D model conversion tools

mtllib R_Proximal_F_1.mtl

o obj1
v 50.60268402 0 0.03645563
v 51.19657898 0 0.14529091
v 50 0 0
v 51.77302551 0 0.32491878
v 52.32361603 0 0.57271987
v 52.8403244 0 0.8850807
v 53.31561279 0 1.25744629
v 53.74255371 0 1.68438673
v 54.11491776 0 2.15967631
v 5 0 0
v 54.42728043 0 2.67638421
v 54.67507935 0 3.22697568
v 54.85470963 0 3.80342174
v 54.96354294 0 4.39731646
v 55 0 5
v 5 0 10
v 54.96354294 0 5.60268354
v 54.85470963 0 6.1965785
v 54.67507935 0 6.77302456
v 54.42728043 0 7.32361603
v 54.11491776 0 7.84032393
v 50 0 10
v 53.74255371 0 8.31561375
v 53.31561279 0 8.74255371
v 52.8403244 0 9.11491966
v 52.32361603 0 9.42728043
v 51.77302551 0 9.67508125
v 51.19657898 0 9.85470867
v 50.60268402 0 9.96354485
v 50 3 10
v 50.60268402 3 9.96354485
v 51.19657898 3 9.85470867
v 51.77302551 3 9.67508125
v 52.32361603 3 9.42728043
v 52.8403244 3 9.11491966
v 53.31561279 3 8.74255371
v 53.74255371 3 8.31561375
v 54.11491776 3 7.84032393
v 54.42728043 3 7.32361603
v 54.67507935 3 6.77302456
v 54.85470963 3 6.1965785
v 54.96354294 3 5.60268354
v 55 3 5
v 54.96354294 3 4.39731646
v 54.85470963 3 3.80342174
v 54.67507935 3 3.22697568
v 54.42728043 3 2.67638421
v 54.11491776 3 2.15967631
v 53.74255371 3 1.68438673
v 53.31561279 3 1.25744629
v 52.8403244 3 0.8850807
v 52.32361603 3 0.57271987
v 51.77302551 3 0.32491878
v 51.19657898 3 0.14529091
v 50.60268402 3 0.03645563
v 50 3 0
v 45 3 10
v 5 3 10
v 5 7 10
v -7E-08 7 10
v 45 7 10
v 5 10 10
v 50 10 10
v 50 7 10
v -7E-08 3 10
v 45 7 0
v 50 7 0
v 50.60268402 7 0.03645563
v 50.60268402 7 9.96354485
v 51.19657898 7 0.14529091
v 51.19657898 7 9.85470867
v 51.77302551 7 0.32491878
v 51.77302551 7 9.67508125
v 52.32361603 7 0.57271987
v 52.32361603 7 9.42728043
v 52.8403244 7 0.8850807
v 52.8403244 7 9.11491966
v 53.31561279 7 1.25744629
v 53.31561279 7 8.74255371
v 53.74255371 7 8.31561375
v 53.74255371 7 1.68438673
v 54.11491776 7 7.84032393
v 54.11491776 7 2.15967631
v 54.42728043 7 7.32361603
v 54.42728043 7 2.67638421
v 54.67507935 7 6.77302456
v 54.67507935 7 3.22697568
v 54.85470963 7 6.1965785
v 54.85470963 7 3.80342174
v 54.96354294 7 5.60268354
v 54.96354294 7 4.39731646
v 55 7 5
v 50 10 0
v 50.60268402 10 0.03645563
v 51.19657898 10 0.14529091
v 51.77302551 10 0.32491878
v 52.32361603 10 0.57271987
v 52.8403244 10 0.8850807
v 53.31561279 10 1.25744629
v 53.74255371 10 1.68438673
v 54.11491776 10 2.15967631
v 54.42728043 10 2.67638421
v 54.67507935 10 3.22697568
v 54.85470963 10 3.80342174
v 54.96354294 10 4.39731646
v 55 10 5
v 54.96354294 10 5.60268354
v 54.85470963 10 6.1965785
v 54.67507935 10 6.77302456
v 54.42728043 10 7.32361603
v 54.11491776 10 7.84032393
v 53.74255371 10 8.31561375
v 53.31561279 10 8.74255371
v 52.8403244 10 9.11491966
v 52.32361603 10 9.42728043
v 51.77302551 10 9.67508125
v 51.19657898 10 9.85470867
v 50.60268402 10 9.96354485
v 5 7 0
v -7E-08 7 0
v -0.60268348 7 0.03645563
v -1.19657838 7 0.14529091
v -1.77302456 7 0.32491878
v -2.32361603 7 0.57271987
v -2.84032393 7 0.8850807
v -3.31561327 7 1.25744629
v -0.60268348 7 9.96354485
v -1.19657838 7 9.85470867
v -1.77302456 7 9.67508125
v -2.32361603 7 9.42728043
v -2.84032393 7 9.11491966
v -3.31561327 7 8.74255371
v -3.74255371 7 8.31561375
v -4.11491919 7 7.84032393
v -4.42728043 7 7.32361603
v -4.67508125 7 6.77302456
v -4.85470915 7 6.1965785
v -4.96354437 7 5.60268354
v -5 7 5
v -4.96354437 7 4.39731646
v -4.85470915 7 3.80342174
v -4.67508125 7 3.22697568
v -4.42728043 7 2.67638421
v -4.11491919 7 2.15967631
v -3.74255371 7 1.68438673
v -7E-08 3 0
v -0.60268348 3 0.03645563
v -1.19657838 3 0.14529091
v -1.77302456 3 0.32491878
v -2.32361603 3 0.57271987
v -2.84032393 3 0.8850807
v -3.31561327 3 1.25744629
v -3.74255371 3 1.68438673
v -4.11491919 3 2.15967631
v -4.42728043 3 2.67638421
v -4.67508125 3 3.22697568
v -4.85470915 3 3.80342174
v -4.96354437 3 4.39731646
v -5 3 5
v -4.96354437 3 5.60268354
v -4.85470915 3 6.1965785
v -4.67508125 3 6.77302456
v -4.42728043 3 7.32361603
v -4.11491919 3 7.84032393
v -3.74255371 3 8.31561375
v -3.31561327 3 8.74255371
v -2.84032393 3 9.11491966
v -2.32361603 3 9.42728043
v -1.77302456 3 9.67508125
v -1.19657838 3 9.85470867
v -0.60268348 3 9.96354485
v 5 3 0
v 5 10 0
v 45 3 0
vn -0 -1 0
vn 0.06038 0 0.99818
vn 0.18026 0 0.98362
vn 0.18026 -0 0.98362
vn 0.2975 -0 0.95472
vn 0.2975 0 0.95472
vn 0.41041 0 0.9119
vn 0.41041 0 0.9119
vn 0.51734 0 0.85578
vn 0.51734 0 0.85578
vn 0.61672 0 0.78718
vn 0.61672 0 0.78718
vn 0.70711 0 0.70711
vn 0.70711 0 0.70711
vn 0.78718 0 0.61672
vn 0.85578 0 0.51734
vn 0.9119 0 0.41041
vn 0.9119 0 0.41041
vn 0.95472 0 0.2975
vn 0.95472 0 0.2975
vn 0.98362 0 0.18026
vn 0.99818 0 0.06038
vn 0.99818 0 -0.06038
vn 0.99818 -0 -0.06038
vn 0.98362 -0 -0.18026
vn 0.98362 0 -0.18026
vn 0.95472 0 -0.2975
vn 0.95472 -0 -0.2975
vn 0.9119 -0 -0.41041
vn 0.9119 0 -0.41041
vn 0.85578 0 -0.51734
vn 0.78718 0 -0.61672
vn 0.78718 -0 -0.61672
vn 0.70711 -0 -0.70711
vn 0.70711 -0 -0.70711
vn 0.61672 -0 -0.78718
vn 0.61672 0 -0.78718
vn 0.51734 0 -0.85578
vn 0.41041 0 -0.9119
vn 0.2975 0 -0.95472
vn 0.2975 0 -0.95472
vn 0.18026 0 -0.98362
vn 0.18026 -0 -0.98362
vn 0.06038 -0 -0.99818
vn 0.06038 0 -0.99818
vn 0 0 1
vn 0.18026 -0 -0.98362
vn 0.2975 0 -0.95472
vn 0.70711 -0 -0.70711
vn 0.70711 -0 -0.70711
vn 0.9119 -0 -0.41041
vn 0.95472 0 0.2975
vn 0.51734 0 0.85578
vn 0.2975 -0 0.95472
vn 0 1 0
vn -0.06038 -0 -0.99818
vn -0.06038 0 -0.99818
vn -0.18026 0 -0.98362
vn -0.18026 -0 -0.98362
vn -0.2975 -0 -0.95472
vn -0.2975 -0 -0.95472
vn -0.41041 -0 -0.9119
vn -0.41041 -0 -0.9119
vn -0.51734 -0 -0.85578
vn -0.51734 -0 -0.85578
vn -0.61672 -0 -0.78718
vn -0.61672 0 -0.78718
vn -0.70711 -0 -0.70711
vn -0.70711 0 -0.70711
vn -0.78718 -0 -0.61672
vn -0.78718 -0 -0.61672
vn -0.85578 -0 -0.51734
vn -0.85578 -0 -0.51734
vn -0.9119 -0 -0.41041
vn -0.9119 0 -0.41041
vn -0.95472 0 -0.2975
vn -0.95472 -0 -0.2975
vn -0.98362 -0 -0.18026
vn -0.98362 -0 -0.18026
vn -0.99818 -0 -0.06038
vn -0.99818 -0 -0.06038
vn -0.99818 0 0.06038
vn -0.99818 0 0.06038
vn -0.98362 0 0.18026
vn -0.98362 0 0.18026
vn -0.95472 0 0.2975
vn -0.95472 -0 0.2975
vn -0.9119 -0 0.41041
vn -0.9119 0 0.41041
vn -0.85578 0 0.51734
vn -0.85578 0 0.51734
vn -0.78718 0 0.61672
vn -0.78718 0 0.61672
vn -0.70711 0 0.70711
vn -0.70711 0 0.70711
vn -0.61672 -0 0.78718
vn -0.61672 0 0.78718
vn -0.51734 0 0.85578
vn -0.41041 0 0.9119
vn -0.41041 0 0.9119
vn -0.2975 0 0.95472
vn -0.2975 -0 0.95472
vn -0.18026 -0 0.98362
vn -0.18026 -0 0.98362
vn -0.06038 -0 0.99818
vn -0.06038 0 0.99818
vn -1 0 0
vn 0 1 0
vn 0 1 0
vn 0 1 0
vn 0 1 0
vn 0 1 0
vn 0 1 0
vn 0 1 0
vn 0 1 -0
vn 0 1 -0
vn 0 1 -0
vn 0 1 -0
vn 0 1 -0
vn 0 1 -0
vn 1 0 0
vn -0 -0 -1
usemtl mat2
f 3//1 2//1 4//1
f 3//1 4//1 5//1
f 5//1 6//1 3//1
f 3//1 6//1 7//1
f 3//1 7//1 8//1
f 8//1 9//1 3//1
f 3//1 9//1 10//1
f 10//1 9//1 11//1
f 10//1 11//1 12//1
f 12//1 13//1 10//1
f 10//1 13//1 14//1
f 10//1 14//1 15//1
f 10//1 15//1 16//1
f 16//1 15//1 17//1
f 16//1 17//1 18//1
f 18//1 19//1 16//1
f 16//1 19//1 20//1
f 16//1 20//1 21//1
f 16//1 21//1 22//1
f 22//1 21//1 23//1
f 22//1 23//1 24//1
f 24//1 25//1 22//1
f 22//1 25//1 26//1
f 22//1 26//1 27//1
f 27//1 28//1 22//1
f 22//1 28//1 29//1
f 30//2 22//2 31//2
f 31//2 22//2 29//2
f 31//3 29//3 32//3
f 32//4 29//4 28//4
f 32//5 28//5 33//5
f 33//6 28//6 27//6
f 33//7 27//7 34//7
f 34//8 27//8 26//8
f 34//9 26//9 35//9
f 35//10 26//10 25//10
f 35//11 25//11 36//11
f 36//12 25//12 24//12
f 36//13 24//13 37//13
f 37//14 24//14 23//14
f 37//15 23//15 38//15
f 38//15 23//15 21//15
f 38//16 21//16 39//16
f 39//16 21//16 20//16
f 39//17 20//17 40//17
f 40//18 20//18 19//18
f 40//19 19//19 41//19
f 41//20 19//20 18//20
f 41//21 18//21 42//21
f 42//21 18//21 17//21
f 42//22 17//22 43//22
f 43//22 17//22 15//22
f 43//23 15//23 44//23
f 44//24 15//24 14//24
f 44//25 14//25 45//25
f 45//26 14//26 13//26
f 45//27 13//27 46//27
f 46//28 13//28 12//28
f 46//29 12//29 47//29
f 47//30 12//30 11//30
f 47//31 11//31 48//31
f 48//31 11//31 9//31
f 48//32 9//32 49//32
f 49//33 9//33 8//33
f 49//34 8//34 50//34
f 50//35 8//35 7//35
f 50//36 7//36 51//36
f 51//37 7//37 6//37
f 51//38 6//38 52//38
f 52//38 6//38 5//38
f 52//39 5//39 53//39
f 53//39 5//39 4//39
f 53//40 4//40 54//40
f 54//41 4//41 2//41
f 54//42 2//42 55//42
f 55//43 2//43 1//43
f 55//44 1//44 56//44
f 56//45 1//45 3//45
f 30//46 57//46 22//46
f 22//46 57//46 16//46
f 16//46 57//46 58//46
f 58//46 57//46 59//46
f 58//46 59//46 60//46
f 57//46 61//46 59//46
f 59//46 61//46 62//46
f 62//46 61//46 63//46
f 63//46 61//46 64//46
f 60//46 65//46 58//46
f 66//1 67//1 64//1
f 64//1 67//1 68//1
f 64//1 68//1 69//1
f 69//1 68//1 70//1
f 69//1 70//1 71//1
f 71//1 70//1 72//1
f 71//1 72//1 73//1
f 73//1 72//1 74//1
f 73//1 74//1 75//1
f 75//1 74//1 76//1
f 75//1 76//1 77//1
f 77//1 76//1 78//1
f 77//1 78//1 79//1
f 79//1 78//1 80//1
f 80//1 78//1 81//1
f 80//1 81//1 82//1
f 82//1 81//1 83//1
f 82//1 83//1 84//1
f 84//1 83//1 85//1
f 84//1 85//1 86//1
f 86//1 85//1 87//1
f 86//1 87//1 88//1
f 88//1 87//1 89//1
f 88//1 89//1 90//1
f 90//1 89//1 91//1
f 90//1 91//1 92//1
f 64//1 61//1 66//1
f 67//45 93//45 68//45
f 68//44 93//44 94//44
f 68//47 94//47 70//47
f 70//42 94//42 95//42
f 70//48 95//48 72//48
f 72//40 95//40 96//40
f 72//39 96//39 74//39
f 74//39 96//39 97//39
f 74//38 97//38 76//38
f 76//38 97//38 98//38
f 76//37 98//37 78//37
f 78//36 98//36 99//36
f 78//49 99//49 81//49
f 81//50 99//50 100//50
f 81//33 100//33 83//33
f 83//32 100//32 101//32
f 83//31 101//31 85//31
f 85//31 101//31 102//31
f 85//30 102//30 87//30
f 87//51 102//51 103//51
f 87//28 103//28 89//28
f 89//27 103//27 104//27
f 89//26 104//26 91//26
f 91//25 104//25 105//25
f 91//24 105//24 92//24
f 92//23 105//23 106//23
f 92//22 106//22 90//22
f 90//22 106//22 107//22
f 90//21 107//21 88//21
f 88//21 107//21 108//21
f 88//20 108//20 86//20
f 86//52 108//52 109//52
f 86//18 109//18 84//18
f 84//17 109//17 110//17
f 84//16 110//16 82//16
f 82//16 110//16 111//16
f 82//15 111//15 80//15
f 80//15 111//15 112//15
f 80//14 112//14 79//14
f 79//13 112//13 113//13
f 79//12 113//12 77//12
f 77//11 113//11 114//11
f 77//10 114//10 75//10
f 75//53 114//53 115//53
f 75//8 115//8 73//8
f 73//7 115//7 116//7
f 73//6 116//6 71//6
f 71//54 116//54 117//54
f 71//4 117//4 69//4
f 69//3 117//3 118//3
f 69//2 118//2 64//2
f 64//2 118//2 63//2
f 119//55 120//55 60//55
f 60//55 120//55 121//55
f 60//55 121//55 122//55
f 122//55 123//55 60//55
f 60//55 123//55 124//55
f 60//55 124//55 125//55
f 125//55 126//55 60//55
f 60//55 126//55 127//55
f 127//55 126//55 128//55
f 128//55 126//55 129//55
f 129//55 126//55 130//55
f 130//55 126//55 131//55
f 131//55 126//55 132//55
f 132//55 126//55 133//55
f 133//55 126//55 134//55
f 134//55 126//55 135//55
f 135//55 126//55 136//55
f 136//55 126//55 137//55
f 137//55 126//55 138//55
f 138//55 126//55 139//55
f 139//55 126//55 140//55
f 140//55 126//55 141//55
f 141//55 126//55 142//55
f 142//55 126//55 143//55
f 143//55 126//55 144//55
f 144//55 126//55 145//55
f 60//55 59//55 119//55
f 120//56 146//56 121//56
f 121//57 146//57 147//57
f 121//58 147//58 122//58
f 122//59 147//59 148//59
f 122//60 148//60 123//60
f 123//61 148//61 149//61
f 123//62 149//62 124//62
f 124//63 149//63 150//63
f 124//64 150//64 125//64
f 125//65 150//65 151//65
f 125//66 151//66 126//66
f 126//67 151//67 152//67
f 126//68 152//68 145//68
f 145//69 152//69 153//69
f 145//70 153//70 144//70
f 144//71 153//71 154//71
f 144//72 154//72 143//72
f 143//73 154//73 155//73
f 143//74 155//74 142//74
f 142//75 155//75 156//75
f 142//76 156//76 141//76
f 141//77 156//77 157//77
f 141//78 157//78 140//78
f 140//79 157//79 158//79
f 140//80 158//80 139//80
f 139//81 158//81 159//81
f 139//82 159//82 138//82
f 138//83 159//83 160//83
f 138//84 160//84 137//84
f 137//85 160//85 161//85
f 137//86 161//86 136//86
f 136//87 161//87 162//87
f 136//88 162//88 135//88
f 135//89 162//89 163//89
f 135//90 163//90 134//90
f 134//91 163//91 164//91
f 134//92 164//92 133//92
f 133//93 164//93 165//93
f 133//94 165//94 132//94
f 132//95 165//95 166//95
f 132//96 166//96 131//96
f 131//97 166//97 167//97
f 131//98 167//98 130//98
f 130//98 167//98 168//98
f 130//99 168//99 129//99
f 129//100 168//100 169//100
f 129//101 169//101 128//101
f 128//102 169//102 170//102
f 128//103 170//103 127//103
f 127//104 170//104 171//104
f 127//105 171//105 60//105
f 60//106 171//106 65//106
f 171//1 152//1 65//1
f 65//1 152//1 151//1
f 65//1 151//1 150//1
f 171//1 170//1 152//1
f 152//1 170//1 169//1
f 152//1 169//1 168//1
f 168//1 167//1 152//1
f 152//1 167//1 166//1
f 152//1 166//1 165//1
f 165//1 164//1 152//1
f 152//1 164//1 163//1
f 152//1 163//1 162//1
f 162//1 161//1 152//1
f 152//1 161//1 160//1
f 152//1 160//1 159//1
f 159//1 158//1 152//1
f 152//1 158//1 157//1
f 152//1 157//1 156//1
f 156//1 155//1 152//1
f 152//1 155//1 154//1
f 152//1 154//1 153//1
f 150//1 149//1 65//1
f 65//1 149//1 148//1
f 65//1 148//1 147//1
f 147//1 146//1 65//1
f 65//1 146//1 172//1
f 65//1 172//1 58//1
f 173//107 119//107 62//107
f 62//107 119//107 59//107
f 118//55 117//55 63//55
f 63//55 117//55 116//55
f 63//55 116//55 115//55
f 115//55 114//55 63//55
f 63//55 114//55 113//55
f 63//55 113//55 112//55
f 112//55 111//55 63//55
f 63//108 111//108 62//108
f 62//109 111//109 110//109
f 62//110 110//110 109//110
f 109//111 108//111 62//111
f 62//112 108//112 107//112
f 62//113 107//113 106//113
f 62//114 106//114 173//114
f 173//115 106//115 105//115
f 173//116 105//116 104//116
f 104//117 103//117 173//117
f 173//118 103//118 102//118
f 173//119 102//119 101//119
f 173//120 101//120 93//120
f 93//55 101//55 100//55
f 93//55 100//55 99//55
f 99//55 98//55 93//55
f 93//55 98//55 97//55
f 93//55 97//55 96//55
f 96//55 95//55 93//55
f 93//55 95//55 94//55
f 174//121 66//121 57//121
f 57//121 66//121 61//121
f 31//55 55//55 30//55
f 30//55 55//55 56//55
f 30//55 56//55 174//55
f 55//55 31//55 54//55
f 54//55 31//55 32//55
f 54//55 32//55 53//55
f 53//55 32//55 33//55
f 53//55 33//55 52//55
f 52//55 33//55 34//55
f 52//55 34//55 51//55
f 51//55 34//55 35//55
f 51//55 35//55 50//55
f 50//55 35//55 36//55
f 50//55 36//55 37//55
f 50//55 37//55 49//55
f 49//55 37//55 38//55
f 49//55 38//55 48//55
f 48//55 38//55 39//55
f 48//55 39//55 47//55
f 47//55 39//55 40//55
f 47//55 40//55 46//55
f 46//55 40//55 41//55
f 46//55 41//55 45//55
f 45//55 41//55 42//55
f 45//55 42//55 44//55
f 44//55 42//55 43//55
f 174//55 57//55 30//55
f 172//107 10//107 58//107
f 58//107 10//107 16//107
f 56//122 3//122 174//122
f 174//122 3//122 10//122
f 174//122 10//122 172//122
f 146//122 119//122 172//122
f 172//122 119//122 66//122
f 172//122 66//122 174//122
f 146//122 120//122 119//122
f 119//122 173//122 66//122
f 66//122 173//122 93//122
f 66//122 93//122 67//122
usemtl mat1
f 1//1 2//1 3//1
# Vertices: 174, normals: 122, texture coordinates: 0, faces: 344

